{"glyphs":{"0":{"ha":614,"x_min":7,"x_max":607,"o":"m 307 -6 q 165 14 221 -6 q 72 68 108 33 q 24 146 42 100 q 7 264 7 192 l 7 717 q 24 835 7 789 q 72 913 42 882 q 165 967 108 949 q 307 986 221 986 q 450 967 393 986 q 542 913 507 949 q 590 835 574 882 q 607 717 607 789 l 607 264 q 590 146 607 192 q 542 68 574 100 q 450 14 507 33 q 307 -6 393 -6 m 307 147 q 363 168 342 147 q 376 192 371 176 q 382 236 382 208 l 382 744 q 376 788 382 772 q 363 813 371 804 q 307 833 342 833 q 251 813 272 833 q 238 788 243 804 q 232 744 232 772 l 232 236 q 238 192 232 208 q 251 168 243 176 q 307 147 272 147 z "},"1":{"ha":321,"x_min":0,"x_max":314,"o":"m 89 0 l 89 753 l 0 753 l 86 981 l 314 981 l 314 0 l 89 0 z "},"2":{"ha":581,"x_min":7,"x_max":574,"o":"m 7 0 l 7 167 l 282 567 q 333 662 315 615 q 350 756 350 708 q 338 811 350 789 q 292 833 326 833 q 244 810 256 833 q 232 751 232 788 l 232 635 l 7 635 l 7 733 q 22 843 7 794 q 75 925 38 892 q 162 970 108 954 q 293 986 215 986 q 424 969 369 986 q 511 919 478 953 q 558 844 543 889 q 574 739 574 800 q 556 612 574 667 q 513 516 538 557 q 465 443 488 475 l 278 181 l 574 181 l 574 0 l 7 0 z "},"3":{"ha":614,"x_min":7,"x_max":607,"o":"m 307 -6 q 165 14 221 -6 q 72 68 108 33 q 24 146 42 100 q 7 263 7 192 l 7 347 l 232 347 l 232 236 q 238 192 232 208 q 251 168 243 176 q 307 147 272 147 q 363 168 342 147 q 376 192 371 176 q 382 236 382 208 l 382 332 q 376 376 382 360 q 363 400 371 392 q 337 415 353 410 q 293 421 321 421 l 190 421 l 190 585 l 293 585 q 335 590 321 585 q 358 604 350 594 q 371 628 367 614 q 375 667 375 642 l 375 751 q 371 790 375 776 q 358 814 367 804 q 307 833 342 833 q 256 814 272 833 q 243 790 247 804 q 239 751 239 776 l 239 649 l 14 649 l 14 719 q 31 839 14 793 q 79 915 47 885 q 169 967 115 949 q 307 986 224 986 q 444 967 390 986 q 533 915 499 949 q 583 839 565 885 q 600 719 600 793 l 600 708 q 578 583 600 632 q 501 504 557 533 q 584 426 561 476 q 607 303 607 376 l 607 263 q 590 146 607 192 q 542 68 574 100 q 450 14 507 33 q 307 -6 393 -6 z "},"4":{"ha":697,"x_min":7,"x_max":690,"o":"m 357 0 l 357 200 l 7 200 l 7 361 l 260 981 l 579 981 l 579 378 l 690 378 l 690 200 l 579 200 l 579 0 l 357 0 m 196 378 l 357 378 l 357 774 l 196 378 z "},"5":{"ha":614,"x_min":7,"x_max":607,"o":"m 307 -6 q 165 14 221 -6 q 72 68 108 33 q 24 146 42 100 q 7 263 7 192 l 7 378 l 232 378 l 232 236 q 238 192 232 208 q 251 168 243 176 q 307 147 272 147 q 363 168 342 147 q 376 192 371 176 q 382 236 382 208 l 382 443 q 376 487 382 471 q 363 511 371 503 q 307 532 342 532 q 251 511 272 532 q 238 488 243 503 q 232 456 232 472 l 232 454 l 14 454 l 24 981 l 585 981 l 585 800 l 239 800 l 236 636 q 397 699 293 699 q 487 685 449 699 q 551 644 525 671 q 593 577 579 618 q 607 471 607 536 l 607 263 q 590 146 607 192 q 542 68 574 100 q 450 14 507 33 q 307 -6 393 -6 z "},"6":{"ha":614,"x_min":7,"x_max":607,"o":"m 307 -6 q 165 14 221 -6 q 72 68 108 33 q 24 146 42 100 q 7 263 7 192 l 7 725 q 22 838 7 794 q 64 910 36 881 q 154 966 99 946 q 299 986 210 986 q 444 967 388 986 q 533 910 500 947 q 576 837 561 879 q 590 725 590 794 l 590 635 l 365 635 l 365 753 q 362 791 365 778 q 350 814 358 804 q 299 833 333 833 q 247 814 261 833 q 236 791 240 804 q 232 753 232 778 l 232 540 q 303 590 260 574 q 397 606 346 606 q 487 592 449 606 q 551 551 525 578 q 593 484 579 525 q 607 378 607 443 l 607 263 q 590 146 607 192 q 542 68 574 100 q 450 14 507 33 q 307 -6 393 -6 m 307 147 q 363 168 342 147 q 376 192 371 176 q 382 236 382 208 l 382 350 q 376 394 382 378 q 363 418 371 410 q 307 439 342 439 q 251 418 272 439 q 238 394 243 410 q 232 350 232 378 l 232 236 q 238 192 232 208 q 251 168 243 176 q 307 147 272 147 z "},"7":{"ha":553,"x_min":7,"x_max":546,"o":"m 24 0 l 318 797 l 7 797 l 7 981 l 546 981 l 546 806 l 258 0 l 24 0 z "},"8":{"ha":614,"x_min":7,"x_max":607,"o":"m 307 -6 q 165 14 221 -6 q 72 68 108 33 q 24 146 42 100 q 7 263 7 192 l 7 308 q 32 435 7 382 q 113 510 57 488 q 35 590 57 538 q 14 714 14 643 l 14 719 q 31 839 14 793 q 79 915 47 885 q 169 967 115 949 q 307 986 224 986 q 444 967 390 986 q 533 915 499 949 q 583 839 565 885 q 600 719 600 793 l 600 714 q 578 590 600 643 q 501 510 557 538 q 582 435 557 488 q 607 308 607 382 l 607 263 q 590 146 607 192 q 542 68 574 100 q 450 14 507 33 q 307 -6 393 -6 m 307 147 q 363 168 342 147 q 376 192 371 176 q 382 236 382 208 l 382 338 q 376 381 382 365 q 363 406 371 397 q 307 426 342 426 q 251 406 272 426 q 238 381 243 397 q 232 338 232 365 l 232 236 q 238 192 232 208 q 251 168 243 176 q 307 147 272 147 m 307 590 q 358 610 342 590 q 371 633 367 619 q 375 672 375 647 l 375 751 q 371 790 375 776 q 358 814 367 804 q 307 833 342 833 q 256 814 272 833 q 243 790 247 804 q 239 751 239 776 l 239 672 q 243 633 239 647 q 256 610 247 619 q 307 590 272 590 z "},"9":{"ha":614,"x_min":7,"x_max":607,"o":"m 315 -6 q 170 14 226 -6 q 81 71 114 33 q 39 144 54 101 q 24 256 24 188 l 24 378 l 249 378 l 249 228 q 252 190 249 203 q 264 167 256 176 q 315 147 281 147 q 367 167 353 147 q 378 190 374 176 q 382 228 382 203 l 382 471 q 312 420 354 436 q 217 404 269 404 q 128 418 165 404 q 63 458 90 432 q 22 526 36 485 q 7 632 7 567 l 7 718 q 24 835 7 789 q 72 913 42 882 q 165 967 108 949 q 307 986 221 986 q 450 967 393 986 q 542 913 507 949 q 590 835 574 882 q 607 718 607 789 l 607 256 q 592 144 607 188 q 550 71 578 100 q 460 15 515 35 q 315 -6 404 -6 m 307 571 q 363 592 342 571 q 376 616 371 600 q 382 660 382 632 l 382 744 q 376 788 382 772 q 363 813 371 804 q 307 833 342 833 q 251 813 272 833 q 238 788 243 804 q 232 744 232 772 l 232 660 q 238 616 232 632 q 251 592 243 600 q 307 571 272 571 z "},"\u0000":{"ha":0,"x_min":0,"x_max":0,"o":""},"\r":{"ha":136,"x_min":0,"x_max":0,"o":""}," ":{"ha":136,"x_min":0,"x_max":0,"o":""},"!":{"ha":267,"x_min":7,"x_max":260,"o":"m 35 0 l 35 193 l 232 193 l 232 0 l 35 0 m 60 263 l 7 981 l 260 981 l 207 263 l 60 263 z "},"\"":{"ha":408,"x_min":0,"x_max":408,"o":"m 28 626 l 0 981 l 197 981 l 169 626 l 28 626 m 239 626 l 211 981 l 408 981 l 381 626 l 239 626 z "},"#":{"ha":697,"x_min":7,"x_max":690,"o":"m 65 0 l 108 253 l 7 253 l 7 397 l 133 397 l 165 583 l 49 583 l 49 728 l 190 728 l 233 981 l 381 981 l 338 728 l 440 728 l 483 981 l 631 981 l 588 728 l 690 728 l 690 583 l 563 583 l 531 397 l 635 397 l 635 253 l 506 253 l 463 0 l 315 0 l 358 253 l 256 253 l 213 0 l 65 0 m 281 397 l 383 397 l 415 583 l 313 583 l 281 397 z "},"$":{"ha":614,"x_min":7,"x_max":607,"o":"m 229 875 l 229 1076 l 385 1076 l 385 875 l 229 875 m 229 -97 l 229 104 l 385 104 l 385 -97 l 229 -97 m 306 -6 q 168 11 225 -6 q 74 63 111 28 q 24 144 40 94 q 7 257 7 193 l 7 378 l 232 378 l 232 243 q 251 185 232 207 q 306 164 271 164 q 360 184 340 164 q 379 239 379 204 q 364 303 379 276 q 317 356 349 329 l 160 479 q 83 553 117 514 q 31 640 50 593 q 13 740 13 686 q 33 846 13 800 q 89 922 54 892 q 183 970 128 954 q 307 986 239 986 q 444 970 389 986 q 533 922 499 954 q 585 845 568 892 q 601 736 601 799 l 601 635 l 376 635 l 376 746 q 360 799 376 781 q 307 817 343 817 q 258 799 276 817 q 240 753 240 782 q 256 701 240 726 q 306 647 271 675 l 469 518 q 542 445 511 486 q 590 357 574 404 q 607 256 607 310 q 587 145 607 193 q 529 64 567 97 q 435 13 490 31 q 306 -6 379 -6 z "},"%":{"ha":1049,"x_min":7,"x_max":1042,"o":"m 217 290 q 117 303 157 290 q 53 342 78 317 q 19 397 31 364 q 7 479 7 429 l 7 796 q 19 879 7 847 q 53 933 31 911 q 117 972 78 958 q 217 985 157 985 q 317 972 278 985 q 382 933 357 958 q 416 879 404 911 q 428 796 428 847 l 428 479 q 416 397 428 429 q 382 342 404 364 q 317 303 357 317 q 217 290 278 290 m 217 397 q 257 413 244 397 q 269 460 269 428 l 269 815 q 257 863 269 847 q 217 878 244 878 q 177 863 190 878 q 164 815 164 847 l 164 460 q 177 413 164 428 q 217 397 190 397 m 831 -4 q 731 9 771 -4 q 667 47 692 22 q 633 102 644 69 q 621 185 621 135 l 621 501 q 633 585 621 553 q 667 639 644 617 q 731 677 692 664 q 831 690 771 690 q 931 677 892 690 q 996 639 971 664 q 1030 585 1018 617 q 1042 501 1042 553 l 1042 185 q 1030 102 1042 135 q 996 47 1018 69 q 931 9 971 22 q 831 -4 892 -4 m 831 103 q 871 118 858 103 q 883 165 883 133 l 883 521 q 871 568 883 553 q 831 583 858 583 q 791 568 804 583 q 778 521 778 553 l 778 165 q 791 118 778 133 q 831 103 804 103 m 353 0 l 549 981 l 696 981 l 500 0 l 353 0 z "},"&":{"ha":678,"x_min":7,"x_max":671,"o":"m 283 -6 q 389 8 338 -6 q 485 53 440 22 q 552 11 517 22 q 631 0 588 0 l 671 0 l 671 172 l 650 172 q 629 175 639 172 q 611 183 619 178 q 655 296 639 233 q 671 432 671 358 l 671 532 l 504 532 l 504 442 q 502 397 504 419 q 494 356 500 375 l 394 504 q 488 610 456 565 q 532 695 519 656 q 544 775 544 735 l 544 778 q 484 933 544 881 q 296 986 424 986 q 35 768 35 986 l 35 765 q 38 719 35 742 q 50 672 42 696 q 72 623 58 649 q 107 567 86 597 l 150 504 q 90 440 117 471 q 45 379 64 410 q 17 315 26 349 q 7 244 7 282 l 7 240 q 42 113 7 168 q 138 26 76 57 q 283 -6 200 -6 m 311 171 q 237 194 265 171 q 208 254 208 218 l 208 257 q 222 310 208 285 q 265 364 235 335 l 381 190 q 348 176 365 181 q 311 171 331 171 m 294 829 q 365 760 365 829 l 365 757 q 358 718 365 736 q 333 681 350 700 q 289 635 317 661 q 240 698 257 671 q 224 757 224 725 l 224 760 q 294 829 224 829 z "},"'":{"ha":197,"x_min":0,"x_max":197,"o":"m 28 626 l 0 981 l 197 981 l 169 626 l 28 626 z "},"(":{"ha":303,"x_min":7,"x_max":296,"o":"m 168 -228 q 92 -217 122 -228 q 43 -189 63 -207 q 16 -147 25 -172 q 7 -83 7 -122 l 7 836 q 16 900 7 875 q 43 942 25 925 q 92 971 63 961 q 168 981 122 981 l 296 981 l 296 819 l 242 819 q 204 782 204 819 l 204 -29 q 242 -67 204 -67 l 296 -67 l 296 -228 l 168 -228 z "},")":{"ha":303,"x_min":7,"x_max":296,"o":"m 7 -228 l 7 -67 l 61 -67 q 99 -29 99 -67 l 99 782 q 61 819 99 819 l 7 819 l 7 981 l 135 981 q 210 971 181 981 q 260 942 240 961 q 287 900 278 925 q 296 836 296 875 l 296 -83 q 287 -147 296 -122 q 260 -189 278 -172 q 210 -217 240 -207 q 135 -228 181 -228 l 7 -228 z "},"*":{"ha":511,"x_min":7,"x_max":504,"o":"m 182 981 l 329 981 l 329 844 l 458 886 l 504 746 l 375 704 l 454 593 l 336 507 l 256 617 l 175 507 l 57 593 l 136 704 l 7 746 l 53 886 l 182 844 l 182 981 z "},"+":{"ha":614,"x_min":7,"x_max":607,"o":"m 229 176 l 229 399 l 7 399 l 7 554 l 229 554 l 229 776 l 385 776 l 385 554 l 607 554 l 607 399 l 385 399 l 385 176 l 229 176 z "},",":{"ha":225,"x_min":7,"x_max":218,"o":"m 21 -178 l 21 -94 l 26 -94 q 63 -83 51 -94 q 71 -69 68 -78 q 74 -47 74 -61 l 74 0 l 7 0 l 7 193 l 218 193 l 218 -31 q 212 -87 218 -65 q 196 -125 206 -110 q 149 -164 179 -150 q 71 -178 119 -178 l 21 -178 z "},"-":{"ha":339,"x_min":7,"x_max":332,"o":"m 7 340 l 7 496 l 332 496 l 332 340 l 7 340 z "},".":{"ha":225,"x_min":7,"x_max":218,"o":"m 7 0 l 7 193 l 218 193 l 218 0 l 7 0 z "},"/":{"ha":364,"x_min":7,"x_max":357,"o":"m 7 0 l 201 981 l 357 981 l 163 0 l 7 0 z "},":":{"ha":225,"x_min":7,"x_max":218,"o":"m 7 560 l 7 753 l 218 753 l 218 560 l 7 560 m 7 0 l 7 193 l 218 193 l 218 0 l 7 0 z "},";":{"ha":225,"x_min":7,"x_max":218,"o":"m 21 -178 l 21 -94 l 26 -94 q 63 -83 51 -94 q 71 -69 68 -78 q 74 -47 74 -61 l 74 0 l 7 0 l 7 193 l 218 193 l 218 -31 q 212 -87 218 -65 q 196 -125 206 -110 q 149 -164 179 -150 q 71 -178 119 -178 l 21 -178 m 7 560 l 7 753 l 218 753 l 218 560 l 7 560 z "},"<":{"ha":614,"x_min":7,"x_max":607,"o":"m 607 225 l 7 399 l 7 554 l 607 728 l 607 564 l 281 476 l 607 394 l 607 225 z "},"=":{"ha":614,"x_min":7,"x_max":607,"o":"m 7 510 l 7 665 l 607 665 l 607 510 l 7 510 m 7 288 l 7 443 l 607 443 l 607 288 l 7 288 z "},">":{"ha":614,"x_min":7,"x_max":607,"o":"m 7 225 l 7 394 l 333 476 l 7 564 l 7 728 l 607 554 l 607 399 l 7 225 z "},"?":{"ha":556,"x_min":7,"x_max":549,"o":"m 182 263 l 182 293 q 186 365 182 333 q 199 424 190 396 q 219 481 207 451 q 249 546 232 510 l 285 622 q 314 702 306 667 q 322 758 322 738 q 310 805 322 790 q 269 819 297 819 q 218 765 218 819 l 218 635 l 7 635 l 7 747 q 70 929 7 872 q 275 986 133 986 q 481 933 413 986 q 549 765 549 881 q 535 678 549 718 q 489 576 522 638 l 419 447 q 376 357 393 399 q 360 263 360 315 l 182 263 m 165 0 l 165 193 l 376 193 l 376 0 l 165 0 z "},"@":{"ha":867,"x_min":7,"x_max":860,"o":"m 397 63 q 224 240 224 63 l 224 503 q 262 633 224 593 q 363 674 300 674 q 434 660 401 674 q 482 624 467 647 l 482 664 l 642 664 l 642 208 q 665 185 642 185 l 686 185 q 703 191 697 185 q 710 208 710 197 l 710 717 q 688 739 710 739 l 179 739 q 157 717 157 739 l 157 22 q 179 0 157 0 l 860 0 l 860 -144 l 129 -144 q 38 -115 68 -144 q 7 -22 7 -86 l 7 761 q 38 854 7 825 q 129 883 68 883 l 738 883 q 829 854 799 883 q 860 761 860 825 l 860 190 q 829 97 860 126 q 738 68 799 68 l 646 68 q 585 77 611 68 q 540 113 560 86 q 484 76 522 90 q 397 63 446 63 m 433 190 q 467 203 454 190 q 481 243 481 217 l 481 488 q 467 528 481 515 q 433 540 454 540 q 398 528 411 540 q 385 488 385 515 l 385 243 q 398 203 385 217 q 433 190 411 190 z "},"A":{"ha":647,"x_min":0,"x_max":647,"o":"m 0 0 l 151 981 l 497 981 l 647 0 l 421 0 l 397 172 l 236 172 l 213 0 l 0 0 m 258 349 l 375 349 l 317 810 l 258 349 z "},"B":{"ha":614,"x_min":7,"x_max":607,"o":"m 7 0 l 7 981 l 368 981 q 476 967 436 981 q 544 925 517 953 q 584 861 569 899 q 599 761 599 824 l 599 713 q 584 613 599 650 q 544 550 569 575 q 475 508 517 522 q 553 464 524 494 q 593 398 579 438 q 607 292 607 358 l 607 228 q 593 122 607 161 q 553 56 579 82 q 485 14 525 28 q 376 0 444 0 l 7 0 m 232 589 l 285 589 q 354 610 336 589 q 368 637 363 619 q 374 685 374 654 l 374 713 q 368 753 374 738 q 354 776 363 768 q 328 792 344 786 q 285 797 311 797 l 232 797 l 232 589 m 232 183 l 293 183 q 336 189 319 183 q 363 204 353 194 q 376 228 371 213 q 382 272 382 244 l 382 335 q 376 378 382 363 q 363 403 371 394 q 336 418 353 413 q 293 424 319 424 l 232 424 l 232 183 z "},"C":{"ha":614,"x_min":7,"x_max":607,"o":"m 307 -6 q 165 13 221 -6 q 72 68 108 32 q 24 146 40 100 q 7 264 7 192 l 7 717 q 24 835 7 789 q 72 913 40 881 q 165 967 108 949 q 307 986 221 986 q 449 967 393 986 q 542 913 506 949 q 590 835 574 881 q 607 717 607 789 l 607 635 l 382 635 l 382 744 q 376 788 382 772 q 363 813 371 804 q 340 828 353 824 q 307 833 326 833 q 251 813 272 833 q 238 788 243 804 q 232 744 232 772 l 232 236 q 238 192 232 208 q 251 168 243 176 q 276 153 263 158 q 307 147 290 147 q 363 168 342 147 q 376 192 371 176 q 382 236 382 208 l 382 378 l 607 378 l 607 264 q 590 146 607 192 q 542 68 574 100 q 449 13 506 32 q 307 -6 393 -6 z "},"D":{"ha":614,"x_min":7,"x_max":607,"o":"m 7 0 l 7 981 l 350 981 q 468 965 422 981 q 544 918 514 949 q 591 842 575 888 q 607 724 607 796 l 607 257 q 591 139 607 185 q 544 63 575 93 q 468 16 514 32 q 350 0 422 0 l 7 0 m 233 183 l 294 183 q 364 204 343 183 q 378 233 372 214 q 383 283 383 251 l 383 708 q 378 752 383 736 q 364 776 372 768 q 338 792 354 786 q 294 797 322 797 l 233 797 l 233 183 z "},"E":{"ha":522,"x_min":7,"x_max":515,"o":"m 7 0 l 7 981 l 515 981 l 515 797 l 232 797 l 232 596 l 515 596 l 515 413 l 232 413 l 232 183 l 515 183 l 515 0 l 7 0 z "},"F":{"ha":522,"x_min":7,"x_max":515,"o":"m 7 0 l 7 981 l 515 981 l 515 797 l 232 797 l 232 596 l 515 596 l 515 413 l 232 413 l 232 0 l 7 0 z "},"G":{"ha":614,"x_min":7,"x_max":607,"o":"m 217 -11 q 127 3 165 -11 q 63 43 89 17 q 22 110 36 69 q 7 217 7 151 l 7 717 q 24 835 7 789 q 72 913 40 881 q 165 967 108 949 q 307 986 221 986 q 449 967 393 986 q 542 913 506 949 q 590 835 574 881 q 607 717 607 789 l 607 635 l 382 635 l 382 744 q 376 788 382 772 q 363 813 371 804 q 307 833 346 833 q 251 813 272 833 q 238 788 243 804 q 232 744 232 772 l 232 244 q 238 201 232 217 q 251 176 243 185 q 276 161 263 167 q 307 156 290 156 q 363 176 342 156 q 376 201 371 185 q 382 244 382 217 l 382 360 l 296 360 l 296 532 l 607 532 l 607 0 l 382 0 l 382 56 q 308 4 351 19 q 217 -11 265 -11 z "},"H":{"ha":606,"x_min":7,"x_max":599,"o":"m 7 0 l 7 981 l 232 981 l 232 596 l 374 596 l 374 981 l 599 981 l 599 0 l 374 0 l 374 413 l 232 413 l 232 0 l 7 0 z "},"I":{"ha":239,"x_min":7,"x_max":232,"o":"m 7 0 l 7 981 l 232 981 l 232 0 l 7 0 z "},"J":{"ha":572,"x_min":7,"x_max":565,"o":"m 286 -6 q 157 13 207 -6 q 72 63 107 31 q 24 141 42 93 q 7 264 7 189 l 7 378 l 218 378 l 218 222 q 222 185 218 199 q 235 164 226 172 q 279 147 251 147 q 324 164 306 147 q 336 184 332 171 q 340 222 340 197 l 340 981 l 565 981 l 565 264 q 549 142 565 189 q 501 64 532 94 q 418 13 469 31 q 286 -6 367 -6 z "},"K":{"ha":617,"x_min":7,"x_max":617,"o":"m 7 0 l 7 981 l 232 981 l 232 601 l 390 981 l 611 981 l 418 544 l 617 0 l 379 0 l 232 432 l 232 0 l 7 0 z "},"L":{"ha":522,"x_min":7,"x_max":515,"o":"m 7 0 l 7 981 l 232 981 l 232 183 l 515 183 l 515 0 l 7 0 z "},"M":{"ha":928,"x_min":7,"x_max":921,"o":"m 7 0 l 7 981 l 367 981 l 463 447 l 558 981 l 921 981 l 921 0 l 696 0 l 696 743 l 563 0 l 344 0 l 208 743 l 208 0 l 7 0 z "},"N":{"ha":639,"x_min":7,"x_max":632,"o":"m 7 0 l 7 981 l 285 981 l 435 481 l 435 981 l 632 981 l 632 0 l 382 0 l 204 575 l 204 0 l 7 0 z "},"O":{"ha":614,"x_min":7,"x_max":607,"o":"m 307 -6 q 165 13 221 -6 q 72 68 108 32 q 24 146 40 100 q 7 264 7 192 l 7 717 q 24 835 7 789 q 72 913 40 881 q 165 967 108 949 q 307 986 221 986 q 449 967 393 986 q 542 913 506 949 q 590 835 574 881 q 607 717 607 789 l 607 264 q 590 146 607 192 q 542 68 574 100 q 449 13 506 32 q 307 -6 393 -6 m 307 147 q 363 168 342 147 q 376 192 371 176 q 382 236 382 208 l 382 744 q 376 788 382 772 q 363 813 371 804 q 307 833 342 833 q 251 813 272 833 q 238 788 243 804 q 232 744 232 772 l 232 236 q 238 192 232 208 q 251 168 243 176 q 307 147 272 147 z "},"P":{"ha":614,"x_min":7,"x_max":607,"o":"m 7 0 l 7 981 l 376 981 q 485 967 444 981 q 553 925 525 953 q 593 859 579 899 q 607 753 607 819 l 607 538 q 593 431 607 471 q 553 365 579 392 q 485 324 525 338 q 376 310 444 310 l 232 310 l 232 0 l 7 0 m 232 493 l 293 493 q 363 514 349 493 q 376 542 371 524 q 382 593 382 561 l 382 708 q 376 752 382 736 q 363 776 371 768 q 336 792 353 786 q 293 797 319 797 l 232 797 l 232 493 z "},"Q":{"ha":614,"x_min":7,"x_max":607,"o":"m 369 -228 q 295 -218 325 -228 q 246 -189 265 -208 q 219 -147 228 -172 q 210 -83 210 -122 l 210 3 q 72 68 119 19 q 24 146 42 100 q 7 264 7 192 l 7 717 q 24 835 7 789 q 72 913 40 881 q 165 967 108 949 q 307 986 221 986 q 449 967 393 986 q 542 913 506 949 q 590 835 574 881 q 607 717 607 789 l 607 264 q 590 146 607 192 q 542 68 572 100 q 483 26 517 43 q 401 1 449 10 l 401 -43 q 439 -81 401 -81 l 499 -81 l 499 -228 l 369 -228 m 307 147 q 363 168 342 147 q 376 192 371 176 q 382 236 382 208 l 382 744 q 376 788 382 772 q 363 813 371 804 q 307 833 346 833 q 251 813 272 833 q 238 788 243 804 q 232 744 232 772 l 232 236 q 238 192 232 208 q 251 168 243 176 q 276 153 263 158 q 307 147 290 147 z "},"R":{"ha":614,"x_min":7,"x_max":607,"o":"m 7 0 l 7 981 l 376 981 q 485 967 444 981 q 553 925 525 953 q 593 859 579 899 q 607 753 607 819 l 607 696 q 593 590 607 629 q 553 524 579 550 q 523 499 539 510 q 486 483 507 489 q 582 408 549 461 q 601 358 594 388 q 607 279 607 329 l 607 0 l 382 0 l 382 300 q 376 344 382 328 q 363 368 371 360 q 336 383 353 378 q 293 389 319 389 l 232 389 l 232 0 l 7 0 m 232 572 l 293 572 q 363 593 349 572 q 376 622 371 603 q 382 672 382 640 l 382 708 q 376 752 382 736 q 363 776 371 768 q 336 792 353 786 q 293 797 319 797 l 232 797 l 232 572 z "},"S":{"ha":614,"x_min":7,"x_max":607,"o":"m 306 -6 q 168 11 225 -6 q 74 63 111 28 q 24 144 40 94 q 7 257 7 193 l 7 378 l 232 378 l 232 243 q 251 185 232 207 q 306 164 271 164 q 360 184 340 164 q 379 239 379 204 q 364 303 379 276 q 317 356 349 329 l 160 479 q 83 553 117 514 q 31 640 50 593 q 13 740 13 686 q 33 846 13 800 q 89 922 54 892 q 183 970 128 954 q 307 986 239 986 q 444 970 389 986 q 533 922 499 954 q 585 845 568 892 q 601 736 601 799 l 601 635 l 376 635 l 376 746 q 360 799 376 781 q 307 817 343 817 q 258 799 276 817 q 240 753 240 782 q 256 701 240 726 q 306 647 271 675 l 469 518 q 542 445 511 486 q 590 357 574 404 q 607 256 607 310 q 587 145 607 193 q 529 64 567 97 q 435 13 490 31 q 306 -6 379 -6 z "},"T":{"ha":614,"x_min":7,"x_max":607,"o":"m 194 0 l 194 797 l 7 797 l 7 981 l 607 981 l 607 797 l 419 797 l 419 0 l 194 0 z "},"U":{"ha":614,"x_min":7,"x_max":607,"o":"m 307 -6 q 165 13 221 -6 q 72 68 108 32 q 24 146 40 100 q 7 263 7 192 l 7 981 l 232 981 l 232 236 q 238 192 232 208 q 251 168 243 176 q 276 153 263 158 q 307 147 290 147 q 363 168 342 147 q 376 192 371 176 q 382 236 382 208 l 382 981 l 607 981 l 607 263 q 590 146 607 192 q 542 68 574 100 q 449 13 506 32 q 307 -6 393 -6 z "},"V":{"ha":633,"x_min":0,"x_max":633,"o":"m 181 0 l 0 981 l 224 981 l 326 360 l 429 981 l 633 981 l 453 0 l 181 0 z "},"W":{"ha":1033,"x_min":0,"x_max":1033,"o":"m 154 0 l 0 981 l 224 981 l 301 349 l 379 981 l 674 981 l 751 349 l 829 981 l 1033 981 l 879 0 l 594 0 l 517 631 l 439 0 l 154 0 z "},"X":{"ha":725,"x_min":0,"x_max":725,"o":"m 0 0 l 240 496 l 4 981 l 250 981 l 363 733 l 475 981 l 707 981 l 478 513 l 725 0 l 479 0 l 356 274 l 232 0 l 0 0 z "},"Y":{"ha":665,"x_min":0,"x_max":665,"o":"m 219 0 l 219 322 l 0 981 l 222 981 l 339 593 l 457 981 l 665 981 l 444 322 l 444 0 l 219 0 z "},"Z":{"ha":550,"x_min":7,"x_max":543,"o":"m 7 0 l 7 181 l 289 794 l 13 794 l 13 981 l 528 981 l 528 781 l 256 186 l 543 186 l 543 0 l 7 0 z "},"[":{"ha":303,"x_min":7,"x_max":296,"o":"m 7 -228 l 7 981 l 296 981 l 296 833 l 204 833 l 204 -81 l 296 -81 l 296 -228 l 7 -228 z "},"\\":{"ha":364,"x_min":7,"x_max":357,"o":"m 357 0 l 201 0 l 7 981 l 163 981 l 357 0 z "},"]":{"ha":303,"x_min":7,"x_max":296,"o":"m 7 -228 l 7 -81 l 99 -81 l 99 833 l 7 833 l 7 981 l 296 981 l 296 -228 l 7 -228 z "},"^":{"ha":486,"x_min":0,"x_max":486,"o":"m 0 572 l 165 981 l 321 981 l 486 572 l 322 572 l 243 769 l 167 572 l 0 572 z "},"_":{"ha":489,"x_min":7,"x_max":482,"o":"m 7 0 l 7 156 l 482 156 l 482 0 l 7 0 z "},"`":{"ha":261,"x_min":7,"x_max":254,"o":"m 92 819 l 7 981 l 229 981 l 254 819 l 92 819 z "},"a":{"ha":531,"x_min":7,"x_max":524,"o":"m 185 -11 q 53 41 100 -11 q 7 190 7 93 l 7 233 q 32 332 7 294 q 114 399 57 369 l 286 486 q 309 501 300 493 q 322 521 318 510 q 326 544 326 532 q 312 584 326 571 q 269 597 297 597 q 224 582 239 597 q 210 538 210 567 l 210 471 l 15 471 l 15 525 q 81 693 15 642 q 269 744 147 744 q 460 691 397 744 q 524 522 524 638 l 524 0 l 326 0 l 326 50 q 185 -11 278 -11 m 265 142 q 326 208 326 142 l 326 350 q 315 341 321 344 q 303 333 310 338 l 247 303 q 214 273 224 289 q 204 231 204 257 l 204 208 q 265 142 204 142 z "},"b":{"ha":531,"x_min":7,"x_max":524,"o":"m 344 -11 q 264 4 300 -11 q 204 51 228 19 l 204 0 l 7 0 l 7 981 l 204 981 l 204 689 q 344 750 253 750 q 472 703 425 750 q 510 639 497 678 q 524 536 524 600 l 524 203 q 510 100 524 139 q 472 36 497 61 q 344 -11 425 -11 m 265 156 q 310 172 293 156 q 322 193 318 181 q 326 231 326 206 l 326 508 q 322 546 326 533 q 310 567 318 558 q 265 583 293 583 q 221 567 238 583 q 208 546 213 558 q 204 508 204 533 l 204 231 q 208 193 204 206 q 221 172 213 181 q 265 156 238 156 z "},"c":{"ha":531,"x_min":7,"x_max":524,"o":"m 265 -6 q 142 10 189 -6 q 64 57 94 26 q 22 126 38 85 q 7 236 7 168 l 7 503 q 22 613 7 571 q 64 682 38 656 q 142 728 94 713 q 265 744 189 744 q 389 728 342 744 q 467 682 436 713 q 509 613 494 656 q 524 503 524 571 l 524 471 l 326 471 l 326 522 q 322 560 326 547 q 310 581 318 572 q 265 597 293 597 q 221 581 238 597 q 208 560 213 572 q 204 522 204 547 l 204 217 q 208 179 204 192 q 221 158 213 167 q 265 142 238 142 q 310 158 293 142 q 322 179 318 167 q 326 217 326 192 l 326 278 l 524 278 l 524 236 q 509 126 524 168 q 467 57 494 85 q 389 10 436 26 q 265 -6 342 -6 z "},"d":{"ha":531,"x_min":7,"x_max":524,"o":"m 186 -11 q 58 36 106 -11 q 20 100 33 61 q 7 203 7 139 l 7 536 q 20 639 7 600 q 58 703 33 678 q 186 750 106 750 q 326 689 278 750 l 326 981 l 524 981 l 524 0 l 326 0 l 326 51 q 267 4 303 19 q 186 -11 231 -11 m 265 156 q 310 172 293 156 q 322 193 318 181 q 326 231 326 206 l 326 508 q 322 546 326 533 q 310 567 318 558 q 265 583 293 583 q 221 567 238 583 q 208 546 213 558 q 204 508 204 533 l 204 231 q 208 193 204 206 q 221 172 213 181 q 265 156 238 156 z "},"e":{"ha":531,"x_min":7,"x_max":524,"o":"m 265 -6 q 142 10 189 -6 q 64 57 94 26 q 22 126 38 85 q 7 236 7 168 l 7 503 q 22 613 7 571 q 64 682 38 656 q 142 728 94 713 q 265 744 189 744 q 389 728 342 744 q 467 682 436 713 q 509 605 494 656 q 524 486 524 554 l 524 310 l 204 310 l 204 217 q 208 179 204 192 q 221 158 213 167 q 265 142 238 142 q 310 158 293 142 q 322 179 318 167 q 326 217 326 192 l 326 278 l 524 278 l 524 236 q 509 126 524 168 q 467 57 494 85 q 389 10 436 26 q 265 -6 342 -6 m 204 438 l 326 438 l 326 522 q 322 560 326 547 q 310 581 318 572 q 265 597 293 597 q 221 581 238 597 q 208 560 213 572 q 204 522 204 547 l 204 438 z "},"f":{"ha":394,"x_min":7,"x_max":388,"o":"m 76 0 l 76 583 l 7 583 l 7 739 l 76 739 l 76 836 q 85 899 76 875 q 113 942 94 924 q 162 971 132 961 q 238 981 192 981 l 388 981 l 388 821 l 311 821 q 274 785 274 821 l 274 739 l 388 739 l 388 583 l 274 583 l 274 0 l 76 0 z "},"g":{"ha":531,"x_min":7,"x_max":524,"o":"m 265 -233 q 142 -217 189 -233 q 64 -171 94 -201 q 22 -105 38 -144 q 7 -6 7 -65 l 7 0 l 204 0 l 204 -11 q 208 -49 204 -36 q 221 -69 213 -61 q 265 -86 238 -86 q 310 -69 293 -86 q 322 -49 318 -61 q 326 -11 326 -36 l 326 107 q 266 60 303 75 q 186 44 229 44 q 58 92 106 44 q 20 156 33 117 q 7 258 7 194 l 7 536 q 20 639 7 600 q 58 703 33 678 q 186 750 106 750 q 326 689 278 750 l 326 739 l 524 739 l 524 8 q 509 -101 524 -60 q 467 -171 494 -143 q 389 -217 436 -201 q 265 -233 342 -233 m 265 211 q 310 228 293 211 q 322 249 318 236 q 326 286 326 261 l 326 508 q 322 546 326 533 q 310 567 318 558 q 265 583 293 583 q 221 567 238 583 q 208 546 213 558 q 204 508 204 533 l 204 286 q 208 249 204 261 q 221 228 213 236 q 265 211 238 211 z "},"h":{"ha":531,"x_min":7,"x_max":524,"o":"m 7 0 l 7 981 l 204 981 l 204 689 q 266 735 229 719 q 344 750 303 750 q 472 703 425 750 q 510 639 497 678 q 524 536 524 600 l 524 0 l 326 0 l 326 508 q 322 546 326 533 q 310 567 318 558 q 265 583 293 583 q 221 567 238 583 q 208 546 213 558 q 204 508 204 533 l 204 0 l 7 0 z "},"i":{"ha":211,"x_min":7,"x_max":204,"o":"m 7 0 l 7 739 l 204 739 l 204 0 l 7 0 m 7 821 l 7 981 l 204 981 l 204 821 l 7 821 z "},"j":{"ha":211,"x_min":-101,"x_max":204,"o":"m -101 -228 l -101 -67 l -31 -67 q 7 -29 7 -67 l 7 739 l 204 739 l 204 -83 q 195 -147 204 -122 q 168 -189 186 -172 q 119 -217 149 -207 q 43 -228 89 -228 l -101 -228 m 7 821 l 7 981 l 204 981 l 204 821 l 7 821 z "},"k":{"ha":546,"x_min":7,"x_max":546,"o":"m 7 0 l 7 981 l 204 981 l 204 443 l 339 739 l 540 739 l 371 397 l 546 0 l 332 0 l 204 304 l 204 0 l 7 0 z "},"l":{"ha":211,"x_min":7,"x_max":204,"o":"m 7 0 l 7 981 l 204 981 l 204 0 l 7 0 z "},"m":{"ha":833,"x_min":7,"x_max":826,"o":"m 7 0 l 7 739 l 204 739 l 204 692 q 340 750 251 750 q 486 678 440 750 q 651 750 546 750 q 778 703 731 750 q 814 642 801 679 q 826 546 826 606 l 826 0 l 629 0 l 629 519 q 613 569 629 556 q 572 583 596 583 q 532 569 546 583 q 520 551 525 563 q 515 519 515 539 l 515 0 l 318 0 l 318 519 q 301 569 318 556 q 261 583 285 583 q 221 569 235 583 q 209 551 214 563 q 204 519 204 539 l 204 0 l 7 0 z "},"n":{"ha":531,"x_min":7,"x_max":524,"o":"m 7 0 l 7 739 l 204 739 l 204 689 q 266 735 229 721 q 344 750 303 750 q 472 703 425 750 q 510 640 497 678 q 524 536 524 601 l 524 0 l 326 0 l 326 508 q 322 546 326 533 q 310 567 318 558 q 265 583 293 583 q 221 567 238 583 q 208 546 213 558 q 204 508 204 533 l 204 0 l 7 0 z "},"o":{"ha":531,"x_min":7,"x_max":524,"o":"m 265 -6 q 142 10 189 -6 q 64 57 94 26 q 22 126 38 85 q 7 236 7 168 l 7 503 q 22 613 7 571 q 64 682 38 656 q 142 728 94 713 q 265 744 189 744 q 390 728 343 744 q 467 682 436 713 q 509 613 494 656 q 524 503 524 571 l 524 236 q 509 126 524 168 q 467 57 494 85 q 390 10 436 26 q 265 -6 343 -6 m 265 142 q 310 158 293 142 q 322 179 318 167 q 326 217 326 192 l 326 522 q 322 560 326 547 q 310 581 318 572 q 265 597 293 597 q 221 581 238 597 q 208 560 213 572 q 204 522 204 547 l 204 217 q 208 179 204 192 q 221 158 213 167 q 265 142 238 142 z "},"p":{"ha":531,"x_min":7,"x_max":524,"o":"m 7 -228 l 7 739 l 204 739 l 204 688 q 264 735 228 719 q 344 750 300 750 q 472 703 425 750 q 510 639 497 678 q 524 536 524 600 l 524 203 q 510 100 524 139 q 472 36 497 61 q 344 -11 425 -11 q 204 50 253 -11 l 204 -228 l 7 -228 m 265 156 q 310 172 293 156 q 322 193 318 181 q 326 231 326 206 l 326 508 q 322 546 326 533 q 310 567 318 558 q 265 583 293 583 q 221 567 238 583 q 208 546 213 558 q 204 508 204 533 l 204 231 q 208 193 204 206 q 221 172 213 181 q 265 156 238 156 z "},"q":{"ha":531,"x_min":7,"x_max":524,"o":"m 326 -228 l 326 50 q 186 -11 278 -11 q 58 36 106 -11 q 20 100 33 61 q 7 203 7 139 l 7 536 q 20 639 7 600 q 58 703 33 678 q 186 750 106 750 q 267 735 231 750 q 326 688 303 719 l 326 739 l 524 739 l 524 -228 l 326 -228 m 265 156 q 310 172 293 156 q 322 193 318 181 q 326 231 326 206 l 326 508 q 322 546 326 533 q 310 567 318 558 q 265 583 293 583 q 221 567 238 583 q 208 546 213 558 q 204 508 204 533 l 204 231 q 208 193 204 206 q 221 172 213 181 q 265 156 238 156 z "},"r":{"ha":489,"x_min":7,"x_max":482,"o":"m 7 0 l 7 739 l 204 739 l 204 696 q 333 750 250 750 q 440 710 400 750 q 471 658 460 690 q 482 571 482 625 l 482 471 l 304 471 l 304 526 q 301 552 304 543 q 292 568 297 561 q 254 583 279 583 q 217 568 229 583 q 208 552 211 561 q 204 526 204 543 l 204 0 l 7 0 z "},"s":{"ha":531,"x_min":7,"x_max":524,"o":"m 265 -6 q 65 53 124 -6 q 7 232 7 113 l 7 278 l 204 278 l 204 207 q 219 159 204 176 q 265 142 235 142 q 313 160 300 142 q 326 197 326 179 q 308 239 326 222 q 250 279 290 256 l 125 353 q 40 430 67 388 q 13 531 13 472 q 45 655 13 608 q 135 723 78 701 q 265 744 192 744 q 403 722 347 744 q 489 649 460 699 q 518 514 518 599 l 518 471 l 321 471 l 321 529 q 309 577 321 557 q 265 597 297 597 q 223 581 236 597 q 210 546 210 565 q 224 506 210 521 q 267 475 239 492 l 410 389 q 475 336 450 365 q 512 273 500 307 q 524 203 524 239 q 499 96 524 143 q 417 22 474 49 q 265 -6 360 -6 z "},"t":{"ha":372,"x_min":7,"x_max":365,"o":"m 238 0 q 162 10 192 0 q 113 39 132 19 q 85 81 94 56 q 76 144 76 106 l 76 583 l 7 583 l 7 739 l 76 739 l 76 981 l 274 981 l 274 739 l 365 739 l 365 583 l 274 583 l 274 199 q 311 161 274 161 l 365 161 l 365 0 l 238 0 z "},"u":{"ha":531,"x_min":7,"x_max":524,"o":"m 186 -11 q 58 36 106 -11 q 20 100 33 61 q 7 203 7 139 l 7 739 l 204 739 l 204 231 q 208 193 204 206 q 221 172 213 181 q 265 156 238 156 q 310 172 293 156 q 322 193 318 181 q 326 231 326 206 l 326 739 l 524 739 l 524 0 l 326 0 l 326 50 q 265 4 301 19 q 186 -11 228 -11 z "},"v":{"ha":553,"x_min":0,"x_max":553,"o":"m 133 0 l 0 739 l 203 739 l 285 231 l 367 739 l 553 739 l 419 0 l 133 0 z "},"w":{"ha":908,"x_min":0,"x_max":908,"o":"m 131 0 l 0 739 l 197 739 l 272 247 l 347 739 l 581 739 l 656 247 l 731 739 l 908 739 l 778 0 l 528 0 l 454 468 l 381 0 l 131 0 z "},"x":{"ha":617,"x_min":0,"x_max":617,"o":"m 0 0 l 206 374 l 4 739 l 210 739 l 308 554 l 407 739 l 614 739 l 413 374 l 617 0 l 410 0 l 308 193 l 207 0 l 0 0 z "},"y":{"ha":625,"x_min":0,"x_max":625,"o":"m 156 -228 l 229 19 l 0 739 l 207 739 l 319 331 l 436 739 l 625 739 l 344 -228 l 156 -228 z "},"z":{"ha":468,"x_min":7,"x_max":461,"o":"m 7 0 l 7 161 l 229 578 l 14 578 l 14 739 l 444 739 l 444 578 l 222 161 l 461 161 l 461 0 l 7 0 z "},"{":{"ha":378,"x_min":7,"x_max":371,"o":"m 243 -228 q 167 -217 197 -228 q 118 -189 138 -207 q 91 -147 100 -172 q 82 -83 82 -122 l 82 213 q 76 256 82 240 q 60 282 71 272 q 7 301 40 301 l 7 451 q 60 471 40 451 q 76 497 71 481 q 82 540 82 513 l 82 836 q 91 900 82 875 q 118 942 100 925 q 167 971 138 961 q 243 981 197 981 l 371 981 l 371 819 l 317 819 q 279 782 279 819 l 279 536 q 219 376 279 432 q 267 299 254 346 q 279 199 279 253 l 279 -29 q 317 -67 279 -67 l 371 -67 l 371 -228 l 243 -228 z "},"|":{"ha":211,"x_min":7,"x_max":204,"o":"m 7 -228 l 7 981 l 204 981 l 204 -228 l 7 -228 z "},"}":{"ha":378,"x_min":7,"x_max":371,"o":"m 7 -228 l 7 -67 l 61 -67 q 99 -29 99 -67 l 99 199 q 111 299 99 253 q 158 376 124 346 q 99 536 99 432 l 99 782 q 61 819 99 819 l 7 819 l 7 981 l 135 981 q 210 971 181 981 q 260 942 240 961 q 287 900 278 925 q 296 836 296 875 l 296 540 q 302 497 296 513 q 318 471 308 481 q 371 451 338 451 l 371 301 q 318 282 338 301 q 302 256 308 272 q 296 213 296 240 l 296 -83 q 287 -147 296 -122 q 260 -189 278 -172 q 210 -217 240 -207 q 135 -228 181 -228 l 7 -228 z "},"~":{"ha":614,"x_min":7,"x_max":607,"o":"m 426 342 q 337 358 374 342 q 271 392 300 374 q 229 415 249 406 q 186 425 210 425 q 142 406 157 425 q 126 364 126 388 l 7 397 q 56 531 7 481 q 189 582 104 582 q 282 565 243 582 q 351 529 321 549 q 392 506 372 515 q 429 497 411 497 q 473 517 457 497 q 489 557 489 536 l 607 528 q 560 392 607 443 q 426 342 513 342 z "}," ":{"ha":136,"x_min":0,"x_max":0,"o":""},"¡":{"ha":267,"x_min":7,"x_max":260,"o":"m 35 546 l 35 739 l 232 739 l 232 546 l 35 546 m 7 -228 l 60 475 l 207 475 l 260 -228 l 7 -228 z "},"¢":{"ha":531,"x_min":7,"x_max":524,"o":"m 188 0 l 188 101 q 115 122 144 108 q 64 158 86 136 q 22 228 38 186 q 7 338 7 269 l 7 643 q 22 753 7 711 q 64 822 38 796 q 115 859 86 844 q 188 879 144 874 l 188 981 l 343 981 l 343 879 q 415 859 386 874 q 467 822 444 844 q 509 753 494 796 q 524 643 524 711 l 524 597 l 326 597 l 326 663 q 322 700 326 688 q 310 721 318 713 q 265 738 293 738 q 221 721 238 738 q 208 700 213 713 q 204 663 204 688 l 204 318 q 208 281 204 293 q 221 260 213 268 q 265 243 238 243 q 310 260 293 243 q 322 281 318 268 q 326 318 326 293 l 326 393 l 524 393 l 524 338 q 509 228 524 269 q 467 158 494 186 q 415 122 444 136 q 343 101 386 108 l 343 0 l 188 0 z "},"£":{"ha":614,"x_min":7,"x_max":607,"o":"m 7 0 l 7 181 q 50 205 39 186 q 61 258 61 224 l 61 413 l 7 413 l 7 568 l 61 568 l 61 754 q 73 851 61 815 q 106 913 85 886 q 187 967 135 949 q 331 986 239 986 q 453 975 408 986 q 526 942 499 964 q 581 869 563 915 q 600 740 600 822 l 600 635 l 389 635 l 389 763 q 385 800 389 788 q 372 821 381 813 q 338 833 360 833 q 300 818 314 833 q 290 799 294 811 q 286 763 286 786 l 286 568 l 444 568 l 444 413 l 286 413 l 286 299 q 276 225 286 251 q 250 181 267 199 l 607 181 l 607 0 l 7 0 z "},"¤":{"ha":631,"x_min":7,"x_max":624,"o":"m 118 88 l 8 199 l 82 272 q 69 369 69 313 l 69 372 q 82 467 69 428 l 7 540 l 118 651 l 186 583 q 243 600 211 594 q 314 606 275 606 q 386 599 354 606 q 444 582 418 593 l 513 651 l 624 540 l 546 464 q 558 372 558 426 l 558 369 q 546 275 558 315 l 622 199 l 513 88 l 443 157 q 386 141 418 147 q 314 135 354 135 q 186 157 236 135 l 118 88 m 314 282 q 358 299 342 282 q 371 319 367 307 q 375 357 375 332 l 375 383 q 371 421 375 408 q 358 442 367 433 q 314 458 342 458 q 269 442 286 458 q 257 421 261 433 q 253 383 253 408 l 253 357 q 257 319 253 332 q 269 299 261 307 q 314 282 286 282 z "},"¥":{"ha":625,"x_min":0,"x_max":625,"o":"m 200 0 l 200 221 l 28 221 l 28 381 l 182 381 l 164 439 l 28 439 l 28 599 l 117 599 l 0 981 l 222 981 l 319 582 l 417 981 l 625 981 l 508 599 l 597 599 l 597 439 l 461 439 l 443 381 l 597 381 l 597 221 l 425 221 l 425 0 l 200 0 z "},"¦":{"ha":211,"x_min":7,"x_max":204,"o":"m 7 -228 l 7 253 l 204 253 l 204 -228 l 7 -228 m 7 500 l 7 981 l 204 981 l 204 500 l 7 500 z "},"§":{"ha":585,"x_min":7,"x_max":578,"o":"m 293 -237 q 169 -222 217 -237 q 92 -175 122 -206 q 51 -111 64 -146 q 37 -45 39 -76 q 35 4 35 -14 l 35 79 l 232 79 l 232 -15 q 234 -44 232 -28 q 249 -74 236 -61 q 293 -90 265 -90 q 338 -75 321 -90 q 354 -35 354 -60 q 340 10 354 -14 q 297 56 326 33 l 151 169 q 83 231 117 197 q 28 310 50 264 q 7 424 7 357 q 29 537 7 490 q 92 614 51 583 q 48 692 63 650 q 33 781 33 735 q 90 928 33 871 q 168 974 121 958 q 292 990 215 990 q 416 974 369 990 q 493 928 463 958 q 534 864 522 899 q 548 798 546 829 q 550 749 550 767 l 550 674 l 353 674 l 353 768 q 351 797 353 781 q 336 826 349 814 q 292 843 319 843 q 248 828 265 843 q 231 788 231 813 q 246 742 231 765 q 288 697 261 719 l 433 582 q 500 528 467 557 q 556 456 533 499 q 578 344 578 414 q 553 222 578 276 q 483 133 528 167 q 531 63 511 103 q 551 -29 551 24 q 494 -175 551 -118 q 417 -222 464 -206 q 293 -237 371 -237 m 356 250 q 374 274 367 260 q 381 311 381 289 q 368 364 381 340 q 334 408 356 388 q 286 450 313 429 l 224 499 q 204 442 204 479 q 235 363 204 396 q 299 301 267 329 l 356 250 z "},"¨":{"ha":447,"x_min":7,"x_max":440,"o":"m 7 819 l 7 981 l 190 981 l 190 819 l 7 819 m 257 819 l 257 981 l 440 981 l 440 819 l 257 819 z "},"©":{"ha":828,"x_min":7,"x_max":821,"o":"m 189 371 l 189 610 q 242 761 189 714 q 414 808 296 808 q 585 761 532 808 q 639 610 639 714 l 639 560 l 472 560 l 472 614 q 414 681 472 681 q 356 614 356 681 l 356 367 q 414 300 356 300 q 472 367 472 300 l 472 428 l 639 428 l 639 371 q 585 219 639 267 q 414 172 532 172 q 242 219 296 172 q 189 371 189 267 m 179 144 l 649 144 q 671 167 671 144 l 671 814 q 649 836 671 836 l 179 836 q 157 814 157 836 l 157 167 q 179 144 157 144 m 701 981 q 791 951 761 981 q 821 858 821 922 l 821 122 q 790 29 821 58 q 699 0 760 0 l 129 0 q 38 29 68 0 q 7 122 7 58 l 7 858 q 38 951 7 922 q 129 981 68 981 l 701 981 z "},"ª":{"ha":531,"x_min":7,"x_max":524,"o":"m 185 231 q 53 283 100 231 q 7 432 7 335 l 7 475 q 32 574 7 536 q 114 640 57 611 l 286 728 q 309 743 300 735 q 322 763 318 751 q 326 786 326 774 q 312 826 326 813 q 269 839 297 839 q 224 824 239 839 q 210 779 210 808 l 210 713 l 15 713 l 15 767 q 81 935 15 883 q 269 986 147 986 q 460 933 397 986 q 524 764 524 879 l 524 242 l 326 242 l 326 292 q 185 231 278 231 m 265 383 q 326 450 326 383 l 326 592 q 315 583 321 586 q 303 575 310 579 l 247 544 q 214 515 224 531 q 204 472 204 499 l 204 450 q 265 383 204 383 z "},"«":{"ha":482,"x_min":0,"x_max":482,"o":"m 119 131 l 0 369 l 119 608 l 290 608 l 171 369 l 290 131 l 119 131 m 311 131 l 192 369 l 311 608 l 482 608 l 363 369 l 482 131 l 311 131 z "},"¬":{"ha":614,"x_min":7,"x_max":607,"o":"m 451 232 l 451 399 l 7 399 l 7 554 l 607 554 l 607 232 l 451 232 z "},"­":{"ha":339,"x_min":7,"x_max":332,"o":"m 7 340 l 7 496 l 332 496 l 332 340 l 7 340 z "},"®":{"ha":828,"x_min":7,"x_max":821,"o":"m 204 188 l 204 793 l 454 793 q 583 755 543 793 q 624 633 624 717 l 624 614 q 601 515 624 554 q 536 468 579 476 q 604 417 585 451 q 624 315 624 382 l 624 188 l 465 188 l 465 333 q 450 384 465 369 q 399 399 435 399 l 363 399 l 363 188 l 204 188 m 363 529 l 404 529 q 453 545 440 529 q 465 594 465 561 l 465 607 q 404 663 465 663 l 363 663 l 363 529 m 179 144 l 649 144 q 671 167 671 144 l 671 814 q 649 836 671 836 l 179 836 q 157 814 157 836 l 157 167 q 179 144 157 144 m 701 981 q 791 951 761 981 q 821 858 821 922 l 821 122 q 790 29 821 58 q 699 0 760 0 l 129 0 q 38 29 68 0 q 7 122 7 58 l 7 858 q 38 951 7 922 q 129 981 68 981 l 701 981 z "},"¯":{"ha":408,"x_min":7,"x_max":401,"o":"m 7 819 l 7 961 l 401 961 l 401 819 l 7 819 z "},"°":{"ha":431,"x_min":7,"x_max":424,"o":"m 215 569 q 110 597 157 569 q 35 672 63 625 q 7 778 7 719 q 35 884 7 838 q 110 958 63 931 q 215 986 157 986 q 322 958 275 986 q 396 884 368 931 q 424 778 424 838 q 396 672 424 719 q 322 597 368 625 q 215 569 275 569 m 215 697 q 273 720 250 697 q 296 778 296 743 q 273 835 296 813 q 215 858 250 858 q 158 835 181 858 q 135 778 135 813 q 158 720 135 743 q 215 697 181 697 z "},"±":{"ha":614,"x_min":7,"x_max":607,"o":"m 229 354 l 229 507 l 7 507 l 7 663 l 229 663 l 229 815 l 385 815 l 385 663 l 607 663 l 607 507 l 385 507 l 385 354 l 229 354 m 7 140 l 7 296 l 607 296 l 607 140 l 7 140 z "},"²":{"ha":410,"x_min":7,"x_max":403,"o":"m 7 292 l 7 408 l 199 692 q 235 758 222 726 q 247 824 247 790 q 239 863 247 847 q 206 878 231 878 q 172 863 179 878 q 164 821 164 847 l 164 739 l 7 739 l 7 808 q 22 894 7 857 q 71 954 36 932 q 127 977 94 969 q 206 985 160 985 q 282 978 249 985 q 339 956 315 971 q 403 813 403 914 q 377 687 403 736 q 328 606 351 638 l 196 418 l 403 418 l 403 292 l 7 292 z "},"³":{"ha":433,"x_min":7,"x_max":426,"o":"m 217 288 q 117 301 157 288 q 53 339 76 314 q 19 393 31 361 q 7 475 7 425 l 7 533 l 164 533 l 164 457 q 176 410 164 426 q 217 394 188 394 q 258 413 247 394 q 268 457 268 431 l 268 526 q 265 557 268 546 q 254 574 261 568 q 238 584 249 581 q 207 588 226 588 l 135 588 l 135 704 l 207 704 q 236 708 226 704 q 251 717 246 711 q 261 733 258 724 q 264 761 264 743 l 264 821 q 253 863 264 849 q 217 878 243 878 q 177 862 186 878 q 168 821 168 846 l 168 750 l 11 750 l 11 799 q 23 882 11 850 q 57 935 35 914 q 120 972 82 958 q 217 985 158 985 q 313 972 274 985 q 375 935 351 958 q 410 882 399 914 q 422 799 422 850 l 422 790 q 407 703 422 738 q 353 646 392 668 q 410 592 394 626 q 426 506 426 558 l 426 475 q 415 393 426 425 q 381 339 403 361 q 317 301 357 314 q 217 288 276 288 z "},"´":{"ha":261,"x_min":7,"x_max":254,"o":"m 7 819 l 32 981 l 254 981 l 169 819 l 7 819 z "},"µ":{"ha":531,"x_min":7,"x_max":524,"o":"m 7 -228 l 7 739 l 204 739 l 204 231 q 208 193 204 206 q 221 172 213 181 q 265 156 238 156 q 310 172 293 156 q 322 193 318 181 q 326 231 326 206 l 326 739 l 524 739 l 524 0 l 326 0 l 326 50 q 265 4 301 19 q 186 -11 228 -11 l 176 -11 l 176 -228 l 7 -228 z "},"¶":{"ha":683,"x_min":7,"x_max":676,"o":"m 165 0 l 165 569 q 52 642 97 586 q 7 772 7 699 q 22 849 7 813 q 61 913 36 886 q 133 963 90 944 q 243 981 176 981 l 676 981 l 676 797 l 610 797 l 610 0 l 426 0 l 426 797 l 349 797 l 349 0 l 165 0 z "},"·":{"ha":225,"x_min":7,"x_max":218,"o":"m 7 271 l 7 464 l 218 464 l 218 271 l 7 271 z "},"¸":{"ha":194,"x_min":7,"x_max":188,"o":"m 7 -264 l 7 -181 l 13 -181 q 49 -169 38 -181 q 57 -155 54 -162 q 60 -133 60 -147 l 60 -107 l 7 -107 l 7 21 l 188 21 l 188 -117 q 182 -174 188 -151 q 165 -211 176 -196 q 119 -250 149 -236 q 40 -264 89 -264 l 7 -264 z "},"¹":{"ha":236,"x_min":7,"x_max":229,"o":"m 71 292 l 71 821 l 7 821 l 68 981 l 229 981 l 229 292 l 71 292 z "},"º":{"ha":531,"x_min":7,"x_max":524,"o":"m 265 236 q 142 252 189 236 q 64 299 94 268 q 22 367 36 325 q 7 478 7 410 l 7 744 q 22 855 7 813 q 64 924 36 897 q 142 970 94 954 q 265 986 189 986 q 389 970 342 986 q 467 924 436 954 q 509 855 494 897 q 524 744 524 813 l 524 478 q 509 367 524 410 q 467 299 494 325 q 389 252 436 268 q 265 236 342 236 m 265 383 q 310 400 293 383 q 322 421 318 408 q 326 458 326 433 l 326 764 q 322 801 326 789 q 310 822 318 814 q 265 839 293 839 q 221 822 238 839 q 208 801 213 814 q 204 764 204 789 l 204 458 q 208 421 204 433 q 221 400 213 408 q 265 383 238 383 z "},"»":{"ha":482,"x_min":0,"x_max":482,"o":"m 363 131 l 192 131 l 311 369 l 192 608 l 363 608 l 482 369 l 363 131 m 171 131 l 0 131 l 119 369 l 0 608 l 171 608 l 290 369 l 171 131 z "},"¼":{"ha":875,"x_min":7,"x_max":868,"o":"m 178 0 l 374 981 l 521 981 l 325 0 l 178 0 m 71 292 l 71 821 l 7 821 l 68 981 l 229 981 l 229 292 l 71 292 m 636 0 l 636 139 l 390 139 l 390 253 l 567 689 l 790 689 l 790 264 l 868 264 l 868 139 l 790 139 l 790 0 l 636 0 m 522 264 l 636 264 l 636 544 l 522 264 z "},"½":{"ha":851,"x_min":7,"x_max":844,"o":"m 178 0 l 374 981 l 521 981 l 325 0 l 178 0 m 71 292 l 71 821 l 7 821 l 68 981 l 229 981 l 229 292 l 71 292 m 449 0 l 449 117 l 640 400 q 676 467 664 435 q 689 532 689 499 q 681 571 689 556 q 647 586 672 586 q 613 571 621 586 q 606 529 606 556 l 606 447 l 449 447 l 449 517 q 463 603 449 565 q 513 663 478 640 q 569 685 536 678 q 647 693 601 693 q 724 686 690 693 q 781 664 757 679 q 844 521 844 622 q 819 395 844 444 q 769 314 793 346 l 638 126 l 844 126 l 844 0 l 449 0 z "},"¾":{"ha":1047,"x_min":7,"x_max":1040,"o":"m 351 0 l 547 981 l 694 981 l 499 0 l 351 0 m 808 0 l 808 139 l 563 139 l 563 253 l 739 689 l 963 689 l 963 264 l 1040 264 l 1040 139 l 963 139 l 963 0 l 808 0 m 694 264 l 808 264 l 808 544 l 694 264 m 217 288 q 117 301 157 288 q 53 339 76 314 q 19 393 31 361 q 7 475 7 425 l 7 533 l 164 533 l 164 457 q 176 410 164 426 q 217 394 188 394 q 258 413 247 394 q 268 457 268 431 l 268 526 q 265 557 268 546 q 254 574 261 568 q 238 584 249 581 q 207 588 226 588 l 135 588 l 135 704 l 207 704 q 236 708 226 704 q 251 717 246 711 q 261 733 258 724 q 264 761 264 743 l 264 821 q 253 863 264 849 q 217 878 243 878 q 177 862 186 878 q 168 821 168 846 l 168 750 l 11 750 l 11 799 q 23 882 11 850 q 57 935 35 914 q 120 972 82 958 q 217 985 158 985 q 313 972 274 985 q 375 935 351 958 q 410 882 399 914 q 422 799 422 850 l 422 790 q 407 703 422 738 q 353 646 392 668 q 410 592 394 626 q 426 506 426 558 l 426 475 q 415 393 426 425 q 381 339 403 361 q 317 301 357 314 q 217 288 276 288 z "},"¿":{"ha":556,"x_min":7,"x_max":549,"o":"m 374 476 l 374 460 q 369 388 374 419 q 357 329 365 357 q 336 272 349 301 q 307 207 324 243 l 271 131 q 249 76 257 101 q 237 29 240 50 q 233 -6 233 8 q 247 -51 233 -36 q 286 -67 260 -67 q 338 -12 338 -67 l 338 118 l 549 118 l 549 6 q 485 -176 549 -119 q 281 -233 422 -233 q 75 -180 143 -233 q 7 -12 7 -126 q 20 75 7 35 q 67 176 33 115 l 136 306 q 167 364 153 336 q 188 419 181 392 q 196 476 196 446 l 374 476 m 390 739 l 390 546 l 179 546 l 179 739 l 390 739 z "},"À":{"ha":647,"x_min":0,"x_max":647,"o":"m 0 0 l 151 981 l 497 981 l 647 0 l 421 0 l 397 172 l 236 172 l 213 0 l 0 0 m 258 349 l 375 349 l 317 810 l 258 349 m 236 1033 l 151 1172 l 388 1172 l 413 1033 l 236 1033 z "},"Á":{"ha":647,"x_min":0,"x_max":647,"o":"m 0 0 l 151 981 l 497 981 l 647 0 l 421 0 l 397 172 l 236 172 l 213 0 l 0 0 m 258 349 l 375 349 l 317 810 l 258 349 m 235 1033 l 260 1172 l 496 1172 l 411 1033 l 235 1033 z "},"Â":{"ha":647,"x_min":0,"x_max":647,"o":"m 0 0 l 151 981 l 497 981 l 647 0 l 421 0 l 397 172 l 236 172 l 213 0 l 0 0 m 258 349 l 375 349 l 317 810 l 258 349 m 111 1033 l 179 1172 l 465 1172 l 536 1033 l 358 1033 l 321 1114 l 283 1033 l 111 1033 z "},"Ã":{"ha":647,"x_min":0,"x_max":647,"o":"m 0 0 l 151 981 l 497 981 l 647 0 l 421 0 l 397 172 l 236 172 l 213 0 l 0 0 m 258 349 l 375 349 l 317 810 l 258 349 m 378 1024 q 334 1031 351 1024 q 303 1044 317 1038 q 284 1056 293 1051 q 267 1060 275 1060 q 245 1051 253 1060 q 238 1028 238 1042 l 132 1028 l 132 1074 q 169 1167 132 1132 q 269 1203 206 1203 q 309 1197 293 1203 q 338 1185 325 1192 q 361 1172 351 1178 q 381 1165 371 1165 q 410 1197 410 1165 l 515 1197 l 515 1153 q 479 1059 515 1094 q 378 1024 443 1024 z "},"Ä":{"ha":647,"x_min":0,"x_max":647,"o":"m 0 0 l 151 981 l 497 981 l 647 0 l 421 0 l 397 172 l 236 172 l 213 0 l 0 0 m 258 349 l 375 349 l 317 810 l 258 349 m 100 1033 l 100 1172 l 290 1172 l 290 1033 l 100 1033 m 357 1033 l 357 1172 l 547 1172 l 547 1033 l 357 1033 z "},"Å":{"ha":647,"x_min":0,"x_max":647,"o":"m 0 0 l 151 981 l 497 981 l 647 0 l 421 0 l 397 172 l 236 172 l 213 0 l 0 0 m 258 349 l 375 349 l 317 810 l 258 349 m 324 1006 q 210 1051 256 1006 q 164 1165 164 1097 q 210 1279 164 1233 q 324 1325 256 1325 q 438 1279 392 1325 q 483 1165 483 1233 q 438 1051 483 1097 q 324 1006 392 1006 m 324 1125 q 352 1137 340 1125 q 364 1165 364 1149 q 352 1194 364 1182 q 324 1206 340 1206 q 295 1194 307 1206 q 283 1165 283 1182 q 295 1137 283 1149 q 324 1125 307 1125 z "},"Æ":{"ha":854,"x_min":0,"x_max":847,"o":"m 0 0 l 240 981 l 847 981 l 847 797 l 619 797 l 619 596 l 847 596 l 847 413 l 619 413 l 619 183 l 847 183 l 847 0 l 394 0 l 394 172 l 254 172 l 215 0 l 0 0 m 293 349 l 394 349 l 394 803 l 393 803 l 293 349 z "},"Ç":{"ha":614,"x_min":7,"x_max":607,"o":"m 307 -6 q 165 13 221 -6 q 72 68 108 32 q 24 146 40 100 q 7 264 7 192 l 7 717 q 24 835 7 789 q 72 913 40 881 q 165 967 108 949 q 307 986 221 986 q 449 967 393 986 q 542 913 506 949 q 590 835 574 881 q 607 717 607 789 l 607 635 l 382 635 l 382 744 q 376 788 382 772 q 363 813 371 804 q 340 828 353 824 q 307 833 326 833 q 251 813 272 833 q 238 788 243 804 q 232 744 232 772 l 232 236 q 238 192 232 208 q 251 168 243 176 q 276 153 263 158 q 307 147 290 147 q 363 168 342 147 q 376 192 371 176 q 382 236 382 208 l 382 378 l 607 378 l 607 264 q 590 146 607 192 q 542 68 574 100 q 449 13 506 32 q 307 -6 393 -6 m 210 -264 l 210 -181 l 215 -181 q 251 -169 240 -181 q 260 -155 257 -162 q 263 -133 263 -147 l 263 -107 l 210 -107 l 210 21 l 404 21 l 404 -117 q 399 -174 404 -151 q 382 -211 393 -196 q 335 -250 365 -236 q 257 -264 306 -264 l 210 -264 z "},"È":{"ha":522,"x_min":7,"x_max":515,"o":"m 7 0 l 7 981 l 515 981 l 515 797 l 232 797 l 232 596 l 515 596 l 515 413 l 232 413 l 232 183 l 515 183 l 515 0 l 7 0 m 174 1033 l 89 1172 l 325 1172 l 350 1033 l 174 1033 z "},"É":{"ha":522,"x_min":7,"x_max":515,"o":"m 7 0 l 7 981 l 515 981 l 515 797 l 232 797 l 232 596 l 515 596 l 515 413 l 232 413 l 232 183 l 515 183 l 515 0 l 7 0 m 172 1033 l 197 1172 l 433 1172 l 349 1033 l 172 1033 z "},"Ê":{"ha":522,"x_min":7,"x_max":515,"o":"m 7 0 l 7 981 l 515 981 l 515 797 l 232 797 l 232 596 l 515 596 l 515 413 l 232 413 l 232 183 l 515 183 l 515 0 l 7 0 m 49 1033 l 117 1172 l 403 1172 l 474 1033 l 296 1033 l 258 1114 l 221 1033 l 49 1033 z "},"Ë":{"ha":522,"x_min":7,"x_max":515,"o":"m 7 0 l 7 981 l 515 981 l 515 797 l 232 797 l 232 596 l 515 596 l 515 413 l 232 413 l 232 183 l 515 183 l 515 0 l 7 0 m 38 1033 l 38 1172 l 228 1172 l 228 1033 l 38 1033 m 294 1033 l 294 1172 l 485 1172 l 485 1033 l 294 1033 z "},"Ì":{"ha":239,"x_min":-53,"x_max":232,"o":"m 7 0 l 7 981 l 232 981 l 232 0 l 7 0 m 32 1033 l -53 1172 l 183 1172 l 208 1033 l 32 1033 z "},"Í":{"ha":239,"x_min":7,"x_max":292,"o":"m 7 0 l 7 981 l 232 981 l 232 0 l 7 0 m 31 1033 l 56 1172 l 292 1172 l 207 1033 l 31 1033 z "},"Î":{"ha":239,"x_min":-93,"x_max":332,"o":"m 7 0 l 7 981 l 232 981 l 232 0 l 7 0 m -93 1033 l -25 1172 l 261 1172 l 332 1033 l 154 1033 l 117 1114 l 79 1033 l -93 1033 z "},"Ï":{"ha":239,"x_min":-104,"x_max":343,"o":"m 7 0 l 7 981 l 232 981 l 232 0 l 7 0 m -104 1033 l -104 1172 l 86 1172 l 86 1033 l -104 1033 m 153 1033 l 153 1172 l 343 1172 l 343 1033 l 153 1033 z "},"Ð":{"ha":681,"x_min":7,"x_max":674,"o":"m 74 0 l 74 981 l 417 981 q 535 965 490 981 q 611 918 581 949 q 658 842 642 888 q 674 724 674 796 l 674 257 q 658 139 674 185 q 611 63 642 93 q 535 16 581 32 q 417 0 490 0 l 74 0 m 7 413 l 7 568 l 400 568 l 400 413 l 7 413 m 300 183 l 361 183 q 431 204 414 183 q 444 233 439 214 q 450 283 450 251 l 450 708 q 444 752 450 736 q 431 776 439 768 q 405 792 421 786 q 361 797 389 797 l 300 797 l 300 183 z "},"Ñ":{"ha":639,"x_min":7,"x_max":632,"o":"m 7 0 l 7 981 l 285 981 l 435 481 l 435 981 l 632 981 l 632 0 l 382 0 l 204 575 l 204 0 l 7 0 m 374 1024 q 330 1031 347 1024 q 299 1044 313 1038 q 280 1056 289 1051 q 263 1060 271 1060 q 241 1051 249 1060 q 233 1028 233 1042 l 128 1028 l 128 1074 q 165 1167 128 1132 q 265 1203 201 1203 q 305 1197 289 1203 q 333 1185 321 1192 q 357 1172 347 1178 q 376 1165 367 1165 q 406 1197 406 1165 l 511 1197 l 511 1153 q 475 1059 511 1094 q 374 1024 439 1024 z "},"Ò":{"ha":614,"x_min":7,"x_max":607,"o":"m 307 -6 q 165 13 221 -6 q 72 68 108 32 q 24 146 40 100 q 7 264 7 192 l 7 717 q 24 835 7 789 q 72 913 40 881 q 165 967 108 949 q 307 986 221 986 q 449 967 393 986 q 542 913 506 949 q 590 835 574 881 q 607 717 607 789 l 607 264 q 590 146 607 192 q 542 68 574 100 q 449 13 506 32 q 307 -6 393 -6 m 307 147 q 363 168 342 147 q 376 192 371 176 q 382 236 382 208 l 382 744 q 376 788 382 772 q 363 813 371 804 q 307 833 342 833 q 251 813 272 833 q 238 788 243 804 q 232 744 232 772 l 232 236 q 238 192 232 208 q 251 168 243 176 q 307 147 272 147 m 219 1033 l 135 1172 l 371 1172 l 396 1033 l 219 1033 z "},"Ó":{"ha":614,"x_min":7,"x_max":607,"o":"m 307 -6 q 165 13 221 -6 q 72 68 108 32 q 24 146 40 100 q 7 264 7 192 l 7 717 q 24 835 7 789 q 72 913 40 881 q 165 967 108 949 q 307 986 221 986 q 449 967 393 986 q 542 913 506 949 q 590 835 574 881 q 607 717 607 789 l 607 264 q 590 146 607 192 q 542 68 574 100 q 449 13 506 32 q 307 -6 393 -6 m 307 147 q 363 168 342 147 q 376 192 371 176 q 382 236 382 208 l 382 744 q 376 788 382 772 q 363 813 371 804 q 307 833 342 833 q 251 813 272 833 q 238 788 243 804 q 232 744 232 772 l 232 236 q 238 192 232 208 q 251 168 243 176 q 307 147 272 147 m 218 1033 l 243 1172 l 479 1172 l 394 1033 l 218 1033 z "},"Ô":{"ha":614,"x_min":7,"x_max":607,"o":"m 307 -6 q 165 13 221 -6 q 72 68 108 32 q 24 146 40 100 q 7 264 7 192 l 7 717 q 24 835 7 789 q 72 913 40 881 q 165 967 108 949 q 307 986 221 986 q 449 967 393 986 q 542 913 506 949 q 590 835 574 881 q 607 717 607 789 l 607 264 q 590 146 607 192 q 542 68 574 100 q 449 13 506 32 q 307 -6 393 -6 m 307 147 q 363 168 342 147 q 376 192 371 176 q 382 236 382 208 l 382 744 q 376 788 382 772 q 363 813 371 804 q 307 833 342 833 q 251 813 272 833 q 238 788 243 804 q 232 744 232 772 l 232 236 q 238 192 232 208 q 251 168 243 176 q 307 147 272 147 m 94 1033 l 163 1172 l 449 1172 l 519 1033 l 342 1033 l 304 1114 l 267 1033 l 94 1033 z "},"Õ":{"ha":614,"x_min":7,"x_max":607,"o":"m 307 -6 q 165 13 221 -6 q 72 68 108 32 q 24 146 40 100 q 7 264 7 192 l 7 717 q 24 835 7 789 q 72 913 40 881 q 165 967 108 949 q 307 986 221 986 q 449 967 393 986 q 542 913 506 949 q 590 835 574 881 q 607 717 607 789 l 607 264 q 590 146 607 192 q 542 68 574 100 q 449 13 506 32 q 307 -6 393 -6 m 307 147 q 363 168 342 147 q 376 192 371 176 q 382 236 382 208 l 382 744 q 376 788 382 772 q 363 813 371 804 q 307 833 342 833 q 251 813 272 833 q 238 788 243 804 q 232 744 232 772 l 232 236 q 238 192 232 208 q 251 168 243 176 q 307 147 272 147 m 361 1024 q 317 1031 335 1024 q 286 1044 300 1038 q 267 1056 276 1051 q 250 1060 258 1060 q 228 1051 236 1060 q 221 1028 221 1042 l 115 1028 l 115 1074 q 152 1167 115 1132 q 253 1203 189 1203 q 292 1197 276 1203 q 321 1185 308 1192 q 344 1172 335 1178 q 364 1165 354 1165 q 393 1197 393 1165 l 499 1197 l 499 1153 q 463 1059 499 1094 q 361 1024 426 1024 z "},"Ö":{"ha":614,"x_min":7,"x_max":607,"o":"m 307 -6 q 165 13 221 -6 q 72 68 108 32 q 24 146 40 100 q 7 264 7 192 l 7 717 q 24 835 7 789 q 72 913 40 881 q 165 967 108 949 q 307 986 221 986 q 449 967 393 986 q 542 913 506 949 q 590 835 574 881 q 607 717 607 789 l 607 264 q 590 146 607 192 q 542 68 574 100 q 449 13 506 32 q 307 -6 393 -6 m 307 147 q 363 168 342 147 q 376 192 371 176 q 382 236 382 208 l 382 744 q 376 788 382 772 q 363 813 371 804 q 307 833 342 833 q 251 813 272 833 q 238 788 243 804 q 232 744 232 772 l 232 236 q 238 192 232 208 q 251 168 243 176 q 307 147 272 147 m 83 1033 l 83 1172 l 274 1172 l 274 1033 l 83 1033 m 340 1033 l 340 1172 l 531 1172 l 531 1033 l 340 1033 z "},"×":{"ha":614,"x_min":7,"x_max":607,"o":"m 117 176 l 7 286 l 197 476 l 7 667 l 117 776 l 307 586 l 497 776 l 607 667 l 417 476 l 607 286 l 497 176 l 307 367 l 117 176 z "},"Ø":{"ha":614,"x_min":7,"x_max":607,"o":"m 190 -57 l 31 4 l 60 81 q 20 156 33 113 q 7 264 7 200 l 7 717 q 24 835 7 789 q 72 913 40 881 q 165 967 108 949 q 307 986 221 986 q 358 984 335 986 q 403 979 382 982 l 424 1035 l 585 974 l 556 897 q 594 824 581 867 q 607 717 607 781 l 607 264 q 590 146 607 192 q 542 68 574 100 q 449 13 506 32 q 307 -6 393 -6 q 257 -3 281 -6 q 213 1 233 -1 l 190 -57 m 232 461 l 364 810 q 343 827 358 821 q 307 833 328 833 q 251 813 272 833 q 238 788 243 804 q 232 744 232 772 l 232 461 m 307 147 q 363 168 342 147 q 376 192 371 176 q 382 236 382 208 l 382 511 l 251 168 q 276 153 263 158 q 307 147 290 147 z "},"Ù":{"ha":614,"x_min":7,"x_max":607,"o":"m 307 -6 q 165 13 221 -6 q 72 68 108 32 q 24 146 40 100 q 7 263 7 192 l 7 981 l 232 981 l 232 236 q 238 192 232 208 q 251 168 243 176 q 276 153 263 158 q 307 147 290 147 q 363 168 342 147 q 376 192 371 176 q 382 236 382 208 l 382 981 l 607 981 l 607 263 q 590 146 607 192 q 542 68 574 100 q 449 13 506 32 q 307 -6 393 -6 m 219 1033 l 135 1172 l 371 1172 l 396 1033 l 219 1033 z "},"Ú":{"ha":614,"x_min":7,"x_max":607,"o":"m 307 -6 q 165 13 221 -6 q 72 68 108 32 q 24 146 40 100 q 7 263 7 192 l 7 981 l 232 981 l 232 236 q 238 192 232 208 q 251 168 243 176 q 276 153 263 158 q 307 147 290 147 q 363 168 342 147 q 376 192 371 176 q 382 236 382 208 l 382 981 l 607 981 l 607 263 q 590 146 607 192 q 542 68 574 100 q 449 13 506 32 q 307 -6 393 -6 m 218 1033 l 243 1172 l 479 1172 l 394 1033 l 218 1033 z "},"Û":{"ha":614,"x_min":7,"x_max":607,"o":"m 307 -6 q 165 13 221 -6 q 72 68 108 32 q 24 146 40 100 q 7 263 7 192 l 7 981 l 232 981 l 232 236 q 238 192 232 208 q 251 168 243 176 q 276 153 263 158 q 307 147 290 147 q 363 168 342 147 q 376 192 371 176 q 382 236 382 208 l 382 981 l 607 981 l 607 263 q 590 146 607 192 q 542 68 574 100 q 449 13 506 32 q 307 -6 393 -6 m 94 1033 l 163 1172 l 449 1172 l 519 1033 l 342 1033 l 304 1114 l 267 1033 l 94 1033 z "},"Ü":{"ha":614,"x_min":7,"x_max":607,"o":"m 307 -6 q 165 13 221 -6 q 72 68 108 32 q 24 146 40 100 q 7 263 7 192 l 7 981 l 232 981 l 232 236 q 238 192 232 208 q 251 168 243 176 q 276 153 263 158 q 307 147 290 147 q 363 168 342 147 q 376 192 371 176 q 382 236 382 208 l 382 981 l 607 981 l 607 263 q 590 146 607 192 q 542 68 574 100 q 449 13 506 32 q 307 -6 393 -6 m 83 1033 l 83 1172 l 274 1172 l 274 1033 l 83 1033 m 340 1033 l 340 1172 l 531 1172 l 531 1033 l 340 1033 z "},"Ý":{"ha":665,"x_min":0,"x_max":665,"o":"m 219 0 l 219 322 l 0 981 l 222 981 l 339 593 l 457 981 l 665 981 l 444 322 l 444 0 l 219 0 m 244 1033 l 269 1172 l 506 1172 l 421 1033 l 244 1033 z "},"Þ":{"ha":614,"x_min":7,"x_max":607,"o":"m 7 0 l 7 981 l 232 981 l 232 847 l 376 847 q 485 833 444 847 q 553 792 525 819 q 593 726 579 765 q 607 619 607 686 l 607 404 q 593 298 607 338 q 553 232 579 258 q 485 190 525 204 q 376 176 444 176 l 232 176 l 232 0 l 7 0 m 232 360 l 293 360 q 363 381 349 360 q 376 409 371 390 q 382 460 382 428 l 382 575 q 376 619 382 603 q 363 643 371 635 q 336 658 353 653 q 293 664 319 664 l 232 664 l 232 360 z "},"ß":{"ha":536,"x_min":7,"x_max":529,"o":"m 7 0 l 7 760 q 22 868 7 825 q 71 938 36 911 q 149 977 103 963 q 261 992 196 992 q 379 976 332 992 q 457 933 426 960 q 502 863 489 906 q 515 760 515 821 l 515 678 q 440 546 515 576 q 509 497 489 532 q 529 411 529 463 l 529 242 q 515 132 529 174 q 472 63 500 90 q 392 16 442 32 q 243 0 342 0 l 229 0 l 229 147 l 257 147 q 295 152 282 147 q 315 164 308 157 q 328 185 324 172 q 332 222 332 197 l 332 396 q 328 433 332 421 q 315 454 324 446 q 295 466 308 461 q 257 471 282 471 l 229 471 l 229 618 l 257 618 q 286 624 276 618 q 301 635 296 629 q 314 656 310 643 q 318 693 318 668 l 318 774 q 313 810 318 797 q 300 831 308 824 q 261 844 283 844 q 222 831 239 844 q 209 810 214 824 q 204 774 204 797 l 204 0 l 7 0 z "},"à":{"ha":531,"x_min":7,"x_max":524,"o":"m 185 -11 q 53 41 100 -11 q 7 190 7 93 l 7 233 q 32 332 7 294 q 114 399 57 369 l 286 486 q 309 501 300 493 q 322 521 318 510 q 326 544 326 532 q 312 584 326 571 q 269 597 297 597 q 224 582 239 597 q 210 538 210 567 l 210 471 l 15 471 l 15 525 q 81 693 15 642 q 269 744 147 744 q 460 691 397 744 q 524 522 524 638 l 524 0 l 326 0 l 326 50 q 185 -11 278 -11 m 265 142 q 326 208 326 142 l 326 350 q 315 341 321 344 q 303 333 310 338 l 247 303 q 214 273 224 289 q 204 231 204 257 l 204 208 q 265 142 204 142 m 183 819 l 99 981 l 321 981 l 346 819 l 183 819 z "},"á":{"ha":531,"x_min":7,"x_max":524,"o":"m 185 -11 q 53 41 100 -11 q 7 190 7 93 l 7 233 q 32 332 7 294 q 114 399 57 369 l 286 486 q 309 501 300 493 q 322 521 318 510 q 326 544 326 532 q 312 584 326 571 q 269 597 297 597 q 224 582 239 597 q 210 538 210 567 l 210 471 l 15 471 l 15 525 q 81 693 15 642 q 269 744 147 744 q 460 691 397 744 q 524 522 524 638 l 524 0 l 326 0 l 326 50 q 185 -11 278 -11 m 265 142 q 326 208 326 142 l 326 350 q 315 341 321 344 q 303 333 310 338 l 247 303 q 214 273 224 289 q 204 231 204 257 l 204 208 q 265 142 204 142 m 183 819 l 208 981 l 431 981 l 346 819 l 183 819 z "},"â":{"ha":531,"x_min":7,"x_max":524,"o":"m 185 -11 q 53 41 100 -11 q 7 190 7 93 l 7 233 q 32 332 7 294 q 114 399 57 369 l 286 486 q 309 501 300 493 q 322 521 318 510 q 326 544 326 532 q 312 584 326 571 q 269 597 297 597 q 224 582 239 597 q 210 538 210 567 l 210 471 l 15 471 l 15 525 q 81 693 15 642 q 269 744 147 744 q 460 691 397 744 q 524 522 524 638 l 524 0 l 326 0 l 326 50 q 185 -11 278 -11 m 265 142 q 326 208 326 142 l 326 350 q 315 341 321 344 q 303 333 310 338 l 247 303 q 214 273 224 289 q 204 231 204 257 l 204 208 q 265 142 204 142 m 60 819 l 128 981 l 400 981 l 471 819 l 294 819 l 257 913 l 219 819 l 60 819 z "},"ã":{"ha":531,"x_min":7,"x_max":524,"o":"m 185 -11 q 53 41 100 -11 q 7 190 7 93 l 7 233 q 32 332 7 294 q 114 399 57 369 l 286 486 q 309 501 300 493 q 322 521 318 510 q 326 544 326 532 q 312 584 326 571 q 269 597 297 597 q 224 582 239 597 q 210 538 210 567 l 210 471 l 15 471 l 15 525 q 81 693 15 642 q 269 744 147 744 q 460 691 397 744 q 524 522 524 638 l 524 0 l 326 0 l 326 50 q 185 -11 278 -11 m 265 142 q 326 208 326 142 l 326 350 q 315 341 321 344 q 303 333 310 338 l 247 303 q 214 273 224 289 q 204 231 204 257 l 204 208 q 265 142 204 142 m 319 813 q 276 818 293 813 q 244 833 258 824 q 208 849 222 849 q 187 840 194 849 q 179 817 179 831 l 74 817 l 74 857 q 110 951 74 915 q 211 986 147 986 q 251 981 235 986 q 279 968 267 975 q 303 955 293 961 q 322 949 313 949 q 351 981 351 949 l 351 982 l 457 982 l 457 942 q 421 848 457 883 q 319 813 385 813 z "},"ä":{"ha":531,"x_min":7,"x_max":524,"o":"m 185 -11 q 53 41 100 -11 q 7 190 7 93 l 7 233 q 32 332 7 294 q 114 399 57 369 l 286 486 q 309 501 300 493 q 322 521 318 510 q 326 544 326 532 q 312 584 326 571 q 269 597 297 597 q 224 582 239 597 q 210 538 210 567 l 210 471 l 15 471 l 15 525 q 81 693 15 642 q 269 744 147 744 q 460 691 397 744 q 524 522 524 638 l 524 0 l 326 0 l 326 50 q 185 -11 278 -11 m 265 142 q 326 208 326 142 l 326 350 q 315 341 321 344 q 303 333 310 338 l 247 303 q 214 273 224 289 q 204 231 204 257 l 204 208 q 265 142 204 142 m 49 819 l 49 981 l 232 981 l 232 819 l 49 819 m 299 819 l 299 981 l 482 981 l 482 819 l 299 819 z "},"å":{"ha":531,"x_min":7,"x_max":524,"o":"m 185 -11 q 53 41 100 -11 q 7 190 7 93 l 7 233 q 32 332 7 294 q 114 399 57 369 l 286 486 q 309 501 300 493 q 322 521 318 510 q 326 544 326 532 q 312 584 326 571 q 269 597 297 597 q 224 582 239 597 q 210 538 210 567 l 210 471 l 15 471 l 15 525 q 81 693 15 642 q 269 744 147 744 q 460 691 397 744 q 524 522 524 638 l 524 0 l 326 0 l 326 50 q 185 -11 278 -11 m 265 142 q 326 208 326 142 l 326 350 q 315 341 321 344 q 303 333 310 338 l 247 303 q 214 273 224 289 q 204 231 204 257 l 204 208 q 265 142 204 142 m 265 797 q 157 842 201 797 q 113 950 113 886 q 157 1059 113 1015 q 265 1103 201 1103 q 374 1059 331 1103 q 418 950 418 1015 q 374 842 418 886 q 265 797 331 797 m 265 910 q 294 922 282 910 q 306 950 306 933 q 294 978 306 967 q 265 990 282 990 q 237 978 249 990 q 225 950 225 967 q 237 922 225 933 q 265 910 249 910 z "},"æ":{"ha":850,"x_min":7,"x_max":843,"o":"m 213 -11 q 60 41 114 -11 q 7 190 7 93 l 7 233 q 32 332 7 294 q 114 399 57 369 l 286 486 q 309 501 300 493 q 322 521 318 510 q 326 544 326 532 q 312 584 326 571 q 269 597 297 597 q 210 538 210 597 l 210 471 l 15 471 l 15 525 q 80 693 15 642 q 261 744 144 744 q 354 734 314 744 q 425 700 394 724 q 592 744 483 744 q 704 730 654 744 q 786 682 754 715 q 831 601 818 650 q 843 486 843 551 l 843 310 l 524 310 l 524 217 q 528 179 524 192 q 540 158 532 167 q 585 142 557 142 q 629 158 613 142 q 642 179 638 167 q 646 217 646 192 l 646 278 l 843 278 l 843 236 q 828 127 843 171 q 786 56 814 83 q 708 10 756 26 q 586 -6 660 -6 q 465 10 511 -6 q 389 57 419 26 q 313 6 357 22 q 213 -11 268 -11 m 265 142 q 326 208 326 142 l 326 350 q 315 341 321 344 q 303 333 310 338 l 247 303 q 214 273 224 289 q 204 231 204 257 l 204 208 q 265 142 204 142 m 524 438 l 646 438 l 646 522 q 642 560 646 547 q 629 581 638 572 q 585 597 613 597 q 540 581 557 597 q 528 560 532 572 q 524 522 524 547 l 524 438 z "},"ç":{"ha":531,"x_min":7,"x_max":524,"o":"m 265 -6 q 142 10 189 -6 q 64 57 94 26 q 22 126 38 85 q 7 236 7 168 l 7 503 q 22 613 7 571 q 64 682 38 656 q 142 728 94 713 q 265 744 189 744 q 389 728 342 744 q 467 682 436 713 q 509 613 494 656 q 524 503 524 571 l 524 471 l 326 471 l 326 522 q 322 560 326 547 q 310 581 318 572 q 265 597 293 597 q 221 581 238 597 q 208 560 213 572 q 204 522 204 547 l 204 217 q 208 179 204 192 q 221 158 213 167 q 265 142 238 142 q 310 158 293 142 q 322 179 318 167 q 326 217 326 192 l 326 278 l 524 278 l 524 236 q 509 126 524 168 q 467 57 494 85 q 389 10 436 26 q 265 -6 342 -6 m 175 -264 l 175 -181 l 181 -181 q 217 -169 206 -181 q 225 -155 222 -162 q 228 -133 228 -147 l 228 -107 l 175 -107 l 175 21 l 356 21 l 356 -117 q 350 -174 356 -151 q 333 -211 344 -196 q 287 -250 317 -236 q 208 -264 257 -264 l 175 -264 z "},"è":{"ha":531,"x_min":7,"x_max":524,"o":"m 265 -6 q 142 10 189 -6 q 64 57 94 26 q 22 126 38 85 q 7 236 7 168 l 7 503 q 22 613 7 571 q 64 682 38 656 q 142 728 94 713 q 265 744 189 744 q 389 728 342 744 q 467 682 436 713 q 509 605 494 656 q 524 486 524 554 l 524 310 l 204 310 l 204 217 q 208 179 204 192 q 221 158 213 167 q 265 142 238 142 q 310 158 293 142 q 322 179 318 167 q 326 217 326 192 l 326 278 l 524 278 l 524 236 q 509 126 524 168 q 467 57 494 85 q 389 10 436 26 q 265 -6 342 -6 m 204 438 l 326 438 l 326 522 q 322 560 326 547 q 310 581 318 572 q 265 597 293 597 q 221 581 238 597 q 208 560 213 572 q 204 522 204 547 l 204 438 m 185 819 l 100 981 l 322 981 l 347 819 l 185 819 z "},"é":{"ha":531,"x_min":7,"x_max":524,"o":"m 265 -6 q 142 10 189 -6 q 64 57 94 26 q 22 126 38 85 q 7 236 7 168 l 7 503 q 22 613 7 571 q 64 682 38 656 q 142 728 94 713 q 265 744 189 744 q 389 728 342 744 q 467 682 436 713 q 509 605 494 656 q 524 486 524 554 l 524 310 l 204 310 l 204 217 q 208 179 204 192 q 221 158 213 167 q 265 142 238 142 q 310 158 293 142 q 322 179 318 167 q 326 217 326 192 l 326 278 l 524 278 l 524 236 q 509 126 524 168 q 467 57 494 85 q 389 10 436 26 q 265 -6 342 -6 m 204 438 l 326 438 l 326 522 q 322 560 326 547 q 310 581 318 572 q 265 597 293 597 q 221 581 238 597 q 208 560 213 572 q 204 522 204 547 l 204 438 m 183 819 l 208 981 l 431 981 l 346 819 l 183 819 z "},"ê":{"ha":531,"x_min":7,"x_max":524,"o":"m 265 -6 q 142 10 189 -6 q 64 57 94 26 q 22 126 38 85 q 7 236 7 168 l 7 503 q 22 613 7 571 q 64 682 38 656 q 142 728 94 713 q 265 744 189 744 q 389 728 342 744 q 467 682 436 713 q 509 605 494 656 q 524 486 524 554 l 524 310 l 204 310 l 204 217 q 208 179 204 192 q 221 158 213 167 q 265 142 238 142 q 310 158 293 142 q 322 179 318 167 q 326 217 326 192 l 326 278 l 524 278 l 524 236 q 509 126 524 168 q 467 57 494 85 q 389 10 436 26 q 265 -6 342 -6 m 204 438 l 326 438 l 326 522 q 322 560 326 547 q 310 581 318 572 q 265 597 293 597 q 221 581 238 597 q 208 560 213 572 q 204 522 204 547 l 204 438 m 60 819 l 128 981 l 400 981 l 471 819 l 294 819 l 257 913 l 219 819 l 60 819 z "},"ë":{"ha":531,"x_min":7,"x_max":524,"o":"m 265 -6 q 142 10 189 -6 q 64 57 94 26 q 22 126 38 85 q 7 236 7 168 l 7 503 q 22 613 7 571 q 64 682 38 656 q 142 728 94 713 q 265 744 189 744 q 389 728 342 744 q 467 682 436 713 q 509 605 494 656 q 524 486 524 554 l 524 310 l 204 310 l 204 217 q 208 179 204 192 q 221 158 213 167 q 265 142 238 142 q 310 158 293 142 q 322 179 318 167 q 326 217 326 192 l 326 278 l 524 278 l 524 236 q 509 126 524 168 q 467 57 494 85 q 389 10 436 26 q 265 -6 342 -6 m 204 438 l 326 438 l 326 522 q 322 560 326 547 q 310 581 318 572 q 265 597 293 597 q 221 581 238 597 q 208 560 213 572 q 204 522 204 547 l 204 438 m 49 819 l 49 981 l 232 981 l 232 819 l 49 819 m 299 819 l 299 981 l 482 981 l 482 819 l 299 819 z "},"ì":{"ha":211,"x_min":-60,"x_max":204,"o":"m 7 0 l 7 739 l 204 739 l 204 0 l 7 0 m 25 819 l -60 981 l 163 981 l 188 819 l 25 819 z "},"í":{"ha":211,"x_min":7,"x_max":271,"o":"m 7 0 l 7 739 l 204 739 l 204 0 l 7 0 m 24 819 l 49 981 l 271 981 l 186 819 l 24 819 z "},"î":{"ha":211,"x_min":-100,"x_max":311,"o":"m 7 0 l 7 739 l 204 739 l 204 0 l 7 0 m -100 819 l -32 981 l 240 981 l 311 819 l 135 819 l 97 913 l 60 819 l -100 819 z "},"ï":{"ha":211,"x_min":-111,"x_max":322,"o":"m 7 0 l 7 739 l 204 739 l 204 0 l 7 0 m -111 819 l -111 981 l 72 981 l 72 819 l -111 819 m 139 819 l 139 981 l 322 981 l 322 819 l 139 819 z "},"ð":{"ha":531,"x_min":7,"x_max":524,"o":"m 265 -6 q 142 10 189 -6 q 64 57 94 26 q 22 126 38 85 q 7 236 7 168 l 7 460 q 22 570 7 528 q 64 639 38 613 q 125 679 89 664 q 215 700 161 694 l 65 931 l 215 1031 l 458 660 q 507 563 490 611 q 524 460 524 515 l 524 236 q 509 126 524 168 q 467 57 494 85 q 390 10 436 26 q 265 -6 343 -6 m 265 142 q 310 158 293 142 q 322 179 318 167 q 326 217 326 192 l 326 486 q 322 524 326 511 q 310 544 318 536 q 265 561 293 561 q 221 544 238 561 q 208 524 213 536 q 204 486 204 511 l 204 217 q 208 179 204 192 q 221 158 213 167 q 265 142 238 142 m 94 700 l 31 799 l 371 1021 l 435 922 l 94 700 z "},"ñ":{"ha":531,"x_min":7,"x_max":524,"o":"m 7 0 l 7 739 l 204 739 l 204 689 q 266 735 229 721 q 344 750 303 750 q 472 703 425 750 q 510 640 497 678 q 524 536 524 601 l 524 0 l 326 0 l 326 508 q 322 546 326 533 q 310 567 318 558 q 265 583 293 583 q 221 567 238 583 q 208 546 213 558 q 204 508 204 533 l 204 0 l 7 0 m 319 813 q 276 818 293 813 q 244 833 258 824 q 208 849 222 849 q 187 840 194 849 q 179 817 179 831 l 74 817 l 74 857 q 110 951 74 915 q 211 986 147 986 q 251 981 235 986 q 279 968 267 975 q 303 955 293 961 q 322 949 313 949 q 351 981 351 949 l 351 982 l 457 982 l 457 942 q 421 848 457 883 q 319 813 385 813 z "},"ò":{"ha":531,"x_min":7,"x_max":524,"o":"m 265 -6 q 142 10 189 -6 q 64 57 94 26 q 22 126 38 85 q 7 236 7 168 l 7 503 q 22 613 7 571 q 64 682 38 656 q 142 728 94 713 q 265 744 189 744 q 390 728 343 744 q 467 682 436 713 q 509 613 494 656 q 524 503 524 571 l 524 236 q 509 126 524 168 q 467 57 494 85 q 390 10 436 26 q 265 -6 343 -6 m 265 142 q 310 158 293 142 q 322 179 318 167 q 326 217 326 192 l 326 522 q 322 560 326 547 q 310 581 318 572 q 265 597 293 597 q 221 581 238 597 q 208 560 213 572 q 204 522 204 547 l 204 217 q 208 179 204 192 q 221 158 213 167 q 265 142 238 142 m 185 819 l 100 981 l 322 981 l 347 819 l 185 819 z "},"ó":{"ha":531,"x_min":7,"x_max":524,"o":"m 265 -6 q 142 10 189 -6 q 64 57 94 26 q 22 126 38 85 q 7 236 7 168 l 7 503 q 22 613 7 571 q 64 682 38 656 q 142 728 94 713 q 265 744 189 744 q 390 728 343 744 q 467 682 436 713 q 509 613 494 656 q 524 503 524 571 l 524 236 q 509 126 524 168 q 467 57 494 85 q 390 10 436 26 q 265 -6 343 -6 m 265 142 q 310 158 293 142 q 322 179 318 167 q 326 217 326 192 l 326 522 q 322 560 326 547 q 310 581 318 572 q 265 597 293 597 q 221 581 238 597 q 208 560 213 572 q 204 522 204 547 l 204 217 q 208 179 204 192 q 221 158 213 167 q 265 142 238 142 m 183 819 l 208 981 l 431 981 l 346 819 l 183 819 z "},"ô":{"ha":531,"x_min":7,"x_max":524,"o":"m 265 -6 q 142 10 189 -6 q 64 57 94 26 q 22 126 38 85 q 7 236 7 168 l 7 503 q 22 613 7 571 q 64 682 38 656 q 142 728 94 713 q 265 744 189 744 q 390 728 343 744 q 467 682 436 713 q 509 613 494 656 q 524 503 524 571 l 524 236 q 509 126 524 168 q 467 57 494 85 q 390 10 436 26 q 265 -6 343 -6 m 265 142 q 310 158 293 142 q 322 179 318 167 q 326 217 326 192 l 326 522 q 322 560 326 547 q 310 581 318 572 q 265 597 293 597 q 221 581 238 597 q 208 560 213 572 q 204 522 204 547 l 204 217 q 208 179 204 192 q 221 158 213 167 q 265 142 238 142 m 60 819 l 128 981 l 400 981 l 471 819 l 294 819 l 257 913 l 219 819 l 60 819 z "},"õ":{"ha":531,"x_min":7,"x_max":524,"o":"m 265 -6 q 142 10 189 -6 q 64 57 94 26 q 22 126 38 85 q 7 236 7 168 l 7 503 q 22 613 7 571 q 64 682 38 656 q 142 728 94 713 q 265 744 189 744 q 390 728 343 744 q 467 682 436 713 q 509 613 494 656 q 524 503 524 571 l 524 236 q 509 126 524 168 q 467 57 494 85 q 390 10 436 26 q 265 -6 343 -6 m 265 142 q 310 158 293 142 q 322 179 318 167 q 326 217 326 192 l 326 522 q 322 560 326 547 q 310 581 318 572 q 265 597 293 597 q 221 581 238 597 q 208 560 213 572 q 204 522 204 547 l 204 217 q 208 179 204 192 q 221 158 213 167 q 265 142 238 142 m 319 813 q 276 818 293 813 q 244 833 258 824 q 208 849 222 849 q 187 840 194 849 q 179 817 179 831 l 74 817 l 74 857 q 110 951 74 915 q 211 986 147 986 q 251 981 235 986 q 279 968 267 975 q 303 955 293 961 q 322 949 313 949 q 351 981 351 949 l 351 982 l 457 982 l 457 942 q 421 848 457 883 q 319 813 385 813 z "},"ö":{"ha":531,"x_min":7,"x_max":524,"o":"m 265 -6 q 142 10 189 -6 q 64 57 94 26 q 22 126 38 85 q 7 236 7 168 l 7 503 q 22 613 7 571 q 64 682 38 656 q 142 728 94 713 q 265 744 189 744 q 390 728 343 744 q 467 682 436 713 q 509 613 494 656 q 524 503 524 571 l 524 236 q 509 126 524 168 q 467 57 494 85 q 390 10 436 26 q 265 -6 343 -6 m 265 142 q 310 158 293 142 q 322 179 318 167 q 326 217 326 192 l 326 522 q 322 560 326 547 q 310 581 318 572 q 265 597 293 597 q 221 581 238 597 q 208 560 213 572 q 204 522 204 547 l 204 217 q 208 179 204 192 q 221 158 213 167 q 265 142 238 142 m 49 819 l 49 981 l 232 981 l 232 819 l 49 819 m 299 819 l 299 981 l 482 981 l 482 819 l 299 819 z "},"÷":{"ha":614,"x_min":7,"x_max":607,"o":"m 7 399 l 7 554 l 607 554 l 607 399 l 7 399 m 217 172 l 217 351 l 400 351 l 400 172 l 217 172 m 217 601 l 217 781 l 400 781 l 400 601 l 217 601 z "},"ø":{"ha":531,"x_min":10,"x_max":526,"o":"m 176 -60 l 36 -3 l 63 61 q 23 130 36 88 q 10 236 10 172 l 10 503 q 24 613 10 571 q 67 682 39 656 q 144 728 97 713 q 268 744 192 744 q 305 744 288 744 q 338 740 322 743 l 360 797 l 499 742 l 474 678 q 513 610 500 651 q 526 503 526 568 l 526 236 q 512 126 526 168 q 469 57 497 83 q 392 10 439 26 q 268 -6 344 -6 q 233 -4 250 -6 q 200 -1 215 -3 l 176 -60 m 207 365 l 299 590 q 285 595 293 593 q 268 597 276 597 q 224 581 240 597 q 211 560 215 572 q 207 522 207 547 l 207 365 m 268 142 q 313 158 296 142 q 325 179 321 167 q 329 217 329 192 l 329 376 l 238 149 q 252 144 244 146 q 268 142 260 142 z "},"ù":{"ha":531,"x_min":7,"x_max":524,"o":"m 186 -11 q 58 36 106 -11 q 20 100 33 61 q 7 203 7 139 l 7 739 l 204 739 l 204 231 q 208 193 204 206 q 221 172 213 181 q 265 156 238 156 q 310 172 293 156 q 322 193 318 181 q 326 231 326 206 l 326 739 l 524 739 l 524 0 l 326 0 l 326 50 q 265 4 301 19 q 186 -11 228 -11 m 185 819 l 100 981 l 322 981 l 347 819 l 185 819 z "},"ú":{"ha":531,"x_min":7,"x_max":524,"o":"m 186 -11 q 58 36 106 -11 q 20 100 33 61 q 7 203 7 139 l 7 739 l 204 739 l 204 231 q 208 193 204 206 q 221 172 213 181 q 265 156 238 156 q 310 172 293 156 q 322 193 318 181 q 326 231 326 206 l 326 739 l 524 739 l 524 0 l 326 0 l 326 50 q 265 4 301 19 q 186 -11 228 -11 m 183 819 l 208 981 l 431 981 l 346 819 l 183 819 z "},"û":{"ha":531,"x_min":7,"x_max":524,"o":"m 186 -11 q 58 36 106 -11 q 20 100 33 61 q 7 203 7 139 l 7 739 l 204 739 l 204 231 q 208 193 204 206 q 221 172 213 181 q 265 156 238 156 q 310 172 293 156 q 322 193 318 181 q 326 231 326 206 l 326 739 l 524 739 l 524 0 l 326 0 l 326 50 q 265 4 301 19 q 186 -11 228 -11 m 60 819 l 128 981 l 400 981 l 471 819 l 294 819 l 257 913 l 219 819 l 60 819 z "},"ü":{"ha":531,"x_min":7,"x_max":524,"o":"m 186 -11 q 58 36 106 -11 q 20 100 33 61 q 7 203 7 139 l 7 739 l 204 739 l 204 231 q 208 193 204 206 q 221 172 213 181 q 265 156 238 156 q 310 172 293 156 q 322 193 318 181 q 326 231 326 206 l 326 739 l 524 739 l 524 0 l 326 0 l 326 50 q 265 4 301 19 q 186 -11 228 -11 m 49 819 l 49 981 l 232 981 l 232 819 l 49 819 m 299 819 l 299 981 l 482 981 l 482 819 l 299 819 z "},"ý":{"ha":625,"x_min":0,"x_max":625,"o":"m 156 -228 l 229 19 l 0 739 l 207 739 l 319 331 l 436 739 l 625 739 l 344 -228 l 156 -228 m 231 819 l 256 981 l 478 981 l 393 819 l 231 819 z "},"þ":{"ha":531,"x_min":7,"x_max":524,"o":"m 7 -228 l 7 981 l 204 981 l 204 689 q 265 734 228 718 q 344 750 301 750 q 472 703 425 750 q 510 640 497 678 q 524 536 524 601 l 524 203 q 510 100 524 139 q 472 36 497 61 q 344 -11 425 -11 q 265 6 301 -11 q 204 50 228 22 l 204 -228 l 7 -228 m 265 156 q 310 172 293 156 q 322 193 318 181 q 326 231 326 206 l 326 508 q 322 546 326 533 q 310 567 318 558 q 265 583 293 583 q 221 567 238 583 q 208 546 213 558 q 204 508 204 533 l 204 231 q 208 193 204 206 q 221 172 213 181 q 265 156 238 156 z "},"ÿ":{"ha":625,"x_min":0,"x_max":625,"o":"m 156 -228 l 229 19 l 0 739 l 207 739 l 319 331 l 436 739 l 625 739 l 344 -228 l 156 -228 m 96 819 l 96 981 l 279 981 l 279 819 l 96 819 m 346 819 l 346 981 l 529 981 l 529 819 l 346 819 z "},"Ā":{"ha":647,"x_min":0,"x_max":647,"o":"m 0 0 l 151 981 l 497 981 l 647 0 l 421 0 l 397 172 l 236 172 l 213 0 l 0 0 m 258 349 l 375 349 l 317 810 l 258 349 m 126 1033 l 126 1175 l 521 1175 l 521 1033 l 126 1033 z "},"ā":{"ha":531,"x_min":7,"x_max":524,"o":"m 185 -11 q 53 41 100 -11 q 7 190 7 93 l 7 233 q 32 332 7 294 q 114 399 57 369 l 286 486 q 309 501 300 493 q 322 521 318 510 q 326 544 326 532 q 312 584 326 571 q 269 597 297 597 q 224 582 239 597 q 210 538 210 567 l 210 471 l 15 471 l 15 525 q 81 693 15 642 q 269 744 147 744 q 460 691 397 744 q 524 522 524 638 l 524 0 l 326 0 l 326 50 q 185 -11 278 -11 m 265 142 q 326 208 326 142 l 326 350 q 315 341 321 344 q 303 333 310 338 l 247 303 q 214 273 224 289 q 204 231 204 257 l 204 208 q 265 142 204 142 m 68 839 l 68 981 l 463 981 l 463 839 l 68 839 z "},"Ă":{"ha":647,"x_min":0,"x_max":647,"o":"m 0 0 l 151 981 l 497 981 l 647 0 l 421 0 l 397 172 l 236 172 l 213 0 l 0 0 m 258 349 l 375 349 l 317 810 l 258 349 m 317 1028 q 171 1065 224 1028 q 117 1172 118 1103 l 276 1172 q 324 1140 279 1140 q 371 1172 368 1140 l 531 1172 q 472 1065 529 1101 q 317 1028 415 1028 z "},"ă":{"ha":531,"x_min":7,"x_max":524,"o":"m 185 -11 q 53 41 100 -11 q 7 190 7 93 l 7 233 q 32 332 7 294 q 114 399 57 369 l 286 486 q 309 501 300 493 q 322 521 318 510 q 326 544 326 532 q 312 584 326 571 q 269 597 297 597 q 224 582 239 597 q 210 538 210 567 l 210 471 l 15 471 l 15 525 q 81 693 15 642 q 269 744 147 744 q 460 691 397 744 q 524 522 524 638 l 524 0 l 326 0 l 326 50 q 185 -11 278 -11 m 265 142 q 326 208 326 142 l 326 350 q 315 341 321 344 q 303 333 310 338 l 247 303 q 214 273 224 289 q 204 231 204 257 l 204 208 q 265 142 204 142 m 265 814 q 119 857 172 814 q 65 981 67 900 l 218 981 q 265 936 221 936 q 313 981 310 936 l 465 981 q 410 856 464 899 q 265 814 357 814 z "},"Ą":{"ha":647,"x_min":0,"x_max":647,"o":"m 0 0 l 151 981 l 497 981 l 647 0 l 421 0 l 397 172 l 236 172 l 213 0 l 0 0 m 258 349 l 375 349 l 317 810 l 258 349 m 579 -242 q 481 -210 524 -242 q 439 -114 439 -179 q 481 -23 439 -61 q 582 36 522 15 l 647 0 q 601 -32 617 -12 q 586 -71 586 -51 q 633 -119 586 -119 l 647 -119 l 647 -242 l 579 -242 z "},"ą":{"ha":531,"x_min":7,"x_max":524,"o":"m 185 -11 q 53 41 100 -11 q 7 190 7 93 l 7 233 q 32 332 7 294 q 114 399 57 369 l 286 486 q 309 501 300 493 q 322 521 318 510 q 326 544 326 532 q 312 584 326 571 q 269 597 297 597 q 224 582 239 597 q 210 538 210 567 l 210 471 l 15 471 l 15 525 q 81 693 15 642 q 269 744 147 744 q 460 691 397 744 q 524 522 524 638 l 524 0 l 326 0 l 326 50 q 185 -11 278 -11 m 265 142 q 326 208 326 142 l 326 350 q 315 341 321 344 q 303 333 310 338 l 247 303 q 214 273 224 289 q 204 231 204 257 l 204 208 q 265 142 204 142 m 453 -242 q 362 -210 401 -242 q 322 -114 322 -179 q 362 -23 322 -61 q 458 36 401 15 l 524 0 q 478 -32 493 -12 q 463 -71 463 -51 q 510 -119 463 -119 l 524 -119 l 524 -242 l 453 -242 z "},"Ć":{"ha":614,"x_min":7,"x_max":607,"o":"m 307 -6 q 165 13 221 -6 q 72 68 108 32 q 24 146 40 100 q 7 264 7 192 l 7 717 q 24 835 7 789 q 72 913 40 881 q 165 967 108 949 q 307 986 221 986 q 449 967 393 986 q 542 913 506 949 q 590 835 574 881 q 607 717 607 789 l 607 635 l 382 635 l 382 744 q 376 788 382 772 q 363 813 371 804 q 340 828 353 824 q 307 833 326 833 q 251 813 272 833 q 238 788 243 804 q 232 744 232 772 l 232 236 q 238 192 232 208 q 251 168 243 176 q 276 153 263 158 q 307 147 290 147 q 363 168 342 147 q 376 192 371 176 q 382 236 382 208 l 382 378 l 607 378 l 607 264 q 590 146 607 192 q 542 68 574 100 q 449 13 506 32 q 307 -6 393 -6 m 218 1033 l 243 1172 l 479 1172 l 394 1033 l 218 1033 z "},"ć":{"ha":531,"x_min":7,"x_max":524,"o":"m 265 -6 q 142 10 189 -6 q 64 57 94 26 q 22 126 38 85 q 7 236 7 168 l 7 503 q 22 613 7 571 q 64 682 38 656 q 142 728 94 713 q 265 744 189 744 q 389 728 342 744 q 467 682 436 713 q 509 613 494 656 q 524 503 524 571 l 524 471 l 326 471 l 326 522 q 322 560 326 547 q 310 581 318 572 q 265 597 293 597 q 221 581 238 597 q 208 560 213 572 q 204 522 204 547 l 204 217 q 208 179 204 192 q 221 158 213 167 q 265 142 238 142 q 310 158 293 142 q 322 179 318 167 q 326 217 326 192 l 326 278 l 524 278 l 524 236 q 509 126 524 168 q 467 57 494 85 q 389 10 436 26 q 265 -6 342 -6 m 183 819 l 208 981 l 431 981 l 346 819 l 183 819 z "},"Ĉ":{"ha":614,"x_min":7,"x_max":607,"o":"m 307 -6 q 165 13 221 -6 q 72 68 108 32 q 24 146 40 100 q 7 264 7 192 l 7 717 q 24 835 7 789 q 72 913 40 881 q 165 967 108 949 q 307 986 221 986 q 449 967 393 986 q 542 913 506 949 q 590 835 574 881 q 607 717 607 789 l 607 635 l 382 635 l 382 744 q 376 788 382 772 q 363 813 371 804 q 340 828 353 824 q 307 833 326 833 q 251 813 272 833 q 238 788 243 804 q 232 744 232 772 l 232 236 q 238 192 232 208 q 251 168 243 176 q 276 153 263 158 q 307 147 290 147 q 363 168 342 147 q 376 192 371 176 q 382 236 382 208 l 382 378 l 607 378 l 607 264 q 590 146 607 192 q 542 68 574 100 q 449 13 506 32 q 307 -6 393 -6 m 94 1033 l 163 1172 l 449 1172 l 519 1033 l 342 1033 l 304 1114 l 267 1033 l 94 1033 z "},"ĉ":{"ha":531,"x_min":7,"x_max":524,"o":"m 265 -6 q 142 10 189 -6 q 64 57 94 26 q 22 126 38 85 q 7 236 7 168 l 7 503 q 22 613 7 571 q 64 682 38 656 q 142 728 94 713 q 265 744 189 744 q 389 728 342 744 q 467 682 436 713 q 509 613 494 656 q 524 503 524 571 l 524 471 l 326 471 l 326 522 q 322 560 326 547 q 310 581 318 572 q 265 597 293 597 q 221 581 238 597 q 208 560 213 572 q 204 522 204 547 l 204 217 q 208 179 204 192 q 221 158 213 167 q 265 142 238 142 q 310 158 293 142 q 322 179 318 167 q 326 217 326 192 l 326 278 l 524 278 l 524 236 q 509 126 524 168 q 467 57 494 85 q 389 10 436 26 q 265 -6 342 -6 m 60 819 l 128 981 l 400 981 l 471 819 l 294 819 l 257 913 l 219 819 l 60 819 z "},"Ċ":{"ha":614,"x_min":7,"x_max":607,"o":"m 307 -6 q 165 13 221 -6 q 72 68 108 32 q 24 146 40 100 q 7 264 7 192 l 7 717 q 24 835 7 789 q 72 913 40 881 q 165 967 108 949 q 307 986 221 986 q 449 967 393 986 q 542 913 506 949 q 590 835 574 881 q 607 717 607 789 l 607 635 l 382 635 l 382 744 q 376 788 382 772 q 363 813 371 804 q 340 828 353 824 q 307 833 326 833 q 251 813 272 833 q 238 788 243 804 q 232 744 232 772 l 232 236 q 238 192 232 208 q 251 168 243 176 q 276 153 263 158 q 307 147 290 147 q 363 168 342 147 q 376 192 371 176 q 382 236 382 208 l 382 378 l 607 378 l 607 264 q 590 146 607 192 q 542 68 574 100 q 449 13 506 32 q 307 -6 393 -6 m 201 1033 l 201 1172 l 413 1172 l 413 1033 l 201 1033 z "},"ċ":{"ha":531,"x_min":7,"x_max":524,"o":"m 265 -6 q 142 10 189 -6 q 64 57 94 26 q 22 126 38 85 q 7 236 7 168 l 7 503 q 22 613 7 571 q 64 682 38 656 q 142 728 94 713 q 265 744 189 744 q 389 728 342 744 q 467 682 436 713 q 509 613 494 656 q 524 503 524 571 l 524 471 l 326 471 l 326 522 q 322 560 326 547 q 310 581 318 572 q 265 597 293 597 q 221 581 238 597 q 208 560 213 572 q 204 522 204 547 l 204 217 q 208 179 204 192 q 221 158 213 167 q 265 142 238 142 q 310 158 293 142 q 322 179 318 167 q 326 217 326 192 l 326 278 l 524 278 l 524 236 q 509 126 524 168 q 467 57 494 85 q 389 10 436 26 q 265 -6 342 -6 m 167 819 l 167 981 l 364 981 l 364 819 l 167 819 z "},"Č":{"ha":614,"x_min":7,"x_max":607,"o":"m 307 -6 q 165 13 221 -6 q 72 68 108 32 q 24 146 40 100 q 7 264 7 192 l 7 717 q 24 835 7 789 q 72 913 40 881 q 165 967 108 949 q 307 986 221 986 q 449 967 393 986 q 542 913 506 949 q 590 835 574 881 q 607 717 607 789 l 607 635 l 382 635 l 382 744 q 376 788 382 772 q 363 813 371 804 q 340 828 353 824 q 307 833 326 833 q 251 813 272 833 q 238 788 243 804 q 232 744 232 772 l 232 236 q 238 192 232 208 q 251 168 243 176 q 276 153 263 158 q 307 147 290 147 q 363 168 342 147 q 376 192 371 176 q 382 236 382 208 l 382 378 l 607 378 l 607 264 q 590 146 607 192 q 542 68 574 100 q 449 13 506 32 q 307 -6 393 -6 m 165 1033 l 94 1172 l 274 1172 l 311 1090 l 349 1172 l 519 1172 l 451 1033 l 165 1033 z "},"č":{"ha":531,"x_min":7,"x_max":524,"o":"m 265 -6 q 142 10 189 -6 q 64 57 94 26 q 22 126 38 85 q 7 236 7 168 l 7 503 q 22 613 7 571 q 64 682 38 656 q 142 728 94 713 q 265 744 189 744 q 389 728 342 744 q 467 682 436 713 q 509 613 494 656 q 524 503 524 571 l 524 471 l 326 471 l 326 522 q 322 560 326 547 q 310 581 318 572 q 265 597 293 597 q 221 581 238 597 q 208 560 213 572 q 204 522 204 547 l 204 217 q 208 179 204 192 q 221 158 213 167 q 265 142 238 142 q 310 158 293 142 q 322 179 318 167 q 326 217 326 192 l 326 278 l 524 278 l 524 236 q 509 126 524 168 q 467 57 494 85 q 389 10 436 26 q 265 -6 342 -6 m 131 819 l 60 981 l 236 981 l 274 888 l 311 981 l 471 981 l 403 819 l 131 819 z "},"Ď":{"ha":614,"x_min":7,"x_max":607,"o":"m 7 0 l 7 981 l 350 981 q 468 965 422 981 q 544 918 514 949 q 591 842 575 888 q 607 724 607 796 l 607 257 q 591 139 607 185 q 544 63 575 93 q 468 16 514 32 q 350 0 422 0 l 7 0 m 233 183 l 294 183 q 364 204 343 183 q 378 233 372 214 q 383 283 383 251 l 383 708 q 378 752 383 736 q 364 776 372 768 q 338 792 354 786 q 294 797 322 797 l 233 797 l 233 183 m 165 1033 l 94 1172 l 274 1172 l 311 1090 l 349 1172 l 519 1172 l 451 1033 l 165 1033 z "},"ď":{"ha":531,"x_min":7,"x_max":751,"o":"m 186 -11 q 58 36 106 -11 q 20 100 33 61 q 7 203 7 139 l 7 536 q 20 639 7 600 q 58 703 33 678 q 186 750 106 750 q 326 689 278 750 l 326 981 l 524 981 l 524 0 l 326 0 l 326 51 q 267 4 303 19 q 186 -11 231 -11 m 265 156 q 310 172 293 156 q 322 193 318 181 q 326 231 326 206 l 326 508 q 322 546 326 533 q 310 567 318 558 q 265 583 293 583 q 221 567 238 583 q 208 546 213 558 q 204 508 204 533 l 204 231 q 208 193 204 206 q 221 172 213 181 q 265 156 238 156 m 538 797 l 538 981 l 751 981 l 700 797 l 538 797 z "},"Đ":{"ha":681,"x_min":7,"x_max":674,"o":"m 74 0 l 74 981 l 417 981 q 535 965 490 981 q 611 918 581 949 q 658 842 642 888 q 674 724 674 796 l 674 257 q 658 139 674 185 q 611 63 642 93 q 535 16 581 32 q 417 0 490 0 l 74 0 m 7 413 l 7 568 l 400 568 l 400 413 l 7 413 m 300 183 l 361 183 q 431 204 414 183 q 444 233 439 214 q 450 283 450 251 l 450 708 q 444 752 450 736 q 431 776 439 768 q 405 792 421 786 q 361 797 389 797 l 300 797 l 300 183 z "},"đ":{"ha":531,"x_min":7,"x_max":590,"o":"m 186 -11 q 58 36 106 -11 q 20 100 33 61 q 7 203 7 139 l 7 536 q 20 640 7 601 q 58 703 33 678 q 186 750 106 750 q 267 735 231 750 q 326 689 303 721 l 326 786 l 232 786 l 232 921 l 326 921 l 326 981 l 524 981 l 524 921 l 590 921 l 590 786 l 524 786 l 524 0 l 326 0 l 326 51 q 267 5 304 21 q 186 -11 231 -11 m 265 156 q 310 172 293 156 q 322 193 318 181 q 326 231 326 206 l 326 508 q 322 546 326 533 q 310 567 318 558 q 265 583 293 583 q 221 567 238 583 q 208 546 213 558 q 204 508 204 533 l 204 231 q 208 193 204 206 q 221 172 213 181 q 265 156 238 156 z "},"Ē":{"ha":522,"x_min":7,"x_max":515,"o":"m 7 0 l 7 981 l 515 981 l 515 797 l 232 797 l 232 596 l 515 596 l 515 413 l 232 413 l 232 183 l 515 183 l 515 0 l 7 0 m 64 1033 l 64 1175 l 458 1175 l 458 1033 l 64 1033 z "},"ē":{"ha":531,"x_min":7,"x_max":524,"o":"m 265 -6 q 142 10 189 -6 q 64 57 94 26 q 22 126 38 85 q 7 236 7 168 l 7 503 q 22 613 7 571 q 64 682 38 656 q 142 728 94 713 q 265 744 189 744 q 389 728 342 744 q 467 682 436 713 q 509 605 494 656 q 524 486 524 554 l 524 310 l 204 310 l 204 217 q 208 179 204 192 q 221 158 213 167 q 265 142 238 142 q 310 158 293 142 q 322 179 318 167 q 326 217 326 192 l 326 278 l 524 278 l 524 236 q 509 126 524 168 q 467 57 494 85 q 389 10 436 26 q 265 -6 342 -6 m 204 438 l 326 438 l 326 522 q 322 560 326 547 q 310 581 318 572 q 265 597 293 597 q 221 581 238 597 q 208 560 213 572 q 204 522 204 547 l 204 438 m 68 839 l 68 981 l 463 981 l 463 839 l 68 839 z "},"Ĕ":{"ha":522,"x_min":7,"x_max":515,"o":"m 7 0 l 7 981 l 515 981 l 515 797 l 232 797 l 232 596 l 515 596 l 515 413 l 232 413 l 232 183 l 515 183 l 515 0 l 7 0 m 254 1028 q 108 1065 161 1028 q 54 1172 56 1103 l 214 1172 q 261 1140 217 1140 q 308 1172 306 1140 l 468 1172 q 410 1065 467 1101 q 254 1028 353 1028 z "},"ĕ":{"ha":531,"x_min":7,"x_max":524,"o":"m 265 -6 q 142 10 189 -6 q 64 57 94 26 q 22 126 38 85 q 7 236 7 168 l 7 503 q 22 613 7 571 q 64 682 38 656 q 142 728 94 713 q 265 744 189 744 q 389 728 342 744 q 467 682 436 713 q 509 605 494 656 q 524 486 524 554 l 524 310 l 204 310 l 204 217 q 208 179 204 192 q 221 158 213 167 q 265 142 238 142 q 310 158 293 142 q 322 179 318 167 q 326 217 326 192 l 326 278 l 524 278 l 524 236 q 509 126 524 168 q 467 57 494 85 q 389 10 436 26 q 265 -6 342 -6 m 204 438 l 326 438 l 326 522 q 322 560 326 547 q 310 581 318 572 q 265 597 293 597 q 221 581 238 597 q 208 560 213 572 q 204 522 204 547 l 204 438 m 265 814 q 119 857 172 814 q 65 981 67 900 l 218 981 q 265 936 221 936 q 313 981 310 936 l 465 981 q 410 856 464 899 q 265 814 357 814 z "},"Ė":{"ha":522,"x_min":7,"x_max":515,"o":"m 7 0 l 7 981 l 515 981 l 515 797 l 232 797 l 232 596 l 515 596 l 515 413 l 232 413 l 232 183 l 515 183 l 515 0 l 7 0 m 156 1033 l 156 1172 l 367 1172 l 367 1033 l 156 1033 z "},"ė":{"ha":531,"x_min":7,"x_max":524,"o":"m 265 -6 q 142 10 189 -6 q 64 57 94 26 q 22 126 38 85 q 7 236 7 168 l 7 503 q 22 613 7 571 q 64 682 38 656 q 142 728 94 713 q 265 744 189 744 q 389 728 342 744 q 467 682 436 713 q 509 605 494 656 q 524 486 524 554 l 524 310 l 204 310 l 204 217 q 208 179 204 192 q 221 158 213 167 q 265 142 238 142 q 310 158 293 142 q 322 179 318 167 q 326 217 326 192 l 326 278 l 524 278 l 524 236 q 509 126 524 168 q 467 57 494 85 q 389 10 436 26 q 265 -6 342 -6 m 204 438 l 326 438 l 326 522 q 322 560 326 547 q 310 581 318 572 q 265 597 293 597 q 221 581 238 597 q 208 560 213 572 q 204 522 204 547 l 204 438 m 167 819 l 167 981 l 364 981 l 364 819 l 167 819 z "},"Ę":{"ha":522,"x_min":7,"x_max":515,"o":"m 7 0 l 7 981 l 515 981 l 515 797 l 232 797 l 232 596 l 515 596 l 515 413 l 232 413 l 232 183 l 515 183 l 515 0 l 7 0 m 447 -242 q 349 -210 392 -242 q 307 -114 307 -179 q 349 -23 307 -61 q 450 36 390 15 l 515 0 q 469 -32 485 -12 q 454 -71 454 -51 q 501 -119 454 -119 l 515 -119 l 515 -242 l 447 -242 z "},"ę":{"ha":531,"x_min":7,"x_max":524,"o":"m 265 -6 q 142 10 189 -6 q 64 57 94 26 q 22 126 38 85 q 7 236 7 168 l 7 503 q 22 613 7 571 q 64 682 38 656 q 142 728 94 713 q 265 744 189 744 q 389 728 342 744 q 467 682 436 713 q 509 605 494 656 q 524 486 524 554 l 524 310 l 204 310 l 204 217 q 208 179 204 192 q 221 158 213 167 q 265 142 238 142 q 310 158 293 142 q 322 179 318 167 q 326 217 326 192 l 326 278 l 524 278 l 524 236 q 509 126 524 168 q 467 57 494 85 q 389 10 436 26 q 265 -6 342 -6 m 204 438 l 326 438 l 326 522 q 322 560 326 547 q 310 581 318 572 q 265 597 293 597 q 221 581 238 597 q 208 560 213 572 q 204 522 204 547 l 204 438 m 328 -228 q 237 -197 276 -228 q 197 -100 197 -165 q 237 -9 197 -47 q 333 50 276 29 l 399 14 q 353 -18 368 1 q 338 -57 338 -37 q 385 -106 338 -106 l 399 -106 l 399 -228 l 328 -228 z "},"Ě":{"ha":522,"x_min":7,"x_max":515,"o":"m 7 0 l 7 981 l 515 981 l 515 797 l 232 797 l 232 596 l 515 596 l 515 413 l 232 413 l 232 183 l 515 183 l 515 0 l 7 0 m 119 1033 l 49 1172 l 228 1172 l 265 1090 l 303 1172 l 474 1172 l 406 1033 l 119 1033 z "},"ě":{"ha":531,"x_min":7,"x_max":524,"o":"m 265 -6 q 142 10 189 -6 q 64 57 94 26 q 22 126 38 85 q 7 236 7 168 l 7 503 q 22 613 7 571 q 64 682 38 656 q 142 728 94 713 q 265 744 189 744 q 389 728 342 744 q 467 682 436 713 q 509 605 494 656 q 524 486 524 554 l 524 310 l 204 310 l 204 217 q 208 179 204 192 q 221 158 213 167 q 265 142 238 142 q 310 158 293 142 q 322 179 318 167 q 326 217 326 192 l 326 278 l 524 278 l 524 236 q 509 126 524 168 q 467 57 494 85 q 389 10 436 26 q 265 -6 342 -6 m 204 438 l 326 438 l 326 522 q 322 560 326 547 q 310 581 318 572 q 265 597 293 597 q 221 581 238 597 q 208 560 213 572 q 204 522 204 547 l 204 438 m 131 819 l 60 981 l 236 981 l 274 888 l 311 981 l 471 981 l 403 819 l 131 819 z "},"Ĝ":{"ha":614,"x_min":7,"x_max":607,"o":"m 217 -11 q 127 3 165 -11 q 63 43 89 17 q 22 110 36 69 q 7 217 7 151 l 7 717 q 24 835 7 789 q 72 913 40 881 q 165 967 108 949 q 307 986 221 986 q 449 967 393 986 q 542 913 506 949 q 590 835 574 881 q 607 717 607 789 l 607 635 l 382 635 l 382 744 q 376 788 382 772 q 363 813 371 804 q 307 833 346 833 q 251 813 272 833 q 238 788 243 804 q 232 744 232 772 l 232 244 q 238 201 232 217 q 251 176 243 185 q 276 161 263 167 q 307 156 290 156 q 363 176 342 156 q 376 201 371 185 q 382 244 382 217 l 382 360 l 296 360 l 296 532 l 607 532 l 607 0 l 382 0 l 382 56 q 308 4 351 19 q 217 -11 265 -11 m 94 1033 l 163 1172 l 449 1172 l 519 1033 l 342 1033 l 304 1114 l 267 1033 l 94 1033 z "},"ĝ":{"ha":531,"x_min":7,"x_max":524,"o":"m 265 -233 q 142 -217 189 -233 q 64 -171 94 -201 q 22 -105 38 -144 q 7 -6 7 -65 l 7 0 l 204 0 l 204 -11 q 208 -49 204 -36 q 221 -69 213 -61 q 265 -86 238 -86 q 310 -69 293 -86 q 322 -49 318 -61 q 326 -11 326 -36 l 326 107 q 266 60 303 75 q 186 44 229 44 q 58 92 106 44 q 20 156 33 117 q 7 258 7 194 l 7 536 q 20 639 7 600 q 58 703 33 678 q 186 750 106 750 q 326 689 278 750 l 326 739 l 524 739 l 524 8 q 509 -101 524 -60 q 467 -171 494 -143 q 389 -217 436 -201 q 265 -233 342 -233 m 265 211 q 310 228 293 211 q 322 249 318 236 q 326 286 326 261 l 326 508 q 322 546 326 533 q 310 567 318 558 q 265 583 293 583 q 221 567 238 583 q 208 546 213 558 q 204 508 204 533 l 204 286 q 208 249 204 261 q 221 228 213 236 q 265 211 238 211 m 60 819 l 128 981 l 400 981 l 471 819 l 294 819 l 257 913 l 219 819 l 60 819 z "},"Ğ":{"ha":614,"x_min":7,"x_max":607,"o":"m 217 -11 q 127 3 165 -11 q 63 43 89 17 q 22 110 36 69 q 7 217 7 151 l 7 717 q 24 835 7 789 q 72 913 40 881 q 165 967 108 949 q 307 986 221 986 q 449 967 393 986 q 542 913 506 949 q 590 835 574 881 q 607 717 607 789 l 607 635 l 382 635 l 382 744 q 376 788 382 772 q 363 813 371 804 q 307 833 346 833 q 251 813 272 833 q 238 788 243 804 q 232 744 232 772 l 232 244 q 238 201 232 217 q 251 176 243 185 q 276 161 263 167 q 307 156 290 156 q 363 176 342 156 q 376 201 371 185 q 382 244 382 217 l 382 360 l 296 360 l 296 532 l 607 532 l 607 0 l 382 0 l 382 56 q 308 4 351 19 q 217 -11 265 -11 m 300 1028 q 154 1065 207 1028 q 100 1172 101 1103 l 260 1172 q 307 1140 263 1140 q 354 1172 351 1140 l 514 1172 q 456 1065 513 1101 q 300 1028 399 1028 z "},"ğ":{"ha":531,"x_min":7,"x_max":524,"o":"m 265 -233 q 142 -217 189 -233 q 64 -171 94 -201 q 22 -105 38 -144 q 7 -6 7 -65 l 7 0 l 204 0 l 204 -11 q 208 -49 204 -36 q 221 -69 213 -61 q 265 -86 238 -86 q 310 -69 293 -86 q 322 -49 318 -61 q 326 -11 326 -36 l 326 107 q 266 60 303 75 q 186 44 229 44 q 58 92 106 44 q 20 156 33 117 q 7 258 7 194 l 7 536 q 20 639 7 600 q 58 703 33 678 q 186 750 106 750 q 326 689 278 750 l 326 739 l 524 739 l 524 8 q 509 -101 524 -60 q 467 -171 494 -143 q 389 -217 436 -201 q 265 -233 342 -233 m 265 211 q 310 228 293 211 q 322 249 318 236 q 326 286 326 261 l 326 508 q 322 546 326 533 q 310 567 318 558 q 265 583 293 583 q 221 567 238 583 q 208 546 213 558 q 204 508 204 533 l 204 286 q 208 249 204 261 q 221 228 213 236 q 265 211 238 211 m 265 814 q 119 857 172 814 q 65 981 67 900 l 218 981 q 265 936 221 936 q 313 981 310 936 l 465 981 q 410 856 464 899 q 265 814 357 814 z "},"Ġ":{"ha":614,"x_min":7,"x_max":607,"o":"m 217 -11 q 127 3 165 -11 q 63 43 89 17 q 22 110 36 69 q 7 217 7 151 l 7 717 q 24 835 7 789 q 72 913 40 881 q 165 967 108 949 q 307 986 221 986 q 449 967 393 986 q 542 913 506 949 q 590 835 574 881 q 607 717 607 789 l 607 635 l 382 635 l 382 744 q 376 788 382 772 q 363 813 371 804 q 307 833 346 833 q 251 813 272 833 q 238 788 243 804 q 232 744 232 772 l 232 244 q 238 201 232 217 q 251 176 243 185 q 276 161 263 167 q 307 156 290 156 q 363 176 342 156 q 376 201 371 185 q 382 244 382 217 l 382 360 l 296 360 l 296 532 l 607 532 l 607 0 l 382 0 l 382 56 q 308 4 351 19 q 217 -11 265 -11 m 201 1033 l 201 1172 l 413 1172 l 413 1033 l 201 1033 z "},"ġ":{"ha":531,"x_min":7,"x_max":524,"o":"m 265 -233 q 142 -217 189 -233 q 64 -171 94 -201 q 22 -105 38 -144 q 7 -6 7 -65 l 7 0 l 204 0 l 204 -11 q 208 -49 204 -36 q 221 -69 213 -61 q 265 -86 238 -86 q 310 -69 293 -86 q 322 -49 318 -61 q 326 -11 326 -36 l 326 107 q 266 60 303 75 q 186 44 229 44 q 58 92 106 44 q 20 156 33 117 q 7 258 7 194 l 7 536 q 20 639 7 600 q 58 703 33 678 q 186 750 106 750 q 326 689 278 750 l 326 739 l 524 739 l 524 8 q 509 -101 524 -60 q 467 -171 494 -143 q 389 -217 436 -201 q 265 -233 342 -233 m 265 211 q 310 228 293 211 q 322 249 318 236 q 326 286 326 261 l 326 508 q 322 546 326 533 q 310 567 318 558 q 265 583 293 583 q 221 567 238 583 q 208 546 213 558 q 204 508 204 533 l 204 286 q 208 249 204 261 q 221 228 213 236 q 265 211 238 211 m 167 819 l 167 981 l 364 981 l 364 819 l 167 819 z "},"Ģ":{"ha":614,"x_min":7,"x_max":607,"o":"m 217 -11 q 127 3 165 -11 q 63 43 89 17 q 22 110 36 69 q 7 217 7 151 l 7 717 q 24 835 7 789 q 72 913 40 881 q 165 967 108 949 q 307 986 221 986 q 449 967 393 986 q 542 913 506 949 q 590 835 574 881 q 607 717 607 789 l 607 635 l 382 635 l 382 744 q 376 788 382 772 q 363 813 371 804 q 307 833 346 833 q 251 813 272 833 q 238 788 243 804 q 232 744 232 772 l 232 244 q 238 201 232 217 q 251 176 243 185 q 276 161 263 167 q 307 156 290 156 q 363 176 342 156 q 376 201 371 185 q 382 244 382 217 l 382 360 l 296 360 l 296 532 l 607 532 l 607 0 l 382 0 l 382 56 q 308 4 351 19 q 217 -11 265 -11 m 164 -214 l 189 -53 l 425 -53 l 340 -214 l 164 -214 z "},"ģ":{"ha":531,"x_min":7,"x_max":524,"o":"m 265 -233 q 142 -217 189 -233 q 64 -171 94 -201 q 22 -105 38 -144 q 7 -6 7 -65 l 7 0 l 204 0 l 204 -11 q 208 -49 204 -36 q 221 -69 213 -61 q 265 -86 238 -86 q 310 -69 293 -86 q 322 -49 318 -61 q 326 -11 326 -36 l 326 107 q 266 60 303 75 q 186 44 229 44 q 58 92 106 44 q 20 156 33 117 q 7 258 7 194 l 7 536 q 20 639 7 600 q 58 703 33 678 q 186 750 106 750 q 326 689 278 750 l 326 739 l 524 739 l 524 8 q 509 -101 524 -60 q 467 -171 494 -143 q 389 -217 436 -201 q 265 -233 342 -233 m 265 211 q 310 228 293 211 q 322 249 318 236 q 326 286 326 261 l 326 508 q 322 546 326 533 q 310 567 318 558 q 265 583 293 583 q 221 567 238 583 q 208 546 213 558 q 204 508 204 533 l 204 286 q 208 249 204 261 q 221 228 213 236 q 265 211 238 211 m 154 819 l 239 981 l 401 981 l 376 819 l 154 819 z "},"Ĥ":{"ha":606,"x_min":7,"x_max":599,"o":"m 7 0 l 7 981 l 232 981 l 232 596 l 374 596 l 374 981 l 599 981 l 599 0 l 374 0 l 374 413 l 232 413 l 232 0 l 7 0 m 90 1033 l 158 1172 l 444 1172 l 515 1033 l 338 1033 l 300 1114 l 263 1033 l 90 1033 z "},"ĥ":{"ha":531,"x_min":-107,"x_max":524,"o":"m 7 0 l 7 981 l 204 981 l 204 689 q 266 735 229 719 q 344 750 303 750 q 472 703 425 750 q 510 639 497 678 q 524 536 524 600 l 524 0 l 326 0 l 326 508 q 322 546 326 533 q 310 567 318 558 q 265 583 293 583 q 221 567 238 583 q 208 546 213 558 q 204 508 204 533 l 204 0 l 7 0 m -107 1033 l -39 1172 l 247 1172 l 318 1033 l 140 1033 l 103 1114 l 65 1033 l -107 1033 z "},"Ħ":{"ha":725,"x_min":7,"x_max":718,"o":"m 67 0 l 67 981 l 292 981 l 292 596 l 433 596 l 433 981 l 658 981 l 658 0 l 433 0 l 433 413 l 292 413 l 292 0 l 67 0 m 7 710 l 7 865 l 718 865 l 718 710 l 7 710 z "},"ħ":{"ha":531,"x_min":-60,"x_max":524,"o":"m 7 0 l 7 779 l -60 779 l -60 935 l 7 935 l 7 981 l 204 981 l 204 935 l 299 935 l 299 779 l 204 779 l 204 689 q 266 735 229 721 q 344 750 303 750 q 472 703 425 750 q 510 640 497 678 q 524 536 524 601 l 524 0 l 326 0 l 326 508 q 322 546 326 533 q 310 567 318 558 q 265 583 293 583 q 221 567 238 583 q 208 546 213 558 q 204 508 204 533 l 204 0 l 7 0 z "},"Ĩ":{"ha":239,"x_min":-72,"x_max":311,"o":"m 7 0 l 7 981 l 232 981 l 232 0 l 7 0 m 174 1024 q 130 1031 147 1024 q 99 1044 113 1038 q 80 1056 89 1051 q 63 1060 71 1060 q 41 1051 49 1060 q 33 1028 33 1042 l -72 1028 l -72 1074 q -35 1167 -72 1132 q 65 1203 1 1203 q 105 1197 89 1203 q 133 1185 121 1192 q 157 1172 147 1178 q 176 1165 167 1165 q 206 1197 206 1165 l 311 1197 l 311 1153 q 275 1059 311 1094 q 174 1024 239 1024 z "},"ĩ":{"ha":211,"x_min":-86,"x_max":297,"o":"m 7 0 l 7 739 l 204 739 l 204 0 l 7 0 m 160 813 q 116 818 133 813 q 85 833 99 824 q 49 849 63 849 q 27 840 35 849 q 19 817 19 831 l -86 817 l -86 857 q -49 951 -86 915 q 51 986 -12 986 q 91 981 75 986 q 119 968 107 975 q 143 955 133 961 q 163 949 153 949 q 192 981 192 949 l 192 982 l 297 982 l 297 942 q 261 848 297 883 q 160 813 225 813 z "},"Ī":{"ha":239,"x_min":-78,"x_max":317,"o":"m 7 0 l 7 981 l 232 981 l 232 0 l 7 0 m -78 1033 l -78 1175 l 317 1175 l 317 1033 l -78 1033 z "},"ī":{"ha":211,"x_min":-92,"x_max":303,"o":"m 7 0 l 7 739 l 204 739 l 204 0 l 7 0 m -92 839 l -92 981 l 303 981 l 303 839 l -92 839 z "},"Ĭ":{"ha":239,"x_min":-87,"x_max":326,"o":"m 7 0 l 7 981 l 232 981 l 232 0 l 7 0 m 113 1028 q -33 1065 19 1028 q -87 1172 -86 1103 l 72 1172 q 119 1140 75 1140 q 167 1172 164 1140 l 326 1172 q 268 1065 325 1101 q 113 1028 211 1028 z "},"ĭ":{"ha":211,"x_min":-94,"x_max":306,"o":"m 7 0 l 7 739 l 204 739 l 204 0 l 7 0 m 106 814 q -40 857 13 814 q -94 981 -93 900 l 58 981 q 106 936 61 936 q 153 981 150 936 l 306 981 q 251 856 304 899 q 106 814 197 814 z "},"Į":{"ha":239,"x_min":7,"x_max":232,"o":"m 7 0 l 7 981 l 232 981 l 232 0 l 7 0 m 164 -242 q 66 -210 108 -242 q 24 -114 24 -179 q 65 -23 24 -61 q 167 36 107 15 l 232 0 q 186 -32 201 -12 q 171 -71 171 -51 q 218 -119 171 -119 l 232 -119 l 232 -242 l 164 -242 z "},"į":{"ha":211,"x_min":3,"x_max":204,"o":"m 7 0 l 7 739 l 204 739 l 204 0 l 7 0 m 7 821 l 7 981 l 204 981 l 204 821 l 7 821 m 133 -242 q 42 -210 82 -242 q 3 -114 3 -179 q 42 -23 3 -61 q 139 36 82 15 l 204 0 q 158 -32 174 -12 q 143 -71 143 -51 q 190 -119 143 -119 l 204 -119 l 204 -242 l 133 -242 z "},"İ":{"ha":239,"x_min":7,"x_max":232,"o":"m 7 0 l 7 981 l 232 981 l 232 0 l 7 0 m 14 1033 l 14 1172 l 225 1172 l 225 1033 l 14 1033 z "},"ı":{"ha":211,"x_min":7,"x_max":204,"o":"m 7 0 l 7 739 l 204 739 l 204 0 l 7 0 z "},"Ĳ":{"ha":586,"x_min":7,"x_max":579,"o":"m 293 -6 q 166 10 221 -6 q 75 61 111 26 q 24 144 42 93 q 7 264 7 194 l 7 378 l 232 378 l 232 222 q 236 185 232 199 q 249 164 240 172 q 293 147 265 147 q 317 151 307 147 q 338 164 328 156 q 350 184 346 171 q 354 222 354 197 l 354 981 l 579 981 l 579 264 q 563 144 579 194 q 511 61 546 93 q 422 10 476 26 q 293 -6 367 -6 m 7 438 l 7 981 l 232 981 l 232 438 l 7 438 z "},"ĳ":{"ha":422,"x_min":7,"x_max":415,"o":"m 7 0 l 7 739 l 204 739 l 204 0 l 7 0 m 7 821 l 7 981 l 204 981 l 204 821 l 7 821 m 110 -228 l 110 -67 l 181 -67 q 218 -29 218 -67 l 218 739 l 415 739 l 415 -83 q 406 -147 415 -122 q 379 -189 397 -172 q 330 -217 360 -207 q 254 -228 300 -228 l 110 -228 m 218 821 l 218 981 l 415 981 l 415 821 l 218 821 z "},"Ĵ":{"ha":572,"x_min":7,"x_max":665,"o":"m 286 -6 q 157 13 207 -6 q 72 63 107 31 q 24 141 42 93 q 7 264 7 189 l 7 378 l 218 378 l 218 222 q 222 185 218 199 q 235 164 226 172 q 279 147 251 147 q 324 164 306 147 q 336 184 332 171 q 340 222 340 197 l 340 981 l 565 981 l 565 264 q 549 142 565 189 q 501 64 532 94 q 418 13 469 31 q 286 -6 367 -6 m 240 1033 l 308 1172 l 594 1172 l 665 1033 l 488 1033 l 450 1114 l 413 1033 l 240 1033 z "},"ĵ":{"ha":211,"x_min":-101,"x_max":311,"o":"m -101 -228 l -101 -67 l -31 -67 q 7 -29 7 -67 l 7 739 l 204 739 l 204 -83 q 195 -147 204 -122 q 168 -189 186 -172 q 119 -217 149 -207 q 43 -228 89 -228 l -101 -228 m -100 819 l -32 981 l 240 981 l 311 819 l 135 819 l 97 913 l 60 819 l -100 819 z "},"Ķ":{"ha":617,"x_min":7,"x_max":617,"o":"m 7 0 l 7 981 l 232 981 l 232 601 l 390 981 l 611 981 l 418 544 l 617 0 l 379 0 l 232 432 l 232 0 l 7 0 m 165 -214 l 190 -53 l 426 -53 l 342 -214 l 165 -214 z "},"ķ":{"ha":546,"x_min":7,"x_max":546,"o":"m 7 0 l 7 981 l 204 981 l 204 443 l 339 739 l 540 739 l 371 397 l 546 0 l 332 0 l 204 304 l 204 0 l 7 0 m 138 -228 l 163 -67 l 385 -67 l 300 -228 l 138 -228 z "},"ĸ":{"ha":546,"x_min":7,"x_max":546,"o":"m 7 0 l 7 739 l 204 739 l 204 443 l 339 739 l 540 739 l 371 397 l 546 0 l 332 0 l 204 304 l 204 0 l 7 0 z "},"Ĺ":{"ha":522,"x_min":7,"x_max":515,"o":"m 7 0 l 7 981 l 232 981 l 232 183 l 515 183 l 515 0 l 7 0 m 31 1033 l 56 1172 l 292 1172 l 207 1033 l 31 1033 z "},"ĺ":{"ha":211,"x_min":7,"x_max":278,"o":"m 7 0 l 7 981 l 204 981 l 204 0 l 7 0 m 17 1033 l 42 1172 l 278 1172 l 193 1033 l 17 1033 z "},"Ļ":{"ha":522,"x_min":7,"x_max":515,"o":"m 7 0 l 7 981 l 232 981 l 232 183 l 515 183 l 515 0 l 7 0 m 118 -214 l 143 -53 l 379 -53 l 294 -214 l 118 -214 z "},"ļ":{"ha":211,"x_min":-31,"x_max":217,"o":"m 7 0 l 7 981 l 204 981 l 204 0 l 7 0 m -31 -228 l -6 -67 l 217 -67 l 132 -228 l -31 -228 z "},"Ľ":{"ha":522,"x_min":7,"x_max":515,"o":"m 7 0 l 7 981 l 232 981 l 232 183 l 515 183 l 515 0 l 7 0 m 246 797 l 246 981 l 474 981 l 422 797 l 246 797 z "},"ľ":{"ha":211,"x_min":7,"x_max":432,"o":"m 7 0 l 7 981 l 204 981 l 204 0 l 7 0 m 218 797 l 218 981 l 432 981 l 381 797 l 218 797 z "},"Ŀ":{"ha":522,"x_min":7,"x_max":515,"o":"m 275 422 l 275 615 l 486 615 l 486 422 l 275 422 m 7 0 l 7 981 l 232 981 l 232 183 l 515 183 l 515 0 l 7 0 z "},"ŀ":{"ha":436,"x_min":7,"x_max":429,"o":"m 7 0 l 7 981 l 204 981 l 204 0 l 7 0 m 218 328 l 218 521 l 429 521 l 429 328 l 218 328 z "},"Ł":{"ha":522,"x_min":-65,"x_max":515,"o":"m 7 0 l 7 981 l 232 981 l 232 183 l 515 183 l 515 0 l 7 0 m -65 297 l -65 472 l 388 710 l 388 535 l -65 297 z "},"ł":{"ha":372,"x_min":7,"x_max":365,"o":"m 88 0 l 88 981 l 285 981 l 285 0 l 88 0 m 7 376 l 7 551 l 365 739 l 365 564 l 7 376 z "},"Ń":{"ha":639,"x_min":7,"x_max":632,"o":"m 7 0 l 7 981 l 285 981 l 435 481 l 435 981 l 632 981 l 632 0 l 382 0 l 204 575 l 204 0 l 7 0 m 231 1033 l 256 1172 l 492 1172 l 407 1033 l 231 1033 z "},"ń":{"ha":531,"x_min":7,"x_max":524,"o":"m 7 0 l 7 739 l 204 739 l 204 689 q 266 735 229 721 q 344 750 303 750 q 472 703 425 750 q 510 640 497 678 q 524 536 524 601 l 524 0 l 326 0 l 326 508 q 322 546 326 533 q 310 567 318 558 q 265 583 293 583 q 221 567 238 583 q 208 546 213 558 q 204 508 204 533 l 204 0 l 7 0 m 183 819 l 208 981 l 431 981 l 346 819 l 183 819 z "},"Ņ":{"ha":639,"x_min":7,"x_max":632,"o":"m 7 0 l 7 981 l 285 981 l 435 481 l 435 981 l 632 981 l 632 0 l 382 0 l 204 575 l 204 0 l 7 0 m 176 -214 l 201 -53 l 438 -53 l 353 -214 l 176 -214 z "},"ņ":{"ha":531,"x_min":7,"x_max":524,"o":"m 7 0 l 7 739 l 204 739 l 204 689 q 266 735 229 721 q 344 750 303 750 q 472 703 425 750 q 510 640 497 678 q 524 536 524 601 l 524 0 l 326 0 l 326 508 q 322 546 326 533 q 310 567 318 558 q 265 583 293 583 q 221 567 238 583 q 208 546 213 558 q 204 508 204 533 l 204 0 l 7 0 m 129 -228 l 154 -67 l 376 -67 l 292 -228 l 129 -228 z "},"Ň":{"ha":639,"x_min":7,"x_max":632,"o":"m 7 0 l 7 981 l 285 981 l 435 481 l 435 981 l 632 981 l 632 0 l 382 0 l 204 575 l 204 0 l 7 0 m 178 1033 l 107 1172 l 286 1172 l 324 1090 l 361 1172 l 532 1172 l 464 1033 l 178 1033 z "},"ň":{"ha":531,"x_min":7,"x_max":524,"o":"m 7 0 l 7 739 l 204 739 l 204 689 q 266 735 229 721 q 344 750 303 750 q 472 703 425 750 q 510 640 497 678 q 524 536 524 601 l 524 0 l 326 0 l 326 508 q 322 546 326 533 q 310 567 318 558 q 265 583 293 583 q 221 567 238 583 q 208 546 213 558 q 204 508 204 533 l 204 0 l 7 0 m 131 819 l 60 981 l 236 981 l 274 888 l 311 981 l 471 981 l 403 819 l 131 819 z "},"Ŋ":{"ha":639,"x_min":7,"x_max":632,"o":"m 326 -228 l 326 -67 l 397 -67 q 435 -29 435 -67 l 435 0 l 204 558 l 204 0 l 7 0 l 7 981 l 249 981 l 435 515 l 435 981 l 632 981 l 632 -83 q 623 -147 632 -122 q 596 -189 614 -172 q 547 -217 576 -207 q 471 -228 517 -228 l 326 -228 z "},"ŋ":{"ha":531,"x_min":7,"x_max":524,"o":"m 218 -228 l 218 -67 l 289 -67 q 326 -29 326 -67 l 326 508 q 322 546 326 533 q 310 567 318 558 q 265 583 293 583 q 221 567 238 583 q 208 546 213 558 q 204 508 204 533 l 204 0 l 7 0 l 7 739 l 204 739 l 204 689 q 266 735 229 721 q 344 750 303 750 q 417 738 385 750 q 472 703 450 726 q 510 640 497 678 q 524 536 524 601 l 524 -83 q 515 -147 524 -122 q 488 -189 506 -172 q 438 -217 468 -207 q 363 -228 408 -228 l 218 -228 z "},"Ō":{"ha":614,"x_min":7,"x_max":607,"o":"m 307 -6 q 165 13 221 -6 q 72 68 108 32 q 24 146 40 100 q 7 264 7 192 l 7 717 q 24 835 7 789 q 72 913 40 881 q 165 967 108 949 q 307 986 221 986 q 449 967 393 986 q 542 913 506 949 q 590 835 574 881 q 607 717 607 789 l 607 264 q 590 146 607 192 q 542 68 574 100 q 449 13 506 32 q 307 -6 393 -6 m 307 147 q 363 168 342 147 q 376 192 371 176 q 382 236 382 208 l 382 744 q 376 788 382 772 q 363 813 371 804 q 307 833 342 833 q 251 813 272 833 q 238 788 243 804 q 232 744 232 772 l 232 236 q 238 192 232 208 q 251 168 243 176 q 307 147 272 147 m 110 1033 l 110 1175 l 504 1175 l 504 1033 l 110 1033 z "},"ō":{"ha":531,"x_min":7,"x_max":524,"o":"m 265 -6 q 142 10 189 -6 q 64 57 94 26 q 22 126 38 85 q 7 236 7 168 l 7 503 q 22 613 7 571 q 64 682 38 656 q 142 728 94 713 q 265 744 189 744 q 390 728 343 744 q 467 682 436 713 q 509 613 494 656 q 524 503 524 571 l 524 236 q 509 126 524 168 q 467 57 494 85 q 390 10 436 26 q 265 -6 343 -6 m 265 142 q 310 158 293 142 q 322 179 318 167 q 326 217 326 192 l 326 522 q 322 560 326 547 q 310 581 318 572 q 265 597 293 597 q 221 581 238 597 q 208 560 213 572 q 204 522 204 547 l 204 217 q 208 179 204 192 q 221 158 213 167 q 265 142 238 142 m 68 839 l 68 981 l 463 981 l 463 839 l 68 839 z "},"Ŏ":{"ha":614,"x_min":7,"x_max":607,"o":"m 307 -6 q 165 13 221 -6 q 72 68 108 32 q 24 146 40 100 q 7 264 7 192 l 7 717 q 24 835 7 789 q 72 913 40 881 q 165 967 108 949 q 307 986 221 986 q 449 967 393 986 q 542 913 506 949 q 590 835 574 881 q 607 717 607 789 l 607 264 q 590 146 607 192 q 542 68 574 100 q 449 13 506 32 q 307 -6 393 -6 m 307 147 q 363 168 342 147 q 376 192 371 176 q 382 236 382 208 l 382 744 q 376 788 382 772 q 363 813 371 804 q 307 833 342 833 q 251 813 272 833 q 238 788 243 804 q 232 744 232 772 l 232 236 q 238 192 232 208 q 251 168 243 176 q 307 147 272 147 m 300 1028 q 154 1065 207 1028 q 100 1172 101 1103 l 260 1172 q 307 1140 263 1140 q 354 1172 351 1140 l 514 1172 q 456 1065 513 1101 q 300 1028 399 1028 z "},"ŏ":{"ha":531,"x_min":7,"x_max":524,"o":"m 265 -6 q 142 10 189 -6 q 64 57 94 26 q 22 126 38 85 q 7 236 7 168 l 7 503 q 22 613 7 571 q 64 682 38 656 q 142 728 94 713 q 265 744 189 744 q 390 728 343 744 q 467 682 436 713 q 509 613 494 656 q 524 503 524 571 l 524 236 q 509 126 524 168 q 467 57 494 85 q 390 10 436 26 q 265 -6 343 -6 m 265 142 q 310 158 293 142 q 322 179 318 167 q 326 217 326 192 l 326 522 q 322 560 326 547 q 310 581 318 572 q 265 597 293 597 q 221 581 238 597 q 208 560 213 572 q 204 522 204 547 l 204 217 q 208 179 204 192 q 221 158 213 167 q 265 142 238 142 m 265 814 q 119 857 172 814 q 65 981 67 900 l 218 981 q 265 936 221 936 q 313 981 310 936 l 465 981 q 410 856 464 899 q 265 814 357 814 z "},"Ő":{"ha":614,"x_min":7,"x_max":607,"o":"m 307 -6 q 165 13 221 -6 q 72 68 108 32 q 24 146 40 100 q 7 264 7 192 l 7 717 q 24 835 7 789 q 72 913 40 881 q 165 967 108 949 q 307 986 221 986 q 449 967 393 986 q 542 913 506 949 q 590 835 574 881 q 607 717 607 789 l 607 264 q 590 146 607 192 q 542 68 574 100 q 449 13 506 32 q 307 -6 393 -6 m 307 147 q 363 168 342 147 q 376 192 371 176 q 382 236 382 208 l 382 744 q 376 788 382 772 q 363 813 371 804 q 307 833 342 833 q 251 813 272 833 q 238 788 243 804 q 232 744 232 772 l 232 236 q 238 192 232 208 q 251 168 243 176 q 307 147 272 147 m 113 1033 l 126 1172 l 340 1172 l 282 1033 l 113 1033 m 332 1033 l 389 1172 l 603 1172 l 501 1033 l 332 1033 z "},"ő":{"ha":531,"x_min":7,"x_max":554,"o":"m 265 -6 q 142 10 189 -6 q 64 57 94 26 q 22 126 38 85 q 7 236 7 168 l 7 503 q 22 613 7 571 q 64 682 38 656 q 142 728 94 713 q 265 744 189 744 q 390 728 343 744 q 467 682 436 713 q 509 613 494 656 q 524 503 524 571 l 524 236 q 509 126 524 168 q 467 57 494 85 q 390 10 436 26 q 265 -6 343 -6 m 265 142 q 310 158 293 142 q 322 179 318 167 q 326 217 326 192 l 326 522 q 322 560 326 547 q 310 581 318 572 q 265 597 293 597 q 221 581 238 597 q 208 560 213 572 q 204 522 204 547 l 204 217 q 208 179 204 192 q 221 158 213 167 q 265 142 238 142 m 78 819 l 92 981 l 299 981 l 240 819 l 78 819 m 290 819 l 347 981 l 554 981 l 453 819 l 290 819 z "},"Œ":{"ha":856,"x_min":7,"x_max":849,"o":"m 321 0 q 166 19 224 0 q 72 74 108 39 q 24 151 42 106 q 7 269 7 197 l 7 711 q 24 830 7 783 q 72 907 42 876 q 166 962 108 943 q 321 981 224 981 l 849 981 l 849 797 l 607 797 l 607 596 l 849 596 l 849 413 l 607 413 l 607 183 l 849 183 l 849 0 l 321 0 m 321 167 l 382 167 l 382 814 l 321 814 q 278 808 294 814 q 251 793 261 803 q 238 769 243 785 q 232 725 232 753 l 232 256 q 238 212 232 228 q 251 188 243 196 q 278 172 261 178 q 321 167 294 167 z "},"œ":{"ha":850,"x_min":7,"x_max":843,"o":"m 258 -6 q 140 10 186 -6 q 64 57 94 26 q 22 126 36 83 q 7 236 7 168 l 7 503 q 22 613 7 571 q 64 682 36 656 q 141 728 94 713 q 263 744 188 744 q 358 733 319 744 q 425 699 397 722 q 492 733 453 722 q 588 744 531 744 q 709 728 663 744 q 786 682 756 713 q 828 605 814 656 q 843 486 843 554 l 843 311 l 524 311 l 524 217 q 528 179 524 192 q 540 158 532 167 q 585 142 557 142 q 629 158 613 142 q 642 179 638 167 q 646 217 646 192 l 646 278 l 843 278 l 843 236 q 828 126 843 168 q 786 57 814 83 q 709 10 756 26 q 589 -6 663 -6 q 488 7 529 -6 q 418 42 447 19 q 349 6 389 18 q 258 -6 310 -6 m 524 439 l 646 439 l 646 522 q 642 560 646 547 q 629 581 638 572 q 585 597 613 597 q 540 581 557 597 q 528 560 532 572 q 524 522 524 547 l 524 439 m 265 142 q 310 158 293 142 q 322 179 318 167 q 326 217 326 192 l 326 522 q 322 560 326 547 q 310 581 318 572 q 265 597 293 597 q 221 581 238 597 q 208 560 213 572 q 204 522 204 547 l 204 217 q 208 179 204 192 q 221 158 213 167 q 265 142 238 142 z "},"Ŕ":{"ha":614,"x_min":7,"x_max":607,"o":"m 7 0 l 7 981 l 376 981 q 485 967 444 981 q 553 925 525 953 q 593 859 579 899 q 607 753 607 819 l 607 696 q 593 590 607 629 q 553 524 579 550 q 523 499 539 510 q 486 483 507 489 q 582 408 549 461 q 601 358 594 388 q 607 279 607 329 l 607 0 l 382 0 l 382 300 q 376 344 382 328 q 363 368 371 360 q 336 383 353 378 q 293 389 319 389 l 232 389 l 232 0 l 7 0 m 232 572 l 293 572 q 363 593 349 572 q 376 622 371 603 q 382 672 382 640 l 382 708 q 376 752 382 736 q 363 776 371 768 q 336 792 353 786 q 293 797 319 797 l 232 797 l 232 572 m 218 1033 l 243 1172 l 479 1172 l 394 1033 l 218 1033 z "},"ŕ":{"ha":489,"x_min":7,"x_max":482,"o":"m 7 0 l 7 739 l 204 739 l 204 696 q 333 750 250 750 q 440 710 400 750 q 471 658 460 690 q 482 571 482 625 l 482 471 l 304 471 l 304 526 q 301 552 304 543 q 292 568 297 561 q 254 583 279 583 q 217 568 229 583 q 208 552 211 561 q 204 526 204 543 l 204 0 l 7 0 m 163 819 l 188 981 l 410 981 l 325 819 l 163 819 z "},"Ŗ":{"ha":614,"x_min":7,"x_max":607,"o":"m 7 0 l 7 981 l 376 981 q 485 967 444 981 q 553 925 525 953 q 593 859 579 899 q 607 753 607 819 l 607 696 q 593 590 607 629 q 553 524 579 550 q 523 499 539 510 q 486 483 507 489 q 582 408 549 461 q 601 358 594 388 q 607 279 607 329 l 607 0 l 382 0 l 382 300 q 376 344 382 328 q 363 368 371 360 q 336 383 353 378 q 293 389 319 389 l 232 389 l 232 0 l 7 0 m 232 572 l 293 572 q 363 593 349 572 q 376 622 371 603 q 382 672 382 640 l 382 708 q 376 752 382 736 q 363 776 371 768 q 336 792 353 786 q 293 797 319 797 l 232 797 l 232 572 m 164 -214 l 189 -53 l 425 -53 l 340 -214 l 164 -214 z "},"ŗ":{"ha":489,"x_min":-31,"x_max":482,"o":"m 7 0 l 7 739 l 204 739 l 204 696 q 333 750 250 750 q 440 710 400 750 q 471 658 460 690 q 482 571 482 625 l 482 471 l 304 471 l 304 526 q 301 552 304 543 q 292 568 297 561 q 254 583 279 583 q 217 568 229 583 q 208 552 211 561 q 204 526 204 543 l 204 0 l 7 0 m -31 -228 l -6 -67 l 217 -67 l 132 -228 l -31 -228 z "},"Ř":{"ha":614,"x_min":7,"x_max":607,"o":"m 7 0 l 7 981 l 376 981 q 485 967 444 981 q 553 925 525 953 q 593 859 579 899 q 607 753 607 819 l 607 696 q 593 590 607 629 q 553 524 579 550 q 523 499 539 510 q 486 483 507 489 q 582 408 549 461 q 601 358 594 388 q 607 279 607 329 l 607 0 l 382 0 l 382 300 q 376 344 382 328 q 363 368 371 360 q 336 383 353 378 q 293 389 319 389 l 232 389 l 232 0 l 7 0 m 232 572 l 293 572 q 363 593 349 572 q 376 622 371 603 q 382 672 382 640 l 382 708 q 376 752 382 736 q 363 776 371 768 q 336 792 353 786 q 293 797 319 797 l 232 797 l 232 572 m 165 1033 l 94 1172 l 274 1172 l 311 1090 l 349 1172 l 519 1172 l 451 1033 l 165 1033 z "},"ř":{"ha":489,"x_min":7,"x_max":482,"o":"m 7 0 l 7 739 l 204 739 l 204 696 q 333 750 250 750 q 440 710 400 750 q 471 658 460 690 q 482 571 482 625 l 482 471 l 304 471 l 304 526 q 301 552 304 543 q 292 568 297 561 q 254 583 279 583 q 217 568 229 583 q 208 552 211 561 q 204 526 204 543 l 204 0 l 7 0 m 110 819 l 39 981 l 215 981 l 253 888 l 290 981 l 450 981 l 382 819 l 110 819 z "},"Ś":{"ha":614,"x_min":7,"x_max":607,"o":"m 306 -6 q 168 11 225 -6 q 74 63 111 28 q 24 144 40 94 q 7 257 7 193 l 7 378 l 232 378 l 232 243 q 251 185 232 207 q 306 164 271 164 q 360 184 340 164 q 379 239 379 204 q 364 303 379 276 q 317 356 349 329 l 160 479 q 83 553 117 514 q 31 640 50 593 q 13 740 13 686 q 33 846 13 800 q 89 922 54 892 q 183 970 128 954 q 307 986 239 986 q 444 970 389 986 q 533 922 499 954 q 585 845 568 892 q 601 736 601 799 l 601 635 l 376 635 l 376 746 q 360 799 376 781 q 307 817 343 817 q 258 799 276 817 q 240 753 240 782 q 256 701 240 726 q 306 647 271 675 l 469 518 q 542 445 511 486 q 590 357 574 404 q 607 256 607 310 q 587 145 607 193 q 529 64 567 97 q 435 13 490 31 q 306 -6 379 -6 m 215 1033 l 240 1172 l 476 1172 l 392 1033 l 215 1033 z "},"ś":{"ha":531,"x_min":7,"x_max":524,"o":"m 265 -6 q 65 53 124 -6 q 7 232 7 113 l 7 278 l 204 278 l 204 207 q 219 159 204 176 q 265 142 235 142 q 313 160 300 142 q 326 197 326 179 q 308 239 326 222 q 250 279 290 256 l 125 353 q 40 430 67 388 q 13 531 13 472 q 45 655 13 608 q 135 723 78 701 q 265 744 192 744 q 403 722 347 744 q 489 649 460 699 q 518 514 518 599 l 518 471 l 321 471 l 321 529 q 309 577 321 557 q 265 597 297 597 q 223 581 236 597 q 210 546 210 565 q 224 506 210 521 q 267 475 239 492 l 410 389 q 475 336 450 365 q 512 273 500 307 q 524 203 524 239 q 499 96 524 143 q 417 22 474 49 q 265 -6 360 -6 m 178 819 l 203 981 l 425 981 l 340 819 l 178 819 z "},"Ŝ":{"ha":614,"x_min":7,"x_max":607,"o":"m 306 -6 q 168 11 225 -6 q 74 63 111 28 q 24 144 40 94 q 7 257 7 193 l 7 378 l 232 378 l 232 243 q 251 185 232 207 q 306 164 271 164 q 360 184 340 164 q 379 239 379 204 q 364 303 379 276 q 317 356 349 329 l 160 479 q 83 553 117 514 q 31 640 50 593 q 13 740 13 686 q 33 846 13 800 q 89 922 54 892 q 183 970 128 954 q 307 986 239 986 q 444 970 389 986 q 533 922 499 954 q 585 845 568 892 q 601 736 601 799 l 601 635 l 376 635 l 376 746 q 360 799 376 781 q 307 817 343 817 q 258 799 276 817 q 240 753 240 782 q 256 701 240 726 q 306 647 271 675 l 469 518 q 542 445 511 486 q 590 357 574 404 q 607 256 607 310 q 587 145 607 193 q 529 64 567 97 q 435 13 490 31 q 306 -6 379 -6 m 92 1033 l 160 1172 l 446 1172 l 517 1033 l 339 1033 l 301 1114 l 264 1033 l 92 1033 z "},"ŝ":{"ha":531,"x_min":7,"x_max":524,"o":"m 265 -6 q 65 53 124 -6 q 7 232 7 113 l 7 278 l 204 278 l 204 207 q 219 159 204 176 q 265 142 235 142 q 313 160 300 142 q 326 197 326 179 q 308 239 326 222 q 250 279 290 256 l 125 353 q 40 430 67 388 q 13 531 13 472 q 45 655 13 608 q 135 723 78 701 q 265 744 192 744 q 403 722 347 744 q 489 649 460 699 q 518 514 518 599 l 518 471 l 321 471 l 321 529 q 309 577 321 557 q 265 597 297 597 q 223 581 236 597 q 210 546 210 565 q 224 506 210 521 q 267 475 239 492 l 410 389 q 475 336 450 365 q 512 273 500 307 q 524 203 524 239 q 499 96 524 143 q 417 22 474 49 q 265 -6 360 -6 m 54 819 l 122 981 l 394 981 l 465 819 l 289 819 l 251 913 l 214 819 l 54 819 z "},"Ş":{"ha":614,"x_min":7,"x_max":607,"o":"m 306 -6 q 168 11 225 -6 q 74 63 111 28 q 24 144 40 94 q 7 257 7 193 l 7 378 l 232 378 l 232 243 q 251 185 232 207 q 306 164 271 164 q 360 184 340 164 q 379 239 379 204 q 364 303 379 276 q 317 356 349 329 l 160 479 q 83 553 117 514 q 31 640 50 593 q 13 740 13 686 q 33 846 13 800 q 89 922 54 892 q 183 970 128 954 q 307 986 239 986 q 444 970 389 986 q 533 922 499 954 q 585 845 568 892 q 601 736 601 799 l 601 635 l 376 635 l 376 746 q 360 799 376 781 q 307 817 343 817 q 258 799 276 817 q 240 753 240 782 q 256 701 240 726 q 306 647 271 675 l 469 518 q 542 445 511 486 q 590 357 574 404 q 607 256 607 310 q 587 145 607 193 q 529 64 567 97 q 435 13 490 31 q 306 -6 379 -6 m 207 -264 l 207 -181 l 213 -181 q 249 -169 238 -181 q 257 -155 254 -162 q 260 -133 260 -147 l 260 -107 l 207 -107 l 207 21 l 401 21 l 401 -117 q 396 -174 401 -151 q 379 -211 390 -196 q 333 -250 363 -236 q 254 -264 303 -264 l 207 -264 z "},"ş":{"ha":531,"x_min":7,"x_max":524,"o":"m 265 -6 q 65 53 124 -6 q 7 232 7 113 l 7 278 l 204 278 l 204 207 q 219 159 204 176 q 265 142 235 142 q 313 160 300 142 q 326 197 326 179 q 308 239 326 222 q 250 279 290 256 l 125 353 q 40 430 67 388 q 13 531 13 472 q 45 655 13 608 q 135 723 78 701 q 265 744 192 744 q 403 722 347 744 q 489 649 460 699 q 518 514 518 599 l 518 471 l 321 471 l 321 529 q 309 577 321 557 q 265 597 297 597 q 223 581 236 597 q 210 546 210 565 q 224 506 210 521 q 267 475 239 492 l 410 389 q 475 336 450 365 q 512 273 500 307 q 524 203 524 239 q 499 96 524 143 q 417 22 474 49 q 265 -6 360 -6 m 169 -264 l 169 -181 l 175 -181 q 211 -169 200 -181 q 219 -155 217 -162 q 222 -133 222 -147 l 222 -107 l 169 -107 l 169 21 l 350 21 l 350 -117 q 344 -174 350 -151 q 328 -211 339 -196 q 281 -250 311 -236 q 203 -264 251 -264 l 169 -264 z "},"Š":{"ha":614,"x_min":7,"x_max":607,"o":"m 306 -6 q 168 11 225 -6 q 74 63 111 28 q 24 144 40 94 q 7 257 7 193 l 7 378 l 232 378 l 232 243 q 251 185 232 207 q 306 164 271 164 q 360 184 340 164 q 379 239 379 204 q 364 303 379 276 q 317 356 349 329 l 160 479 q 83 553 117 514 q 31 640 50 593 q 13 740 13 686 q 33 846 13 800 q 89 922 54 892 q 183 970 128 954 q 307 986 239 986 q 444 970 389 986 q 533 922 499 954 q 585 845 568 892 q 601 736 601 799 l 601 635 l 376 635 l 376 746 q 360 799 376 781 q 307 817 343 817 q 258 799 276 817 q 240 753 240 782 q 256 701 240 726 q 306 647 271 675 l 469 518 q 542 445 511 486 q 590 357 574 404 q 607 256 607 310 q 587 145 607 193 q 529 64 567 97 q 435 13 490 31 q 306 -6 379 -6 m 163 1033 l 92 1172 l 271 1172 l 308 1090 l 346 1172 l 517 1172 l 449 1033 l 163 1033 z "},"š":{"ha":531,"x_min":7,"x_max":524,"o":"m 265 -6 q 65 53 124 -6 q 7 232 7 113 l 7 278 l 204 278 l 204 207 q 219 159 204 176 q 265 142 235 142 q 313 160 300 142 q 326 197 326 179 q 308 239 326 222 q 250 279 290 256 l 125 353 q 40 430 67 388 q 13 531 13 472 q 45 655 13 608 q 135 723 78 701 q 265 744 192 744 q 403 722 347 744 q 489 649 460 699 q 518 514 518 599 l 518 471 l 321 471 l 321 529 q 309 577 321 557 q 265 597 297 597 q 223 581 236 597 q 210 546 210 565 q 224 506 210 521 q 267 475 239 492 l 410 389 q 475 336 450 365 q 512 273 500 307 q 524 203 524 239 q 499 96 524 143 q 417 22 474 49 q 265 -6 360 -6 m 125 819 l 54 981 l 231 981 l 268 888 l 306 981 l 465 981 l 397 819 l 125 819 z "},"Ţ":{"ha":614,"x_min":7,"x_max":607,"o":"m 194 0 l 194 797 l 7 797 l 7 981 l 607 981 l 607 797 l 419 797 l 419 0 l 194 0 m 210 -264 l 210 -181 l 215 -181 q 251 -169 240 -181 q 260 -155 257 -162 q 263 -133 263 -147 l 263 -107 l 210 -107 l 210 21 l 404 21 l 404 -117 q 399 -174 404 -151 q 382 -211 393 -196 q 335 -250 365 -236 q 257 -264 306 -264 l 210 -264 z "},"ţ":{"ha":372,"x_min":7,"x_max":365,"o":"m 238 0 q 162 10 192 0 q 113 39 132 19 q 85 81 94 56 q 76 144 76 106 l 76 583 l 7 583 l 7 739 l 76 739 l 76 981 l 274 981 l 274 739 l 365 739 l 365 583 l 274 583 l 274 199 q 311 161 274 161 l 365 161 l 365 0 l 238 0 m 147 -264 l 147 -181 l 153 -181 q 189 -169 178 -181 q 197 -155 194 -162 q 200 -133 200 -147 l 200 -107 l 147 -107 l 147 21 l 328 21 l 328 -117 q 322 -174 328 -151 q 306 -211 317 -196 q 259 -250 289 -236 q 181 -264 229 -264 l 147 -264 z "},"Ť":{"ha":614,"x_min":7,"x_max":607,"o":"m 194 0 l 194 797 l 7 797 l 7 981 l 607 981 l 607 797 l 419 797 l 419 0 l 194 0 m 165 1033 l 94 1172 l 274 1172 l 311 1090 l 349 1172 l 519 1172 l 451 1033 l 165 1033 z "},"ť":{"ha":372,"x_min":7,"x_max":501,"o":"m 238 0 q 162 10 192 0 q 113 39 132 19 q 85 81 94 56 q 76 144 76 106 l 76 583 l 7 583 l 7 739 l 76 739 l 76 981 l 274 981 l 274 739 l 365 739 l 365 583 l 274 583 l 274 199 q 311 161 274 161 l 365 161 l 365 0 l 238 0 m 288 797 l 288 981 l 501 981 l 450 797 l 288 797 z "},"Ŧ":{"ha":614,"x_min":7,"x_max":607,"o":"m 194 0 l 194 413 l 89 413 l 89 568 l 194 568 l 194 797 l 7 797 l 7 981 l 607 981 l 607 797 l 419 797 l 419 568 l 525 568 l 525 413 l 419 413 l 419 0 l 194 0 z "},"ŧ":{"ha":372,"x_min":7,"x_max":365,"o":"m 238 0 q 162 10 192 0 q 113 39 132 19 q 85 81 94 56 q 76 144 76 106 l 76 583 l 7 583 l 7 739 l 76 739 l 76 981 l 274 981 l 274 739 l 365 739 l 365 583 l 274 583 l 274 199 q 311 161 274 161 l 365 161 l 365 0 l 238 0 m 7 294 l 7 450 l 365 450 l 365 294 l 7 294 z "},"Ũ":{"ha":614,"x_min":7,"x_max":607,"o":"m 307 -6 q 165 13 221 -6 q 72 68 108 32 q 24 146 40 100 q 7 263 7 192 l 7 981 l 232 981 l 232 236 q 238 192 232 208 q 251 168 243 176 q 276 153 263 158 q 307 147 290 147 q 363 168 342 147 q 376 192 371 176 q 382 236 382 208 l 382 981 l 607 981 l 607 263 q 590 146 607 192 q 542 68 574 100 q 449 13 506 32 q 307 -6 393 -6 m 361 1024 q 317 1031 335 1024 q 286 1044 300 1038 q 267 1056 276 1051 q 250 1060 258 1060 q 228 1051 236 1060 q 221 1028 221 1042 l 115 1028 l 115 1074 q 152 1167 115 1132 q 253 1203 189 1203 q 292 1197 276 1203 q 321 1185 308 1192 q 344 1172 335 1178 q 364 1165 354 1165 q 393 1197 393 1165 l 499 1197 l 499 1153 q 463 1059 499 1094 q 361 1024 426 1024 z "},"ũ":{"ha":531,"x_min":7,"x_max":524,"o":"m 186 -11 q 58 36 106 -11 q 20 100 33 61 q 7 203 7 139 l 7 739 l 204 739 l 204 231 q 208 193 204 206 q 221 172 213 181 q 265 156 238 156 q 310 172 293 156 q 322 193 318 181 q 326 231 326 206 l 326 739 l 524 739 l 524 0 l 326 0 l 326 50 q 265 4 301 19 q 186 -11 228 -11 m 319 813 q 276 818 293 813 q 244 833 258 824 q 208 849 222 849 q 187 840 194 849 q 179 817 179 831 l 74 817 l 74 857 q 110 951 74 915 q 211 986 147 986 q 251 981 235 986 q 279 968 267 975 q 303 955 293 961 q 322 949 313 949 q 351 981 351 949 l 351 982 l 457 982 l 457 942 q 421 848 457 883 q 319 813 385 813 z "},"Ū":{"ha":614,"x_min":7,"x_max":607,"o":"m 307 -6 q 165 13 221 -6 q 72 68 108 32 q 24 146 40 100 q 7 263 7 192 l 7 981 l 232 981 l 232 236 q 238 192 232 208 q 251 168 243 176 q 276 153 263 158 q 307 147 290 147 q 363 168 342 147 q 376 192 371 176 q 382 236 382 208 l 382 981 l 607 981 l 607 263 q 590 146 607 192 q 542 68 574 100 q 449 13 506 32 q 307 -6 393 -6 m 110 1033 l 110 1175 l 504 1175 l 504 1033 l 110 1033 z "},"ū":{"ha":531,"x_min":7,"x_max":524,"o":"m 186 -11 q 58 36 106 -11 q 20 100 33 61 q 7 203 7 139 l 7 739 l 204 739 l 204 231 q 208 193 204 206 q 221 172 213 181 q 265 156 238 156 q 310 172 293 156 q 322 193 318 181 q 326 231 326 206 l 326 739 l 524 739 l 524 0 l 326 0 l 326 50 q 265 4 301 19 q 186 -11 228 -11 m 68 839 l 68 981 l 463 981 l 463 839 l 68 839 z "},"Ŭ":{"ha":614,"x_min":7,"x_max":607,"o":"m 307 -6 q 165 13 221 -6 q 72 68 108 32 q 24 146 40 100 q 7 263 7 192 l 7 981 l 232 981 l 232 236 q 238 192 232 208 q 251 168 243 176 q 276 153 263 158 q 307 147 290 147 q 363 168 342 147 q 376 192 371 176 q 382 236 382 208 l 382 981 l 607 981 l 607 263 q 590 146 607 192 q 542 68 574 100 q 449 13 506 32 q 307 -6 393 -6 m 300 1028 q 154 1065 207 1028 q 100 1172 101 1103 l 260 1172 q 307 1140 263 1140 q 354 1172 351 1140 l 514 1172 q 456 1065 513 1101 q 300 1028 399 1028 z "},"ŭ":{"ha":531,"x_min":7,"x_max":524,"o":"m 186 -11 q 58 36 106 -11 q 20 100 33 61 q 7 203 7 139 l 7 739 l 204 739 l 204 231 q 208 193 204 206 q 221 172 213 181 q 265 156 238 156 q 310 172 293 156 q 322 193 318 181 q 326 231 326 206 l 326 739 l 524 739 l 524 0 l 326 0 l 326 50 q 265 4 301 19 q 186 -11 228 -11 m 265 814 q 119 857 172 814 q 65 981 67 900 l 218 981 q 265 936 221 936 q 313 981 310 936 l 465 981 q 410 856 464 899 q 265 814 357 814 z "},"Ů":{"ha":614,"x_min":7,"x_max":607,"o":"m 307 -6 q 165 13 221 -6 q 72 68 108 32 q 24 146 40 100 q 7 263 7 192 l 7 981 l 232 981 l 232 236 q 238 192 232 208 q 251 168 243 176 q 276 153 263 158 q 307 147 290 147 q 363 168 342 147 q 376 192 371 176 q 382 236 382 208 l 382 981 l 607 981 l 607 263 q 590 146 607 192 q 542 68 574 100 q 449 13 506 32 q 307 -6 393 -6 m 307 1006 q 193 1051 239 1006 q 147 1165 147 1097 q 193 1279 147 1233 q 307 1325 239 1325 q 421 1279 375 1325 q 467 1165 467 1233 q 421 1051 467 1097 q 307 1006 375 1006 m 307 1125 q 335 1137 324 1125 q 347 1165 347 1149 q 335 1194 347 1182 q 307 1206 324 1206 q 278 1194 290 1206 q 267 1165 267 1182 q 278 1137 267 1149 q 307 1125 290 1125 z "},"ů":{"ha":531,"x_min":7,"x_max":524,"o":"m 186 -11 q 58 36 106 -11 q 20 100 33 61 q 7 203 7 139 l 7 739 l 204 739 l 204 231 q 208 193 204 206 q 221 172 213 181 q 265 156 238 156 q 310 172 293 156 q 322 193 318 181 q 326 231 326 206 l 326 739 l 524 739 l 524 0 l 326 0 l 326 50 q 265 4 301 19 q 186 -11 228 -11 m 265 797 q 157 842 201 797 q 113 950 113 886 q 157 1059 113 1015 q 265 1103 201 1103 q 374 1059 331 1103 q 418 950 418 1015 q 374 842 418 886 q 265 797 331 797 m 265 910 q 294 922 282 910 q 306 950 306 933 q 294 978 306 967 q 265 990 282 990 q 237 978 249 990 q 225 950 225 967 q 237 922 225 933 q 265 910 249 910 z "},"Ű":{"ha":614,"x_min":7,"x_max":607,"o":"m 307 -6 q 165 13 221 -6 q 72 68 108 32 q 24 146 40 100 q 7 263 7 192 l 7 981 l 232 981 l 232 236 q 238 192 232 208 q 251 168 243 176 q 276 153 263 158 q 307 147 290 147 q 363 168 342 147 q 376 192 371 176 q 382 236 382 208 l 382 981 l 607 981 l 607 263 q 590 146 607 192 q 542 68 574 100 q 449 13 506 32 q 307 -6 393 -6 m 113 1033 l 126 1172 l 340 1172 l 282 1033 l 113 1033 m 332 1033 l 389 1172 l 603 1172 l 501 1033 l 332 1033 z "},"ű":{"ha":531,"x_min":7,"x_max":554,"o":"m 186 -11 q 58 36 106 -11 q 20 100 33 61 q 7 203 7 139 l 7 739 l 204 739 l 204 231 q 208 193 204 206 q 221 172 213 181 q 265 156 238 156 q 310 172 293 156 q 322 193 318 181 q 326 231 326 206 l 326 739 l 524 739 l 524 0 l 326 0 l 326 50 q 265 4 301 19 q 186 -11 228 -11 m 78 819 l 92 981 l 299 981 l 240 819 l 78 819 m 290 819 l 347 981 l 554 981 l 453 819 l 290 819 z "},"Ų":{"ha":614,"x_min":7,"x_max":607,"o":"m 307 -6 q 165 13 221 -6 q 72 68 108 32 q 24 146 40 100 q 7 263 7 192 l 7 981 l 232 981 l 232 236 q 238 192 232 208 q 251 168 243 176 q 276 153 263 158 q 307 147 290 147 q 363 168 342 147 q 376 192 371 176 q 382 236 382 208 l 382 981 l 607 981 l 607 263 q 590 146 607 192 q 542 68 574 100 q 449 13 506 32 q 307 -6 393 -6 m 399 -222 q 301 -191 343 -222 q 258 -94 258 -160 q 300 -3 258 -42 q 401 56 342 35 l 467 19 q 421 -12 436 7 q 406 -51 406 -32 q 453 -100 406 -100 l 467 -100 l 467 -222 l 399 -222 z "},"ų":{"ha":531,"x_min":7,"x_max":524,"o":"m 186 -11 q 58 36 106 -11 q 20 100 33 61 q 7 203 7 139 l 7 739 l 204 739 l 204 231 q 208 193 204 206 q 221 172 213 181 q 265 156 238 156 q 310 172 293 156 q 322 193 318 181 q 326 231 326 206 l 326 739 l 524 739 l 524 0 l 326 0 l 326 50 q 265 4 301 19 q 186 -11 228 -11 m 453 -242 q 362 -210 401 -242 q 322 -114 322 -179 q 362 -23 322 -61 q 458 36 401 15 l 524 0 q 478 -32 493 -12 q 463 -71 463 -51 q 510 -119 463 -119 l 524 -119 l 524 -242 l 453 -242 z "},"Ŵ":{"ha":1033,"x_min":0,"x_max":1033,"o":"m 154 0 l 0 981 l 224 981 l 301 349 l 379 981 l 674 981 l 751 349 l 829 981 l 1033 981 l 879 0 l 594 0 l 517 631 l 439 0 l 154 0 m 304 1033 l 372 1172 l 658 1172 l 729 1033 l 551 1033 l 514 1114 l 476 1033 l 304 1033 z "},"ŵ":{"ha":908,"x_min":0,"x_max":908,"o":"m 131 0 l 0 739 l 197 739 l 272 247 l 347 739 l 581 739 l 656 247 l 731 739 l 908 739 l 778 0 l 528 0 l 454 468 l 381 0 l 131 0 m 249 819 l 317 981 l 589 981 l 660 819 l 483 819 l 446 913 l 408 819 l 249 819 z "},"Ŷ":{"ha":665,"x_min":0,"x_max":665,"o":"m 219 0 l 219 322 l 0 981 l 222 981 l 339 593 l 457 981 l 665 981 l 444 322 l 444 0 l 219 0 m 121 1033 l 189 1172 l 475 1172 l 546 1033 l 368 1033 l 331 1114 l 293 1033 l 121 1033 z "},"ŷ":{"ha":625,"x_min":0,"x_max":625,"o":"m 156 -228 l 229 19 l 0 739 l 207 739 l 319 331 l 436 739 l 625 739 l 344 -228 l 156 -228 m 107 819 l 175 981 l 447 981 l 518 819 l 342 819 l 304 913 l 267 819 l 107 819 z "},"Ÿ":{"ha":665,"x_min":0,"x_max":665,"o":"m 219 0 l 219 322 l 0 981 l 222 981 l 339 593 l 457 981 l 665 981 l 444 322 l 444 0 l 219 0 m 110 1033 l 110 1172 l 300 1172 l 300 1033 l 110 1033 m 367 1033 l 367 1172 l 557 1172 l 557 1033 l 367 1033 z "},"Ź":{"ha":550,"x_min":7,"x_max":543,"o":"m 7 0 l 7 181 l 289 794 l 13 794 l 13 981 l 528 981 l 528 781 l 256 186 l 543 186 l 543 0 l 7 0 m 186 1033 l 211 1172 l 447 1172 l 363 1033 l 186 1033 z "},"ź":{"ha":468,"x_min":7,"x_max":461,"o":"m 7 0 l 7 161 l 229 578 l 14 578 l 14 739 l 444 739 l 444 578 l 222 161 l 461 161 l 461 0 l 7 0 m 153 819 l 178 981 l 400 981 l 315 819 l 153 819 z "},"Ż":{"ha":550,"x_min":7,"x_max":543,"o":"m 7 0 l 7 181 l 289 794 l 13 794 l 13 981 l 528 981 l 528 781 l 256 186 l 543 186 l 543 0 l 7 0 m 169 1033 l 169 1172 l 381 1172 l 381 1033 l 169 1033 z "},"ż":{"ha":468,"x_min":7,"x_max":461,"o":"m 7 0 l 7 161 l 229 578 l 14 578 l 14 739 l 444 739 l 444 578 l 222 161 l 461 161 l 461 0 l 7 0 m 136 819 l 136 981 l 333 981 l 333 819 l 136 819 z "},"Ž":{"ha":550,"x_min":7,"x_max":543,"o":"m 7 0 l 7 181 l 289 794 l 13 794 l 13 981 l 528 981 l 528 781 l 256 186 l 543 186 l 543 0 l 7 0 m 133 1033 l 63 1172 l 242 1172 l 279 1090 l 317 1172 l 488 1172 l 419 1033 l 133 1033 z "},"ž":{"ha":468,"x_min":7,"x_max":461,"o":"m 7 0 l 7 161 l 229 578 l 14 578 l 14 739 l 444 739 l 444 578 l 222 161 l 461 161 l 461 0 l 7 0 m 100 819 l 29 981 l 206 981 l 243 888 l 281 981 l 440 981 l 372 819 l 100 819 z "},"ſ":{"ha":211,"x_min":7,"x_max":318,"o":"m 7 0 l 7 840 q 15 902 7 878 q 42 943 24 926 q 91 971 61 961 q 165 981 121 981 l 318 981 l 318 829 l 239 829 q 204 794 204 829 l 204 0 l 7 0 z "},"Ə":{"ha":614,"x_min":7,"x_max":607,"o":"m 307 -6 q 165 14 221 -6 q 72 68 108 33 q 24 146 42 100 q 7 263 7 192 l 7 565 l 382 565 l 382 744 q 376 788 382 772 q 363 813 371 804 q 307 833 342 833 q 251 813 272 833 q 238 788 243 804 q 232 744 232 772 l 232 621 l 7 621 l 7 718 q 24 835 7 789 q 72 913 42 882 q 165 967 108 949 q 307 986 221 986 q 450 967 393 986 q 542 913 507 949 q 590 835 574 882 q 607 718 607 789 l 607 263 q 590 146 607 192 q 542 68 574 100 q 450 14 507 33 q 307 -6 393 -6 m 307 147 q 363 168 342 147 q 376 192 371 176 q 382 236 382 208 l 382 382 l 232 382 l 232 236 q 238 192 232 208 q 251 168 243 176 q 307 147 272 147 z "},"Ɛ":{"ha":614,"x_min":7,"x_max":607,"o":"m 307 -6 q 165 14 221 -6 q 72 68 108 33 q 24 146 42 100 q 7 263 7 192 l 7 303 q 30 426 7 376 q 113 504 53 476 q 35 583 57 533 q 14 708 14 632 l 14 719 q 31 839 14 793 q 81 915 49 885 q 169 967 115 949 q 307 986 224 986 q 445 967 390 986 q 535 915 500 949 q 583 839 567 885 q 600 719 600 793 l 600 649 l 375 649 l 375 751 q 371 790 375 776 q 358 814 367 804 q 307 833 342 833 q 256 814 272 833 q 243 790 247 804 q 239 751 239 776 l 239 667 q 243 628 239 642 q 256 604 247 614 q 279 590 264 594 q 321 585 294 585 l 424 585 l 424 421 l 321 421 q 278 415 294 421 q 251 400 261 410 q 238 376 243 392 q 232 332 232 360 l 232 236 q 238 192 232 208 q 251 168 243 176 q 307 147 272 147 q 363 168 342 147 q 376 192 371 176 q 382 236 382 208 l 382 347 l 607 347 l 607 263 q 590 146 607 192 q 542 68 574 100 q 450 14 507 33 q 307 -6 393 -6 z "},"ƒ":{"ha":325,"x_min":-101,"x_max":318,"o":"m -101 -228 l -101 -67 l -31 -67 q 7 -29 7 -67 l 7 836 q 16 900 7 875 q 43 942 25 925 q 92 971 63 961 q 168 981 122 981 l 318 981 l 318 821 l 242 821 q 204 785 204 821 l 204 739 l 318 739 l 318 583 l 204 583 l 204 -83 q 195 -147 204 -122 q 168 -189 186 -172 q 119 -217 149 -207 q 43 -228 89 -228 l -101 -228 z "},"Ɣ":{"ha":633,"x_min":0,"x_max":633,"o":"m 317 -233 q 149 -177 211 -233 q 86 -25 86 -121 q 158 136 86 79 l 0 981 l 224 981 l 326 360 l 429 981 l 633 981 l 475 136 q 547 -25 547 79 q 485 -177 547 -121 q 317 -233 424 -233 m 317 -86 q 361 -69 344 -86 q 378 -25 378 -53 q 361 19 378 3 q 317 36 344 36 q 272 19 289 36 q 256 -25 256 3 q 272 -69 256 -53 q 317 -86 289 -86 z "},"Ɨ":{"ha":372,"x_min":7,"x_max":365,"o":"m 74 0 l 74 981 l 299 981 l 299 0 l 74 0 m 7 413 l 7 568 l 365 568 l 365 413 l 7 413 z "},"Ɲ":{"ha":639,"x_min":-101,"x_max":632,"o":"m -101 -228 l -101 -67 l -31 -67 q 7 -29 7 -67 l 7 981 l 285 981 l 435 481 l 435 981 l 632 981 l 632 0 l 382 0 l 204 575 l 204 -83 q 195 -147 204 -122 q 168 -189 186 -172 q 119 -217 149 -207 q 43 -228 89 -228 l -101 -228 z "},"Ƶ":{"ha":550,"x_min":7,"x_max":543,"o":"m 7 0 l 7 181 l 114 413 l 33 413 l 33 568 l 185 568 l 289 794 l 13 794 l 13 981 l 528 981 l 528 781 l 431 568 l 517 568 l 517 413 l 360 413 l 256 186 l 543 186 l 543 0 l 7 0 z "},"ƶ":{"ha":468,"x_min":7,"x_max":461,"o":"m 7 0 l 7 161 l 76 292 l 28 292 l 28 447 l 160 447 l 229 578 l 14 578 l 14 739 l 444 739 l 444 578 l 375 447 l 442 447 l 442 292 l 292 292 l 222 161 l 461 161 l 461 0 l 7 0 z "},"Ǆ":{"ha":1158,"x_min":7,"x_max":1151,"o":"m 7 0 l 7 981 l 350 981 q 468 965 422 981 q 544 918 514 949 q 591 842 575 888 q 607 724 607 796 l 607 257 q 591 139 607 185 q 544 63 575 93 q 468 16 514 32 q 350 0 422 0 l 7 0 m 233 183 l 294 183 q 364 204 343 183 q 378 233 372 214 q 383 283 383 251 l 383 708 q 378 752 383 736 q 364 776 372 768 q 338 792 354 786 q 294 797 322 797 l 233 797 l 233 183 m 615 0 l 615 181 l 897 794 l 621 794 l 621 981 l 1136 981 l 1136 781 l 864 186 l 1151 186 l 1151 0 l 615 0 m 742 1033 l 671 1172 l 850 1172 l 888 1090 l 925 1172 l 1096 1172 l 1028 1033 l 742 1033 z "},"ǅ":{"ha":1075,"x_min":7,"x_max":1068,"o":"m 7 0 l 7 981 l 350 981 q 468 965 422 981 q 544 918 514 949 q 591 842 575 888 q 607 724 607 796 l 607 257 q 591 139 607 185 q 544 63 575 93 q 468 16 514 32 q 350 0 422 0 l 7 0 m 233 183 l 294 183 q 364 204 343 183 q 378 233 372 214 q 383 283 383 251 l 383 708 q 378 752 383 736 q 364 776 372 768 q 338 792 354 786 q 294 797 322 797 l 233 797 l 233 183 m 614 0 l 614 161 l 836 578 l 621 578 l 621 739 l 1051 739 l 1051 578 l 829 161 l 1068 161 l 1068 0 l 614 0 m 707 819 l 636 981 l 813 981 l 850 888 l 888 981 l 1047 981 l 979 819 l 707 819 z "},"ǆ":{"ha":999,"x_min":7,"x_max":992,"o":"m 186 -11 q 58 36 106 -11 q 20 100 33 61 q 7 203 7 139 l 7 536 q 20 639 7 600 q 58 703 33 678 q 186 750 106 750 q 326 689 278 750 l 326 981 l 524 981 l 524 0 l 326 0 l 326 51 q 267 4 303 19 q 186 -11 231 -11 m 265 156 q 310 172 293 156 q 322 193 318 181 q 326 231 326 206 l 326 508 q 322 546 326 533 q 310 567 318 558 q 265 583 293 583 q 221 567 238 583 q 208 546 213 558 q 204 508 204 533 l 204 231 q 208 193 204 206 q 221 172 213 181 q 265 156 238 156 m 538 0 l 538 161 l 760 578 l 544 578 l 544 739 l 975 739 l 975 578 l 753 161 l 992 161 l 992 0 l 538 0 m 631 819 l 560 981 l 736 981 l 774 888 l 811 981 l 971 981 l 903 819 l 631 819 z "},"Ǎ":{"ha":647,"x_min":0,"x_max":647,"o":"m 0 0 l 151 981 l 497 981 l 647 0 l 421 0 l 397 172 l 236 172 l 213 0 l 0 0 m 258 349 l 375 349 l 317 810 l 258 349 m 182 1033 l 111 1172 l 290 1172 l 328 1090 l 365 1172 l 536 1172 l 468 1033 l 182 1033 z "},"ǎ":{"ha":531,"x_min":7,"x_max":524,"o":"m 185 -11 q 53 41 100 -11 q 7 190 7 93 l 7 233 q 32 332 7 294 q 114 399 57 369 l 286 486 q 309 501 300 493 q 322 521 318 510 q 326 544 326 532 q 312 584 326 571 q 269 597 297 597 q 224 582 239 597 q 210 538 210 567 l 210 471 l 15 471 l 15 525 q 81 693 15 642 q 269 744 147 744 q 460 691 397 744 q 524 522 524 638 l 524 0 l 326 0 l 326 50 q 185 -11 278 -11 m 265 142 q 326 208 326 142 l 326 350 q 315 341 321 344 q 303 333 310 338 l 247 303 q 214 273 224 289 q 204 231 204 257 l 204 208 q 265 142 204 142 m 131 819 l 60 981 l 236 981 l 274 888 l 311 981 l 471 981 l 403 819 l 131 819 z "},"Ǐ":{"ha":239,"x_min":-93,"x_max":332,"o":"m 7 0 l 7 981 l 232 981 l 232 0 l 7 0 m -22 1033 l -93 1172 l 86 1172 l 124 1090 l 161 1172 l 332 1172 l 264 1033 l -22 1033 z "},"ǐ":{"ha":211,"x_min":-100,"x_max":311,"o":"m 7 0 l 7 739 l 204 739 l 204 0 l 7 0 m -29 819 l -100 981 l 76 981 l 114 888 l 151 981 l 311 981 l 243 819 l -29 819 z "},"Ǒ":{"ha":614,"x_min":7,"x_max":607,"o":"m 307 -6 q 165 13 221 -6 q 72 68 108 32 q 24 146 40 100 q 7 264 7 192 l 7 717 q 24 835 7 789 q 72 913 40 881 q 165 967 108 949 q 307 986 221 986 q 449 967 393 986 q 542 913 506 949 q 590 835 574 881 q 607 717 607 789 l 607 264 q 590 146 607 192 q 542 68 574 100 q 449 13 506 32 q 307 -6 393 -6 m 307 147 q 363 168 342 147 q 376 192 371 176 q 382 236 382 208 l 382 744 q 376 788 382 772 q 363 813 371 804 q 307 833 342 833 q 251 813 272 833 q 238 788 243 804 q 232 744 232 772 l 232 236 q 238 192 232 208 q 251 168 243 176 q 307 147 272 147 m 165 1033 l 94 1172 l 274 1172 l 311 1090 l 349 1172 l 519 1172 l 451 1033 l 165 1033 z "},"ǒ":{"ha":531,"x_min":7,"x_max":524,"o":"m 265 -6 q 142 10 189 -6 q 64 57 94 26 q 22 126 38 85 q 7 236 7 168 l 7 503 q 22 613 7 571 q 64 682 38 656 q 142 728 94 713 q 265 744 189 744 q 390 728 343 744 q 467 682 436 713 q 509 613 494 656 q 524 503 524 571 l 524 236 q 509 126 524 168 q 467 57 494 85 q 390 10 436 26 q 265 -6 343 -6 m 265 142 q 310 158 293 142 q 322 179 318 167 q 326 217 326 192 l 326 522 q 322 560 326 547 q 310 581 318 572 q 265 597 293 597 q 221 581 238 597 q 208 560 213 572 q 204 522 204 547 l 204 217 q 208 179 204 192 q 221 158 213 167 q 265 142 238 142 m 131 819 l 60 981 l 236 981 l 274 888 l 311 981 l 471 981 l 403 819 l 131 819 z "},"Ǔ":{"ha":614,"x_min":7,"x_max":607,"o":"m 307 -6 q 165 13 221 -6 q 72 68 108 32 q 24 146 40 100 q 7 263 7 192 l 7 981 l 232 981 l 232 236 q 238 192 232 208 q 251 168 243 176 q 276 153 263 158 q 307 147 290 147 q 363 168 342 147 q 376 192 371 176 q 382 236 382 208 l 382 981 l 607 981 l 607 263 q 590 146 607 192 q 542 68 574 100 q 449 13 506 32 q 307 -6 393 -6 m 165 1033 l 94 1172 l 274 1172 l 311 1090 l 349 1172 l 519 1172 l 451 1033 l 165 1033 z "},"ǔ":{"ha":531,"x_min":7,"x_max":524,"o":"m 186 -11 q 58 36 106 -11 q 20 100 33 61 q 7 203 7 139 l 7 739 l 204 739 l 204 231 q 208 193 204 206 q 221 172 213 181 q 265 156 238 156 q 310 172 293 156 q 322 193 318 181 q 326 231 326 206 l 326 739 l 524 739 l 524 0 l 326 0 l 326 50 q 265 4 301 19 q 186 -11 228 -11 m 131 819 l 60 981 l 236 981 l 274 888 l 311 981 l 471 981 l 403 819 l 131 819 z "},"Ǧ":{"ha":614,"x_min":7,"x_max":607,"o":"m 217 -11 q 127 3 165 -11 q 63 43 89 17 q 22 110 36 69 q 7 217 7 151 l 7 717 q 24 835 7 789 q 72 913 40 881 q 165 967 108 949 q 307 986 221 986 q 449 967 393 986 q 542 913 506 949 q 590 835 574 881 q 607 717 607 789 l 607 635 l 382 635 l 382 744 q 376 788 382 772 q 363 813 371 804 q 307 833 346 833 q 251 813 272 833 q 238 788 243 804 q 232 744 232 772 l 232 244 q 238 201 232 217 q 251 176 243 185 q 276 161 263 167 q 307 156 290 156 q 363 176 342 156 q 376 201 371 185 q 382 244 382 217 l 382 360 l 296 360 l 296 532 l 607 532 l 607 0 l 382 0 l 382 56 q 308 4 351 19 q 217 -11 265 -11 m 165 1033 l 94 1172 l 274 1172 l 311 1090 l 349 1172 l 519 1172 l 451 1033 l 165 1033 z "},"ǧ":{"ha":531,"x_min":7,"x_max":524,"o":"m 265 -233 q 142 -217 189 -233 q 64 -171 94 -201 q 22 -105 38 -144 q 7 -6 7 -65 l 7 0 l 204 0 l 204 -11 q 208 -49 204 -36 q 221 -69 213 -61 q 265 -86 238 -86 q 310 -69 293 -86 q 322 -49 318 -61 q 326 -11 326 -36 l 326 107 q 266 60 303 75 q 186 44 229 44 q 58 92 106 44 q 20 156 33 117 q 7 258 7 194 l 7 536 q 20 639 7 600 q 58 703 33 678 q 186 750 106 750 q 326 689 278 750 l 326 739 l 524 739 l 524 8 q 509 -101 524 -60 q 467 -171 494 -143 q 389 -217 436 -201 q 265 -233 342 -233 m 265 211 q 310 228 293 211 q 322 249 318 236 q 326 286 326 261 l 326 508 q 322 546 326 533 q 310 567 318 558 q 265 583 293 583 q 221 567 238 583 q 208 546 213 558 q 204 508 204 533 l 204 286 q 208 249 204 261 q 221 228 213 236 q 265 211 238 211 m 131 819 l 60 981 l 236 981 l 274 888 l 311 981 l 471 981 l 403 819 l 131 819 z "},"Ǩ":{"ha":617,"x_min":7,"x_max":617,"o":"m 7 0 l 7 981 l 232 981 l 232 601 l 390 981 l 611 981 l 418 544 l 617 0 l 379 0 l 232 432 l 232 0 l 7 0 m 167 1033 l 96 1172 l 275 1172 l 313 1090 l 350 1172 l 521 1172 l 453 1033 l 167 1033 z "},"ǩ":{"ha":546,"x_min":-107,"x_max":546,"o":"m 7 0 l 7 981 l 204 981 l 204 443 l 339 739 l 540 739 l 371 397 l 546 0 l 332 0 l 204 304 l 204 0 l 7 0 m -36 1033 l -107 1172 l 72 1172 l 110 1090 l 147 1172 l 318 1172 l 250 1033 l -36 1033 z "},"Ǫ":{"ha":614,"x_min":7,"x_max":607,"o":"m 307 -6 q 165 13 221 -6 q 72 68 108 32 q 24 146 40 100 q 7 264 7 192 l 7 717 q 24 835 7 789 q 72 913 40 881 q 165 967 108 949 q 307 986 221 986 q 449 967 393 986 q 542 913 506 949 q 590 835 574 881 q 607 717 607 789 l 607 264 q 590 146 607 192 q 542 68 574 100 q 449 13 506 32 q 307 -6 393 -6 m 307 147 q 363 168 342 147 q 376 192 371 176 q 382 236 382 208 l 382 744 q 376 788 382 772 q 363 813 371 804 q 307 833 342 833 q 251 813 272 833 q 238 788 243 804 q 232 744 232 772 l 232 236 q 238 192 232 208 q 251 168 243 176 q 307 147 272 147 m 399 -222 q 301 -191 343 -222 q 258 -94 258 -160 q 300 -3 258 -42 q 401 56 342 35 l 467 19 q 421 -12 436 7 q 406 -51 406 -32 q 453 -100 406 -100 l 467 -100 l 467 -222 l 399 -222 z "},"ǫ":{"ha":531,"x_min":7,"x_max":524,"o":"m 265 -6 q 142 10 189 -6 q 64 57 94 26 q 22 126 38 85 q 7 236 7 168 l 7 503 q 22 613 7 571 q 64 682 38 656 q 142 728 94 713 q 265 744 189 744 q 390 728 343 744 q 467 682 436 713 q 509 613 494 656 q 524 503 524 571 l 524 236 q 509 126 524 168 q 467 57 494 85 q 390 10 436 26 q 265 -6 343 -6 m 265 142 q 310 158 293 142 q 322 179 318 167 q 326 217 326 192 l 326 522 q 322 560 326 547 q 310 581 318 572 q 265 597 293 597 q 221 581 238 597 q 208 560 213 572 q 204 522 204 547 l 204 217 q 208 179 204 192 q 221 158 213 167 q 265 142 238 142 m 328 -228 q 237 -197 276 -228 q 197 -100 197 -165 q 237 -9 197 -47 q 333 50 276 29 l 399 14 q 353 -18 368 1 q 338 -57 338 -37 q 385 -106 338 -106 l 399 -106 l 399 -228 l 328 -228 z "},"Ǳ":{"ha":1158,"x_min":7,"x_max":1151,"o":"m 7 0 l 7 981 l 350 981 q 468 965 422 981 q 544 918 514 949 q 591 842 575 888 q 607 724 607 796 l 607 257 q 591 139 607 185 q 544 63 575 93 q 468 16 514 32 q 350 0 422 0 l 7 0 m 233 183 l 294 183 q 364 204 343 183 q 378 233 372 214 q 383 283 383 251 l 383 708 q 378 752 383 736 q 364 776 372 768 q 338 792 354 786 q 294 797 322 797 l 233 797 l 233 183 m 615 0 l 615 181 l 897 794 l 621 794 l 621 981 l 1136 981 l 1136 781 l 864 186 l 1151 186 l 1151 0 l 615 0 z "},"ǲ":{"ha":1075,"x_min":7,"x_max":1068,"o":"m 7 0 l 7 981 l 350 981 q 468 965 422 981 q 544 918 514 949 q 591 842 575 888 q 607 724 607 796 l 607 257 q 591 139 607 185 q 544 63 575 93 q 468 16 514 32 q 350 0 422 0 l 7 0 m 233 183 l 294 183 q 364 204 343 183 q 378 233 372 214 q 383 283 383 251 l 383 708 q 378 752 383 736 q 364 776 372 768 q 338 792 354 786 q 294 797 322 797 l 233 797 l 233 183 m 614 0 l 614 161 l 836 578 l 621 578 l 621 739 l 1051 739 l 1051 578 l 829 161 l 1068 161 l 1068 0 l 614 0 z "},"ǳ":{"ha":999,"x_min":7,"x_max":992,"o":"m 186 -11 q 58 36 106 -11 q 20 100 33 61 q 7 203 7 139 l 7 536 q 20 639 7 600 q 58 703 33 678 q 186 750 106 750 q 326 689 278 750 l 326 981 l 524 981 l 524 0 l 326 0 l 326 51 q 267 4 303 19 q 186 -11 231 -11 m 265 156 q 310 172 293 156 q 322 193 318 181 q 326 231 326 206 l 326 508 q 322 546 326 533 q 310 567 318 558 q 265 583 293 583 q 221 567 238 583 q 208 546 213 558 q 204 508 204 533 l 204 231 q 208 193 204 206 q 221 172 213 181 q 265 156 238 156 m 538 0 l 538 161 l 760 578 l 544 578 l 544 739 l 975 739 l 975 578 l 753 161 l 992 161 l 992 0 l 538 0 z "},"Ǹ":{"ha":639,"x_min":7,"x_max":632,"o":"m 7 0 l 7 981 l 285 981 l 435 481 l 435 981 l 632 981 l 632 0 l 382 0 l 204 575 l 204 0 l 7 0 m 232 1033 l 147 1172 l 383 1172 l 408 1033 l 232 1033 z "},"ǹ":{"ha":531,"x_min":7,"x_max":524,"o":"m 7 0 l 7 739 l 204 739 l 204 689 q 266 735 229 721 q 344 750 303 750 q 472 703 425 750 q 510 640 497 678 q 524 536 524 601 l 524 0 l 326 0 l 326 508 q 322 546 326 533 q 310 567 318 558 q 265 583 293 583 q 221 567 238 583 q 208 546 213 558 q 204 508 204 533 l 204 0 l 7 0 m 185 819 l 100 981 l 322 981 l 347 819 l 185 819 z "},"Ǻ":{"ha":647,"x_min":0,"x_max":647,"o":"m 0 0 l 151 981 l 497 981 l 647 0 l 421 0 l 397 172 l 236 172 l 213 0 l 0 0 m 258 349 l 375 349 l 317 810 l 258 349 m 324 1006 q 210 1051 256 1006 q 164 1165 164 1097 q 210 1279 164 1233 q 324 1325 256 1325 q 438 1279 392 1325 q 483 1165 483 1233 q 438 1051 483 1097 q 324 1006 392 1006 m 324 1125 q 352 1137 340 1125 q 364 1165 364 1149 q 352 1194 364 1182 q 324 1206 340 1206 q 295 1194 307 1206 q 283 1165 283 1182 q 295 1137 283 1149 q 324 1125 307 1125 m 235 1350 l 260 1489 l 496 1489 l 411 1350 l 235 1350 z "},"ǻ":{"ha":531,"x_min":7,"x_max":524,"o":"m 185 -11 q 53 41 100 -11 q 7 190 7 93 l 7 233 q 32 332 7 294 q 114 399 57 369 l 286 486 q 309 501 300 493 q 322 521 318 510 q 326 544 326 532 q 312 584 326 571 q 269 597 297 597 q 224 582 239 597 q 210 538 210 567 l 210 471 l 15 471 l 15 525 q 81 693 15 642 q 269 744 147 744 q 460 691 397 744 q 524 522 524 638 l 524 0 l 326 0 l 326 50 q 185 -11 278 -11 m 265 142 q 326 208 326 142 l 326 350 q 315 341 321 344 q 303 333 310 338 l 247 303 q 214 273 224 289 q 204 231 204 257 l 204 208 q 265 142 204 142 m 265 797 q 157 842 201 797 q 113 950 113 886 q 157 1059 113 1015 q 265 1103 201 1103 q 374 1059 331 1103 q 418 950 418 1015 q 374 842 418 886 q 265 797 331 797 m 265 910 q 294 922 282 910 q 306 950 306 933 q 294 978 306 967 q 265 990 282 990 q 237 978 249 990 q 225 950 225 967 q 237 922 225 933 q 265 910 249 910 m 183 1144 l 208 1306 l 431 1306 l 346 1144 l 183 1144 z "},"Ǽ":{"ha":854,"x_min":0,"x_max":847,"o":"m 0 0 l 240 981 l 847 981 l 847 797 l 619 797 l 619 596 l 847 596 l 847 413 l 619 413 l 619 183 l 847 183 l 847 0 l 394 0 l 394 172 l 254 172 l 215 0 l 0 0 m 293 349 l 394 349 l 394 803 l 393 803 l 293 349 m 425 1033 l 450 1172 l 686 1172 l 601 1033 l 425 1033 z "},"ǽ":{"ha":850,"x_min":7,"x_max":843,"o":"m 213 -11 q 60 41 114 -11 q 7 190 7 93 l 7 233 q 32 332 7 294 q 114 399 57 369 l 286 486 q 309 501 300 493 q 322 521 318 510 q 326 544 326 532 q 312 584 326 571 q 269 597 297 597 q 210 538 210 597 l 210 471 l 15 471 l 15 525 q 80 693 15 642 q 261 744 144 744 q 354 734 314 744 q 425 700 394 724 q 592 744 483 744 q 704 730 654 744 q 786 682 754 715 q 831 601 818 650 q 843 486 843 551 l 843 310 l 524 310 l 524 217 q 528 179 524 192 q 540 158 532 167 q 585 142 557 142 q 629 158 613 142 q 642 179 638 167 q 646 217 646 192 l 646 278 l 843 278 l 843 236 q 828 127 843 171 q 786 56 814 83 q 708 10 756 26 q 586 -6 660 -6 q 465 10 511 -6 q 389 57 419 26 q 313 6 357 22 q 213 -11 268 -11 m 265 142 q 326 208 326 142 l 326 350 q 315 341 321 344 q 303 333 310 338 l 247 303 q 214 273 224 289 q 204 231 204 257 l 204 208 q 265 142 204 142 m 524 438 l 646 438 l 646 522 q 642 560 646 547 q 629 581 638 572 q 585 597 613 597 q 540 581 557 597 q 528 560 532 572 q 524 522 524 547 l 524 438 m 343 819 l 368 981 l 590 981 l 506 819 l 343 819 z "},"Ǿ":{"ha":614,"x_min":7,"x_max":607,"o":"m 190 -57 l 31 4 l 60 81 q 20 156 33 113 q 7 264 7 200 l 7 717 q 24 835 7 789 q 72 913 40 881 q 165 967 108 949 q 307 986 221 986 q 358 984 335 986 q 403 979 382 982 l 424 1035 l 585 974 l 556 897 q 594 824 581 867 q 607 717 607 781 l 607 264 q 590 146 607 192 q 542 68 574 100 q 449 13 506 32 q 307 -6 393 -6 q 257 -3 281 -6 q 213 1 233 -1 l 190 -57 m 232 461 l 364 810 q 343 827 358 821 q 307 833 328 833 q 251 813 272 833 q 238 788 243 804 q 232 744 232 772 l 232 461 m 307 147 q 363 168 342 147 q 376 192 371 176 q 382 236 382 208 l 382 511 l 251 168 q 276 153 263 158 q 307 147 290 147 m 218 1033 l 243 1172 l 479 1172 l 394 1033 l 218 1033 z "},"ǿ":{"ha":531,"x_min":10,"x_max":526,"o":"m 176 -60 l 36 -3 l 63 61 q 23 130 36 88 q 10 236 10 172 l 10 503 q 24 613 10 571 q 67 682 39 656 q 144 728 97 713 q 268 744 192 744 q 305 744 288 744 q 338 740 322 743 l 360 797 l 499 742 l 474 678 q 513 610 500 651 q 526 503 526 568 l 526 236 q 512 126 526 168 q 469 57 497 83 q 392 10 439 26 q 268 -6 344 -6 q 233 -4 250 -6 q 200 -1 215 -3 l 176 -60 m 207 365 l 299 590 q 285 595 293 593 q 268 597 276 597 q 224 581 240 597 q 211 560 215 572 q 207 522 207 547 l 207 365 m 268 142 q 313 158 296 142 q 325 179 321 167 q 329 217 329 192 l 329 376 l 238 149 q 252 144 244 146 q 268 142 260 142 m 183 819 l 208 981 l 431 981 l 346 819 l 183 819 z "},"Ș":{"ha":614,"x_min":7,"x_max":607,"o":"m 306 -6 q 168 11 225 -6 q 74 63 111 28 q 24 144 40 94 q 7 257 7 193 l 7 378 l 232 378 l 232 243 q 251 185 232 207 q 306 164 271 164 q 360 184 340 164 q 379 239 379 204 q 364 303 379 276 q 317 356 349 329 l 160 479 q 83 553 117 514 q 31 640 50 593 q 13 740 13 686 q 33 846 13 800 q 89 922 54 892 q 183 970 128 954 q 307 986 239 986 q 444 970 389 986 q 533 922 499 954 q 585 845 568 892 q 601 736 601 799 l 601 635 l 376 635 l 376 746 q 360 799 376 781 q 307 817 343 817 q 258 799 276 817 q 240 753 240 782 q 256 701 240 726 q 306 647 271 675 l 469 518 q 542 445 511 486 q 590 357 574 404 q 607 256 607 310 q 587 145 607 193 q 529 64 567 97 q 435 13 490 31 q 306 -6 379 -6 m 161 -214 l 186 -53 l 422 -53 l 338 -214 l 161 -214 z "},"ș":{"ha":531,"x_min":7,"x_max":524,"o":"m 265 -6 q 65 53 124 -6 q 7 232 7 113 l 7 278 l 204 278 l 204 207 q 219 159 204 176 q 265 142 235 142 q 313 160 300 142 q 326 197 326 179 q 308 239 326 222 q 250 279 290 256 l 125 353 q 40 430 67 388 q 13 531 13 472 q 45 655 13 608 q 135 723 78 701 q 265 744 192 744 q 403 722 347 744 q 489 649 460 699 q 518 514 518 599 l 518 471 l 321 471 l 321 529 q 309 577 321 557 q 265 597 297 597 q 223 581 236 597 q 210 546 210 565 q 224 506 210 521 q 267 475 239 492 l 410 389 q 475 336 450 365 q 512 273 500 307 q 524 203 524 239 q 499 96 524 143 q 417 22 474 49 q 265 -6 360 -6 m 124 -228 l 149 -67 l 371 -67 l 286 -228 l 124 -228 z "},"Ț":{"ha":614,"x_min":7,"x_max":607,"o":"m 194 0 l 194 797 l 7 797 l 7 981 l 607 981 l 607 797 l 419 797 l 419 0 l 194 0 m 164 -214 l 189 -53 l 425 -53 l 340 -214 l 164 -214 z "},"ț":{"ha":372,"x_min":7,"x_max":365,"o":"m 238 0 q 162 10 192 0 q 113 39 132 19 q 85 81 94 56 q 76 144 76 106 l 76 583 l 7 583 l 7 739 l 76 739 l 76 981 l 274 981 l 274 739 l 365 739 l 365 583 l 274 583 l 274 199 q 311 161 274 161 l 365 161 l 365 0 l 238 0 m 101 -228 l 126 -67 l 349 -67 l 264 -228 l 101 -228 z "},"Ȟ":{"ha":606,"x_min":7,"x_max":599,"o":"m 7 0 l 7 981 l 232 981 l 232 596 l 374 596 l 374 981 l 599 981 l 599 0 l 374 0 l 374 413 l 232 413 l 232 0 l 7 0 m 161 1033 l 90 1172 l 269 1172 l 307 1090 l 344 1172 l 515 1172 l 447 1033 l 161 1033 z "},"ȟ":{"ha":531,"x_min":-107,"x_max":524,"o":"m 7 0 l 7 981 l 204 981 l 204 689 q 266 735 229 719 q 344 750 303 750 q 472 703 425 750 q 510 639 497 678 q 524 536 524 600 l 524 0 l 326 0 l 326 508 q 322 546 326 533 q 310 567 318 558 q 265 583 293 583 q 221 567 238 583 q 208 546 213 558 q 204 508 204 533 l 204 0 l 7 0 m -36 1033 l -107 1172 l 72 1172 l 110 1090 l 147 1172 l 318 1172 l 250 1033 l -36 1033 z "},"Ȯ":{"ha":614,"x_min":7,"x_max":607,"o":"m 307 -6 q 165 13 221 -6 q 72 68 108 32 q 24 146 40 100 q 7 264 7 192 l 7 717 q 24 835 7 789 q 72 913 40 881 q 165 967 108 949 q 307 986 221 986 q 449 967 393 986 q 542 913 506 949 q 590 835 574 881 q 607 717 607 789 l 607 264 q 590 146 607 192 q 542 68 574 100 q 449 13 506 32 q 307 -6 393 -6 m 307 147 q 363 168 342 147 q 376 192 371 176 q 382 236 382 208 l 382 744 q 376 788 382 772 q 363 813 371 804 q 307 833 342 833 q 251 813 272 833 q 238 788 243 804 q 232 744 232 772 l 232 236 q 238 192 232 208 q 251 168 243 176 q 307 147 272 147 m 201 1033 l 201 1172 l 413 1172 l 413 1033 l 201 1033 z "},"ȯ":{"ha":531,"x_min":7,"x_max":524,"o":"m 265 -6 q 142 10 189 -6 q 64 57 94 26 q 22 126 38 85 q 7 236 7 168 l 7 503 q 22 613 7 571 q 64 682 38 656 q 142 728 94 713 q 265 744 189 744 q 390 728 343 744 q 467 682 436 713 q 509 613 494 656 q 524 503 524 571 l 524 236 q 509 126 524 168 q 467 57 494 85 q 390 10 436 26 q 265 -6 343 -6 m 265 142 q 310 158 293 142 q 322 179 318 167 q 326 217 326 192 l 326 522 q 322 560 326 547 q 310 581 318 572 q 265 597 293 597 q 221 581 238 597 q 208 560 213 572 q 204 522 204 547 l 204 217 q 208 179 204 192 q 221 158 213 167 q 265 142 238 142 m 167 819 l 167 981 l 364 981 l 364 819 l 167 819 z "},"Ȳ":{"ha":665,"x_min":0,"x_max":665,"o":"m 219 0 l 219 322 l 0 981 l 222 981 l 339 593 l 457 981 l 665 981 l 444 322 l 444 0 l 219 0 m 136 1033 l 136 1175 l 531 1175 l 531 1033 l 136 1033 z "},"ȳ":{"ha":625,"x_min":0,"x_max":625,"o":"m 156 -228 l 229 19 l 0 739 l 207 739 l 319 331 l 436 739 l 625 739 l 344 -228 l 156 -228 m 115 839 l 115 981 l 510 981 l 510 839 l 115 839 z "},"ȷ":{"ha":211,"x_min":-101,"x_max":204,"o":"m -101 -228 l -101 -67 l -31 -67 q 7 -29 7 -67 l 7 739 l 204 739 l 204 -83 q 195 -147 204 -122 q 168 -189 186 -172 q 119 -217 149 -207 q 43 -228 89 -228 l -101 -228 z "},"Ʉ":{"ha":733,"x_min":7,"x_max":726,"o":"m 367 -6 q 224 14 281 -6 q 132 68 168 33 q 84 146 101 100 q 67 263 67 192 l 67 413 l 7 413 l 7 568 l 67 568 l 67 981 l 292 981 l 292 568 l 442 568 l 442 981 l 667 981 l 667 568 l 726 568 l 726 413 l 667 413 l 667 263 q 650 146 667 192 q 601 68 633 100 q 510 14 567 33 q 367 -6 453 -6 m 367 147 q 422 168 401 147 q 436 192 431 176 q 442 236 442 208 l 442 413 l 292 413 l 292 236 q 297 192 292 208 q 311 168 303 176 q 367 147 332 147 z "},"ə":{"ha":531,"x_min":7,"x_max":524,"o":"m 265 744 q 389 728 342 744 q 467 682 436 713 q 509 613 494 656 q 524 503 524 571 l 524 236 q 509 126 524 168 q 467 57 494 85 q 389 10 436 26 q 265 -6 342 -6 q 142 10 189 -6 q 64 57 94 26 q 22 135 38 85 q 7 253 7 185 l 7 429 l 326 429 l 326 522 q 322 560 326 547 q 310 581 318 572 q 265 597 293 597 q 221 581 238 597 q 208 560 213 572 q 204 522 204 547 l 204 461 l 7 461 l 7 503 q 22 613 7 571 q 64 682 38 656 q 142 728 94 713 q 265 744 189 744 m 326 301 l 204 301 l 204 217 q 208 179 204 192 q 221 158 213 167 q 265 142 238 142 q 310 158 293 142 q 322 179 318 167 q 326 217 326 192 l 326 301 z "},"ɛ":{"ha":531,"x_min":7,"x_max":524,"o":"m 265 -6 q 142 10 189 -6 q 64 57 94 26 q 24 115 40 81 q 7 201 7 149 l 7 203 q 31 304 7 264 q 110 369 54 344 q 33 434 58 393 q 7 533 7 475 l 7 536 q 24 625 7 592 q 64 682 40 658 q 142 728 94 713 q 265 744 189 744 q 390 728 343 744 q 467 682 436 713 q 509 613 494 656 q 524 503 524 571 l 524 471 l 326 471 l 326 525 q 322 560 326 549 q 310 581 318 572 q 265 597 293 597 q 221 581 238 597 q 208 563 213 572 q 204 531 204 553 l 204 522 q 224 465 204 485 q 249 450 235 456 q 288 444 264 444 l 385 444 l 385 304 l 288 304 q 249 299 264 304 q 224 283 235 294 q 209 262 214 274 q 204 228 204 250 l 204 206 q 209 176 204 186 q 221 158 214 165 q 265 142 238 142 q 310 158 293 142 q 322 176 318 167 q 326 206 326 186 l 326 278 l 524 278 l 524 225 q 508 123 524 163 q 467 57 493 83 q 390 10 436 26 q 265 -6 343 -6 z "},"ɣ":{"ha":553,"x_min":0,"x_max":553,"o":"m 285 -233 q 117 -177 179 -233 q 54 -25 54 -121 q 69 60 54 22 q 111 122 85 97 l 0 739 l 203 739 l 285 231 l 367 739 l 553 739 l 443 135 q 497 67 478 108 q 515 -25 515 26 q 453 -177 515 -121 q 285 -233 392 -233 m 285 -86 q 329 -69 313 -86 q 346 -25 346 -53 q 329 19 346 3 q 285 36 313 36 q 240 19 257 36 q 224 -25 224 3 q 240 -69 224 -53 q 285 -86 257 -86 z "},"ɨ":{"ha":372,"x_min":7,"x_max":365,"o":"m 7 356 l 7 511 l 365 511 l 365 356 l 7 356 m 88 0 l 88 739 l 285 739 l 285 0 l 88 0 m 88 821 l 88 981 l 285 981 l 285 821 l 88 821 z "},"ɲ":{"ha":531,"x_min":-74,"x_max":524,"o":"m -74 -228 l -74 -67 l -31 -67 q 7 -29 7 -67 l 7 739 l 204 739 l 204 689 q 266 735 229 721 q 344 750 303 750 q 417 738 385 750 q 472 703 450 726 q 510 640 497 678 q 524 536 524 601 l 524 0 l 326 0 l 326 508 q 322 546 326 533 q 310 567 318 558 q 265 583 293 583 q 221 567 238 583 q 208 546 213 558 q 204 508 204 533 l 204 -83 q 195 -147 204 -122 q 168 -189 186 -172 q 119 -217 149 -207 q 43 -228 89 -228 l -74 -228 z "},"ʉ":{"ha":658,"x_min":7,"x_max":651,"o":"m 250 -11 q 122 36 169 -11 q 84 100 97 61 q 71 203 71 139 l 71 739 l 268 739 l 268 231 q 272 193 268 206 q 285 172 276 181 q 329 156 301 156 q 374 172 357 156 q 386 193 382 181 q 390 231 390 206 l 390 739 l 588 739 l 588 0 l 390 0 l 390 50 q 328 4 365 19 q 250 -11 292 -11 m 7 356 l 7 511 l 651 511 l 651 356 l 7 356 z "},"ˆ":{"ha":425,"x_min":7,"x_max":418,"o":"m 7 819 l 75 981 l 347 981 l 418 819 l 242 819 l 204 913 l 167 819 l 7 819 z "},"ˇ":{"ha":425,"x_min":7,"x_max":418,"o":"m 78 819 l 7 981 l 183 981 l 221 888 l 258 981 l 418 981 l 350 819 l 78 819 z "},"ˉ":{"ha":408,"x_min":7,"x_max":401,"o":"m 7 819 l 7 961 l 401 961 l 401 819 l 7 819 z "},"˘":{"ha":414,"x_min":7,"x_max":407,"o":"m 207 814 q 61 857 114 814 q 7 981 8 900 l 160 981 q 207 936 163 936 q 254 981 251 936 l 407 981 q 352 856 406 899 q 207 814 299 814 z "},"˙":{"ha":211,"x_min":7,"x_max":204,"o":"m 7 819 l 7 981 l 204 981 l 204 819 l 7 819 z "},"˚":{"ha":319,"x_min":7,"x_max":313,"o":"m 160 761 q 51 806 96 761 q 7 914 7 850 q 51 1023 7 979 q 160 1067 96 1067 q 269 1023 225 1067 q 313 914 313 979 q 269 806 313 850 q 160 761 225 761 m 160 874 q 188 885 176 874 q 200 914 200 897 q 188 942 200 931 q 160 954 176 954 q 131 942 143 954 q 119 914 119 931 q 131 885 119 897 q 160 874 143 874 z "},"˛":{"ha":215,"x_min":7,"x_max":208,"o":"m 138 -242 q 47 -210 86 -242 q 7 -114 7 -179 q 47 -23 7 -61 q 143 36 86 15 l 208 0 q 163 -32 178 -12 q 147 -71 147 -51 q 194 -119 147 -119 l 208 -119 l 208 -242 l 138 -242 z "},"˜":{"ha":397,"x_min":7,"x_max":390,"o":"m 253 813 q 178 833 206 813 q 142 849 156 849 q 120 840 128 849 q 113 817 113 831 l 7 817 l 7 857 q 44 951 7 915 q 144 986 81 986 q 184 981 168 986 q 213 968 200 975 q 236 955 226 961 q 256 949 246 949 q 285 981 285 949 l 285 982 l 390 982 l 390 942 q 354 848 390 883 q 253 813 318 813 z "},"˝":{"ha":490,"x_min":7,"x_max":483,"o":"m 7 819 l 21 981 l 228 981 l 169 819 l 7 819 m 219 819 l 276 981 l 483 981 l 382 819 l 219 819 z "},"̀":{"ha":0,"x_min":-35,"x_max":213,"o":"m 50 819 l -35 981 l 188 981 l 213 819 l 50 819 z "},"́":{"ha":0,"x_min":49,"x_max":296,"o":"m 49 819 l 74 981 l 296 981 l 211 819 l 49 819 z "},"̂":{"ha":0,"x_min":7,"x_max":418,"o":"m 7 819 l 75 981 l 347 981 l 418 819 l 242 819 l 204 913 l 167 819 l 7 819 z "},"̃":{"ha":0,"x_min":7,"x_max":390,"o":"m 253 813 q 209 818 226 813 q 178 833 192 824 q 142 849 156 849 q 120 840 128 849 q 113 817 113 831 l 7 817 l 7 857 q 44 951 7 915 q 144 986 81 986 q 184 981 168 986 q 213 968 200 975 q 236 955 226 961 q 256 949 246 949 q 285 981 285 949 l 285 982 l 390 982 l 390 942 q 354 848 390 883 q 253 813 318 813 z "},"̄":{"ha":0,"x_min":7,"x_max":401,"o":"m 7 839 l 7 981 l 401 981 l 401 839 l 7 839 z "},"̆":{"ha":0,"x_min":7,"x_max":407,"o":"m 207 814 q 61 857 114 814 q 7 981 8 900 l 160 981 q 207 936 163 936 q 254 981 251 936 l 407 981 q 352 856 406 899 q 207 814 299 814 z "},"̇":{"ha":0,"x_min":7,"x_max":204,"o":"m 7 819 l 7 981 l 204 981 l 204 819 l 7 819 z "},"̈":{"ha":0,"x_min":7,"x_max":440,"o":"m 7 819 l 7 981 l 190 981 l 190 819 l 7 819 m 257 819 l 257 981 l 440 981 l 440 819 l 257 819 z "},"̊":{"ha":0,"x_min":7,"x_max":313,"o":"m 160 797 q 51 842 96 797 q 7 950 7 886 q 51 1059 7 1015 q 160 1103 96 1103 q 269 1059 225 1103 q 313 950 313 1015 q 269 842 313 886 q 160 797 225 797 m 160 910 q 188 922 176 910 q 200 950 200 933 q 188 978 200 967 q 160 990 176 990 q 131 978 143 990 q 119 950 119 967 q 131 922 119 933 q 160 910 143 910 z "},"̋":{"ha":0,"x_min":7,"x_max":483,"o":"m 7 819 l 21 981 l 228 981 l 169 819 l 7 819 m 219 819 l 276 981 l 483 981 l 382 819 l 219 819 z "},"̌":{"ha":0,"x_min":7,"x_max":418,"o":"m 78 819 l 7 981 l 183 981 l 221 888 l 258 981 l 418 981 l 350 819 l 78 819 z "},"̒":{"ha":0,"x_min":7,"x_max":254,"o":"m 7 819 l 92 981 l 254 981 l 229 819 l 7 819 z "},"̓":{"ha":0,"x_min":7,"x_max":254,"o":"m 7 819 l 32 981 l 254 981 l 169 819 l 7 819 z "},"̣":{"ha":0,"x_min":7,"x_max":204,"o":"m 7 -228 l 7 -67 l 204 -67 l 204 -228 l 7 -228 z "},"̦":{"ha":0,"x_min":-6,"x_max":242,"o":"m -6 -228 l 19 -67 l 242 -67 l 157 -228 l -6 -228 z "},"̧":{"ha":0,"x_min":7,"x_max":188,"o":"m 7 -264 l 7 -181 l 13 -181 q 49 -169 38 -181 q 57 -155 54 -162 q 60 -133 60 -147 l 60 -107 l 7 -107 l 7 21 l 188 21 l 188 -117 q 182 -174 188 -151 q 165 -211 176 -196 q 119 -250 149 -236 q 40 -264 89 -264 l 7 -264 z "},"̨":{"ha":0,"x_min":7,"x_max":208,"o":"m 138 -242 q 47 -210 86 -242 q 7 -114 7 -179 q 47 -23 7 -61 q 143 36 86 15 l 208 0 q 163 -32 178 -12 q 147 -71 147 -51 q 194 -119 147 -119 l 208 -119 l 208 -242 l 138 -242 z "},"̮":{"ha":0,"x_min":7,"x_max":407,"o":"m 207 -233 q 61 -190 114 -233 q 7 -67 8 -147 l 160 -67 q 207 -111 163 -111 q 254 -67 251 -111 l 407 -67 q 352 -191 406 -149 q 207 -233 299 -233 z "},"̱":{"ha":0,"x_min":7,"x_max":401,"o":"m 7 -208 l 7 -67 l 401 -67 l 401 -208 l 7 -208 z "},"̵":{"ha":0,"x_min":7,"x_max":365,"o":"m 7 397 l 7 553 l 365 553 l 365 397 l 7 397 z "},"·":{"ha":225,"x_min":7,"x_max":218,"o":"m 7 271 l 7 464 l 218 464 l 218 271 l 7 271 z "},"Δ":{"ha":647,"x_min":0,"x_max":647,"o":"m 0 0 l 151 981 l 497 981 l 647 0 l 0 0 m 235 176 l 399 176 l 317 810 l 235 176 z "},"Ω":{"ha":614,"x_min":7,"x_max":607,"o":"m 7 0 l 7 172 l 86 172 q 24 253 40 203 q 7 365 7 303 l 7 718 q 24 835 7 789 q 72 913 42 882 q 165 967 108 949 q 307 986 221 986 q 450 967 393 986 q 542 913 507 949 q 590 835 574 882 q 607 718 607 789 l 607 365 q 590 251 607 300 q 528 172 572 201 l 607 172 l 607 0 l 328 0 l 328 181 q 382 253 382 192 l 382 744 q 376 788 382 772 q 363 813 371 804 q 307 833 342 833 q 251 813 272 833 q 238 788 243 804 q 232 744 232 772 l 232 253 q 286 181 232 192 l 286 0 l 7 0 z "},"μ":{"ha":531,"x_min":7,"x_max":524,"o":"m 7 -228 l 7 739 l 204 739 l 204 231 q 208 193 204 206 q 221 172 213 181 q 265 156 238 156 q 310 172 293 156 q 322 193 318 181 q 326 231 326 206 l 326 739 l 524 739 l 524 0 l 326 0 l 326 50 q 265 4 301 19 q 186 -11 228 -11 l 176 -11 l 176 -228 l 7 -228 z "},"π":{"ha":628,"x_min":7,"x_max":621,"o":"m 76 0 l 76 583 l 7 583 l 7 739 l 621 739 l 621 583 l 551 583 l 551 0 l 354 0 l 354 583 l 274 583 l 274 0 l 76 0 z "},"Ḃ":{"ha":614,"x_min":7,"x_max":607,"o":"m 7 0 l 7 981 l 368 981 q 476 967 436 981 q 544 925 517 953 q 584 861 569 899 q 599 761 599 824 l 599 713 q 584 613 599 650 q 544 550 569 575 q 475 508 517 522 q 553 464 524 494 q 593 398 579 438 q 607 292 607 358 l 607 228 q 593 122 607 161 q 553 56 579 82 q 485 14 525 28 q 376 0 444 0 l 7 0 m 232 589 l 285 589 q 354 610 336 589 q 368 637 363 619 q 374 685 374 654 l 374 713 q 368 753 374 738 q 354 776 363 768 q 328 792 344 786 q 285 797 311 797 l 232 797 l 232 589 m 232 183 l 293 183 q 336 189 319 183 q 363 204 353 194 q 376 228 371 213 q 382 272 382 244 l 382 335 q 376 378 382 363 q 363 403 371 394 q 336 418 353 413 q 293 424 319 424 l 232 424 l 232 183 m 201 1033 l 201 1172 l 413 1172 l 413 1033 l 201 1033 z "},"ḃ":{"ha":531,"x_min":7,"x_max":524,"o":"m 260 821 l 260 960 l 457 960 l 457 821 l 260 821 m 344 -11 q 264 4 300 -11 q 204 51 228 19 l 204 0 l 7 0 l 7 981 l 204 981 l 204 689 q 344 750 253 750 q 472 703 425 750 q 510 639 497 678 q 524 536 524 600 l 524 203 q 510 100 524 139 q 472 36 497 61 q 344 -11 425 -11 m 265 156 q 310 172 293 156 q 322 193 318 181 q 326 231 326 206 l 326 508 q 322 546 326 533 q 310 567 318 558 q 265 583 293 583 q 221 567 238 583 q 208 546 213 558 q 204 508 204 533 l 204 231 q 208 193 204 206 q 221 172 213 181 q 265 156 238 156 z "},"Ḋ":{"ha":614,"x_min":7,"x_max":607,"o":"m 7 0 l 7 981 l 350 981 q 468 965 422 981 q 544 918 514 949 q 591 842 575 888 q 607 724 607 796 l 607 257 q 591 139 607 185 q 544 63 575 93 q 468 16 514 32 q 350 0 422 0 l 7 0 m 233 183 l 294 183 q 364 204 343 183 q 378 233 372 214 q 383 283 383 251 l 383 708 q 378 752 383 736 q 364 776 372 768 q 338 792 354 786 q 294 797 322 797 l 233 797 l 233 183 m 201 1033 l 201 1172 l 413 1172 l 413 1033 l 201 1033 z "},"ḋ":{"ha":531,"x_min":7,"x_max":524,"o":"m 74 821 l 74 960 l 271 960 l 271 821 l 74 821 m 186 -11 q 58 36 106 -11 q 20 100 33 61 q 7 203 7 139 l 7 536 q 20 639 7 600 q 58 703 33 678 q 186 750 106 750 q 326 689 278 750 l 326 981 l 524 981 l 524 0 l 326 0 l 326 51 q 267 4 303 19 q 186 -11 231 -11 m 265 156 q 310 172 293 156 q 322 193 318 181 q 326 231 326 206 l 326 508 q 322 546 326 533 q 310 567 318 558 q 265 583 293 583 q 221 567 238 583 q 208 546 213 558 q 204 508 204 533 l 204 231 q 208 193 204 206 q 221 172 213 181 q 265 156 238 156 z "},"Ḍ":{"ha":614,"x_min":7,"x_max":607,"o":"m 7 0 l 7 981 l 350 981 q 468 965 422 981 q 544 918 514 949 q 591 842 575 888 q 607 724 607 796 l 607 257 q 591 139 607 185 q 544 63 575 93 q 468 16 514 32 q 350 0 422 0 l 7 0 m 233 183 l 294 183 q 364 204 343 183 q 378 233 372 214 q 383 283 383 251 l 383 708 q 378 752 383 736 q 364 776 372 768 q 338 792 354 786 q 294 797 322 797 l 233 797 l 233 183 m 201 -212 l 201 -51 l 413 -51 l 413 -212 l 201 -212 z "},"ḍ":{"ha":531,"x_min":7,"x_max":524,"o":"m 186 -11 q 58 36 106 -11 q 20 100 33 61 q 7 203 7 139 l 7 536 q 20 639 7 600 q 58 703 33 678 q 186 750 106 750 q 326 689 278 750 l 326 981 l 524 981 l 524 0 l 326 0 l 326 51 q 267 4 303 19 q 186 -11 231 -11 m 265 156 q 310 172 293 156 q 322 193 318 181 q 326 231 326 206 l 326 508 q 322 546 326 533 q 310 567 318 558 q 265 583 293 583 q 221 567 238 583 q 208 546 213 558 q 204 508 204 533 l 204 231 q 208 193 204 206 q 221 172 213 181 q 265 156 238 156 m 167 -228 l 167 -67 l 364 -67 l 364 -228 l 167 -228 z "},"Ḏ":{"ha":614,"x_min":7,"x_max":607,"o":"m 7 0 l 7 981 l 350 981 q 468 965 422 981 q 544 918 514 949 q 591 842 575 888 q 607 724 607 796 l 607 257 q 591 139 607 185 q 544 63 575 93 q 468 16 514 32 q 350 0 422 0 l 7 0 m 233 183 l 294 183 q 364 204 343 183 q 378 233 372 214 q 383 283 383 251 l 383 708 q 378 752 383 736 q 364 776 372 768 q 338 792 354 786 q 294 797 322 797 l 233 797 l 233 183 m 110 -194 l 110 -53 l 504 -53 l 504 -194 l 110 -194 z "},"ḏ":{"ha":531,"x_min":7,"x_max":524,"o":"m 186 -11 q 58 36 106 -11 q 20 100 33 61 q 7 203 7 139 l 7 536 q 20 639 7 600 q 58 703 33 678 q 186 750 106 750 q 326 689 278 750 l 326 981 l 524 981 l 524 0 l 326 0 l 326 51 q 267 4 303 19 q 186 -11 231 -11 m 265 156 q 310 172 293 156 q 322 193 318 181 q 326 231 326 206 l 326 508 q 322 546 326 533 q 310 567 318 558 q 265 583 293 583 q 221 567 238 583 q 208 546 213 558 q 204 508 204 533 l 204 231 q 208 193 204 206 q 221 172 213 181 q 265 156 238 156 m 68 -208 l 68 -67 l 463 -67 l 463 -208 l 68 -208 z "},"Ḑ":{"ha":614,"x_min":7,"x_max":607,"o":"m 7 0 l 7 981 l 350 981 q 468 965 422 981 q 544 918 514 949 q 591 842 575 888 q 607 724 607 796 l 607 257 q 591 139 607 185 q 544 63 575 93 q 468 16 514 32 q 350 0 422 0 l 7 0 m 233 183 l 294 183 q 364 204 343 183 q 378 233 372 214 q 383 283 383 251 l 383 708 q 378 752 383 736 q 364 776 372 768 q 338 792 354 786 q 294 797 322 797 l 233 797 l 233 183 m 164 -214 l 189 -53 l 425 -53 l 340 -214 l 164 -214 z "},"ḑ":{"ha":531,"x_min":7,"x_max":524,"o":"m 186 -11 q 58 36 106 -11 q 20 100 33 61 q 7 203 7 139 l 7 536 q 20 639 7 600 q 58 703 33 678 q 186 750 106 750 q 326 689 278 750 l 326 981 l 524 981 l 524 0 l 326 0 l 326 51 q 267 4 303 19 q 186 -11 231 -11 m 265 156 q 310 172 293 156 q 322 193 318 181 q 326 231 326 206 l 326 508 q 322 546 326 533 q 310 567 318 558 q 265 583 293 583 q 221 567 238 583 q 208 546 213 558 q 204 508 204 533 l 204 231 q 208 193 204 206 q 221 172 213 181 q 265 156 238 156 m 129 -228 l 154 -67 l 376 -67 l 292 -228 l 129 -228 z "},"Ḟ":{"ha":522,"x_min":7,"x_max":515,"o":"m 7 0 l 7 981 l 515 981 l 515 797 l 232 797 l 232 596 l 515 596 l 515 413 l 232 413 l 232 0 l 7 0 m 156 1033 l 156 1172 l 367 1172 l 367 1033 l 156 1033 z "},"ḟ":{"ha":394,"x_min":7,"x_max":388,"o":"m 149 1033 l 149 1172 l 346 1172 l 346 1033 l 149 1033 m 76 0 l 76 583 l 7 583 l 7 739 l 76 739 l 76 836 q 85 899 76 875 q 113 942 94 924 q 162 971 132 961 q 238 981 192 981 l 388 981 l 388 821 l 311 821 q 274 785 274 821 l 274 739 l 388 739 l 388 583 l 274 583 l 274 0 l 76 0 z "},"Ḡ":{"ha":614,"x_min":7,"x_max":607,"o":"m 217 -11 q 127 3 165 -11 q 63 43 89 17 q 22 110 36 69 q 7 217 7 151 l 7 717 q 24 835 7 789 q 72 913 40 881 q 165 967 108 949 q 307 986 221 986 q 449 967 393 986 q 542 913 506 949 q 590 835 574 881 q 607 717 607 789 l 607 635 l 382 635 l 382 744 q 376 788 382 772 q 363 813 371 804 q 307 833 346 833 q 251 813 272 833 q 238 788 243 804 q 232 744 232 772 l 232 244 q 238 201 232 217 q 251 176 243 185 q 276 161 263 167 q 307 156 290 156 q 363 176 342 156 q 376 201 371 185 q 382 244 382 217 l 382 360 l 296 360 l 296 532 l 607 532 l 607 0 l 382 0 l 382 56 q 308 4 351 19 q 217 -11 265 -11 m 110 1033 l 110 1175 l 504 1175 l 504 1033 l 110 1033 z "},"ḡ":{"ha":531,"x_min":7,"x_max":524,"o":"m 265 -233 q 142 -217 189 -233 q 64 -171 94 -201 q 22 -105 38 -144 q 7 -6 7 -65 l 7 0 l 204 0 l 204 -11 q 208 -49 204 -36 q 221 -69 213 -61 q 265 -86 238 -86 q 310 -69 293 -86 q 322 -49 318 -61 q 326 -11 326 -36 l 326 107 q 266 60 303 75 q 186 44 229 44 q 58 92 106 44 q 20 156 33 117 q 7 258 7 194 l 7 536 q 20 639 7 600 q 58 703 33 678 q 186 750 106 750 q 326 689 278 750 l 326 739 l 524 739 l 524 8 q 509 -101 524 -60 q 467 -171 494 -143 q 389 -217 436 -201 q 265 -233 342 -233 m 265 211 q 310 228 293 211 q 322 249 318 236 q 326 286 326 261 l 326 508 q 322 546 326 533 q 310 567 318 558 q 265 583 293 583 q 221 567 238 583 q 208 546 213 558 q 204 508 204 533 l 204 286 q 208 249 204 261 q 221 228 213 236 q 265 211 238 211 m 68 839 l 68 981 l 463 981 l 463 839 l 68 839 z "},"Ḣ":{"ha":606,"x_min":7,"x_max":599,"o":"m 7 0 l 7 981 l 232 981 l 232 596 l 374 596 l 374 981 l 599 981 l 599 0 l 374 0 l 374 413 l 232 413 l 232 0 l 7 0 m 197 1033 l 197 1172 l 408 1172 l 408 1033 l 197 1033 z "},"ḣ":{"ha":531,"x_min":0,"x_max":524,"o":"m 7 0 l 7 981 l 204 981 l 204 689 q 266 735 229 719 q 344 750 303 750 q 472 703 425 750 q 510 639 497 678 q 524 536 524 600 l 524 0 l 326 0 l 326 508 q 322 546 326 533 q 310 567 318 558 q 265 583 293 583 q 221 567 238 583 q 208 546 213 558 q 204 508 204 533 l 204 0 l 7 0 m 0 1033 l 0 1172 l 211 1172 l 211 1033 l 0 1033 z "},"Ḥ":{"ha":606,"x_min":7,"x_max":599,"o":"m 7 0 l 7 981 l 232 981 l 232 596 l 374 596 l 374 981 l 599 981 l 599 0 l 374 0 l 374 413 l 232 413 l 232 0 l 7 0 m 197 -212 l 197 -51 l 408 -51 l 408 -212 l 197 -212 z "},"ḥ":{"ha":531,"x_min":7,"x_max":524,"o":"m 7 0 l 7 981 l 204 981 l 204 689 q 266 735 229 719 q 344 750 303 750 q 472 703 425 750 q 510 639 497 678 q 524 536 524 600 l 524 0 l 326 0 l 326 508 q 322 546 326 533 q 310 567 318 558 q 265 583 293 583 q 221 567 238 583 q 208 546 213 558 q 204 508 204 533 l 204 0 l 7 0 m 167 -228 l 167 -67 l 364 -67 l 364 -228 l 167 -228 z "},"Ḫ":{"ha":606,"x_min":7,"x_max":599,"o":"m 7 0 l 7 981 l 232 981 l 232 596 l 374 596 l 374 981 l 599 981 l 599 0 l 374 0 l 374 413 l 232 413 l 232 0 l 7 0 m 303 -219 q 151 -176 206 -219 q 96 -53 97 -133 l 256 -53 q 303 -97 258 -97 q 350 -53 347 -97 l 510 -53 q 453 -177 508 -135 q 303 -219 397 -219 z "},"ḫ":{"ha":531,"x_min":7,"x_max":524,"o":"m 7 0 l 7 981 l 204 981 l 204 689 q 266 735 229 719 q 344 750 303 750 q 472 703 425 750 q 510 639 497 678 q 524 536 524 600 l 524 0 l 326 0 l 326 508 q 322 546 326 533 q 310 567 318 558 q 265 583 293 583 q 221 567 238 583 q 208 546 213 558 q 204 508 204 533 l 204 0 l 7 0 m 265 -233 q 119 -190 172 -233 q 65 -67 67 -147 l 218 -67 q 265 -111 221 -111 q 313 -67 310 -111 l 465 -67 q 410 -191 464 -149 q 265 -233 357 -233 z "},"Ḷ":{"ha":522,"x_min":7,"x_max":515,"o":"m 7 0 l 7 981 l 232 981 l 232 183 l 515 183 l 515 0 l 7 0 m 156 -212 l 156 -51 l 367 -51 l 367 -212 l 156 -212 z "},"ḷ":{"ha":211,"x_min":7,"x_max":204,"o":"m 7 0 l 7 981 l 204 981 l 204 0 l 7 0 m 7 -228 l 7 -67 l 204 -67 l 204 -228 l 7 -228 z "},"Ḹ":{"ha":522,"x_min":-78,"x_max":515,"o":"m 7 0 l 7 981 l 232 981 l 232 183 l 515 183 l 515 0 l 7 0 m 156 -212 l 156 -51 l 367 -51 l 367 -212 l 156 -212 m -78 1033 l -78 1175 l 317 1175 l 317 1033 l -78 1033 z "},"ḹ":{"ha":211,"x_min":-92,"x_max":303,"o":"m 7 0 l 7 981 l 204 981 l 204 0 l 7 0 m 7 -228 l 7 -67 l 204 -67 l 204 -228 l 7 -228 m -92 1033 l -92 1175 l 303 1175 l 303 1033 l -92 1033 z "},"Ḻ":{"ha":522,"x_min":7,"x_max":515,"o":"m 7 0 l 7 981 l 232 981 l 232 183 l 515 183 l 515 0 l 7 0 m 64 -194 l 64 -53 l 458 -53 l 458 -194 l 64 -194 z "},"ḻ":{"ha":211,"x_min":-92,"x_max":303,"o":"m 7 0 l 7 981 l 204 981 l 204 0 l 7 0 m -92 -208 l -92 -67 l 303 -67 l 303 -208 l -92 -208 z "},"Ḿ":{"ha":928,"x_min":7,"x_max":921,"o":"m 7 0 l 7 981 l 367 981 l 463 447 l 558 981 l 921 981 l 921 0 l 696 0 l 696 743 l 563 0 l 344 0 l 208 743 l 208 0 l 7 0 m 375 1033 l 400 1172 l 636 1172 l 551 1033 l 375 1033 z "},"ḿ":{"ha":833,"x_min":7,"x_max":826,"o":"m 7 0 l 7 739 l 204 739 l 204 692 q 340 750 251 750 q 486 678 440 750 q 651 750 546 750 q 778 703 731 750 q 814 642 801 679 q 826 546 826 606 l 826 0 l 629 0 l 629 519 q 613 569 629 556 q 572 583 596 583 q 532 569 546 583 q 520 551 525 563 q 515 519 515 539 l 515 0 l 318 0 l 318 519 q 301 569 318 556 q 261 583 285 583 q 221 569 235 583 q 209 551 214 563 q 204 519 204 539 l 204 0 l 7 0 m 335 819 l 360 981 l 582 981 l 497 819 l 335 819 z "},"Ṁ":{"ha":928,"x_min":7,"x_max":921,"o":"m 7 0 l 7 981 l 367 981 l 463 447 l 558 981 l 921 981 l 921 0 l 696 0 l 696 743 l 563 0 l 344 0 l 208 743 l 208 0 l 7 0 m 358 1033 l 358 1172 l 569 1172 l 569 1033 l 358 1033 z "},"ṁ":{"ha":833,"x_min":7,"x_max":826,"o":"m 7 0 l 7 739 l 204 739 l 204 692 q 340 750 251 750 q 486 678 440 750 q 651 750 546 750 q 778 703 731 750 q 814 642 801 679 q 826 546 826 606 l 826 0 l 629 0 l 629 519 q 613 569 629 556 q 572 583 596 583 q 532 569 546 583 q 520 551 525 563 q 515 519 515 539 l 515 0 l 318 0 l 318 519 q 301 569 318 556 q 261 583 285 583 q 221 569 235 583 q 209 551 214 563 q 204 519 204 539 l 204 0 l 7 0 m 318 819 l 318 981 l 515 981 l 515 819 l 318 819 z "},"Ṃ":{"ha":928,"x_min":7,"x_max":921,"o":"m 7 0 l 7 981 l 367 981 l 463 447 l 558 981 l 921 981 l 921 0 l 696 0 l 696 743 l 563 0 l 344 0 l 208 743 l 208 0 l 7 0 m 349 -212 l 349 -51 l 560 -51 l 560 -212 l 349 -212 z "},"ṃ":{"ha":833,"x_min":7,"x_max":826,"o":"m 7 0 l 7 739 l 204 739 l 204 692 q 340 750 251 750 q 486 678 440 750 q 651 750 546 750 q 778 703 731 750 q 814 642 801 679 q 826 546 826 606 l 826 0 l 629 0 l 629 519 q 613 569 629 556 q 572 583 596 583 q 532 569 546 583 q 520 551 525 563 q 515 519 515 539 l 515 0 l 318 0 l 318 519 q 301 569 318 556 q 261 583 285 583 q 221 569 235 583 q 209 551 214 563 q 204 519 204 539 l 204 0 l 7 0 m 318 -228 l 318 -67 l 515 -67 l 515 -228 l 318 -228 z "},"Ṅ":{"ha":639,"x_min":7,"x_max":632,"o":"m 7 0 l 7 981 l 285 981 l 435 481 l 435 981 l 632 981 l 632 0 l 382 0 l 204 575 l 204 0 l 7 0 m 214 1033 l 214 1172 l 425 1172 l 425 1033 l 214 1033 z "},"ṅ":{"ha":531,"x_min":7,"x_max":524,"o":"m 7 0 l 7 739 l 204 739 l 204 689 q 266 735 229 721 q 344 750 303 750 q 472 703 425 750 q 510 640 497 678 q 524 536 524 601 l 524 0 l 326 0 l 326 508 q 322 546 326 533 q 310 567 318 558 q 265 583 293 583 q 221 567 238 583 q 208 546 213 558 q 204 508 204 533 l 204 0 l 7 0 m 167 819 l 167 981 l 364 981 l 364 819 l 167 819 z "},"Ṇ":{"ha":639,"x_min":7,"x_max":632,"o":"m 7 0 l 7 981 l 285 981 l 435 481 l 435 981 l 632 981 l 632 0 l 382 0 l 204 575 l 204 0 l 7 0 m 214 -212 l 214 -51 l 425 -51 l 425 -212 l 214 -212 z "},"ṇ":{"ha":531,"x_min":7,"x_max":524,"o":"m 7 0 l 7 739 l 204 739 l 204 689 q 266 735 229 721 q 344 750 303 750 q 472 703 425 750 q 510 640 497 678 q 524 536 524 601 l 524 0 l 326 0 l 326 508 q 322 546 326 533 q 310 567 318 558 q 265 583 293 583 q 221 567 238 583 q 208 546 213 558 q 204 508 204 533 l 204 0 l 7 0 m 167 -228 l 167 -67 l 364 -67 l 364 -228 l 167 -228 z "},"Ṉ":{"ha":639,"x_min":7,"x_max":632,"o":"m 7 0 l 7 981 l 285 981 l 435 481 l 435 981 l 632 981 l 632 0 l 382 0 l 204 575 l 204 0 l 7 0 m 122 -194 l 122 -53 l 517 -53 l 517 -194 l 122 -194 z "},"ṉ":{"ha":531,"x_min":7,"x_max":524,"o":"m 7 0 l 7 739 l 204 739 l 204 689 q 266 735 229 721 q 344 750 303 750 q 472 703 425 750 q 510 640 497 678 q 524 536 524 601 l 524 0 l 326 0 l 326 508 q 322 546 326 533 q 310 567 318 558 q 265 583 293 583 q 221 567 238 583 q 208 546 213 558 q 204 508 204 533 l 204 0 l 7 0 m 68 -208 l 68 -67 l 463 -67 l 463 -208 l 68 -208 z "},"Ṗ":{"ha":614,"x_min":7,"x_max":607,"o":"m 7 0 l 7 981 l 376 981 q 485 967 444 981 q 553 925 525 953 q 593 859 579 899 q 607 753 607 819 l 607 538 q 593 431 607 471 q 553 365 579 392 q 485 324 525 338 q 376 310 444 310 l 232 310 l 232 0 l 7 0 m 232 493 l 293 493 q 363 514 349 493 q 376 542 371 524 q 382 593 382 561 l 382 708 q 376 752 382 736 q 363 776 371 768 q 336 792 353 786 q 293 797 319 797 l 232 797 l 232 493 m 201 1033 l 201 1172 l 413 1172 l 413 1033 l 201 1033 z "},"ṗ":{"ha":531,"x_min":7,"x_max":524,"o":"m 7 -228 l 7 739 l 204 739 l 204 688 q 264 735 228 719 q 344 750 300 750 q 472 703 425 750 q 510 639 497 678 q 524 536 524 600 l 524 203 q 510 100 524 139 q 472 36 497 61 q 344 -11 425 -11 q 204 50 253 -11 l 204 -228 l 7 -228 m 265 156 q 310 172 293 156 q 322 193 318 181 q 326 231 326 206 l 326 508 q 322 546 326 533 q 310 567 318 558 q 265 583 293 583 q 221 567 238 583 q 208 546 213 558 q 204 508 204 533 l 204 231 q 208 193 204 206 q 221 172 213 181 q 265 156 238 156 m 167 819 l 167 981 l 364 981 l 364 819 l 167 819 z "},"Ṛ":{"ha":614,"x_min":7,"x_max":607,"o":"m 7 0 l 7 981 l 376 981 q 485 967 444 981 q 553 925 525 953 q 593 859 579 899 q 607 753 607 819 l 607 696 q 593 590 607 629 q 553 524 579 550 q 523 499 539 510 q 486 483 507 489 q 582 408 549 461 q 601 358 594 388 q 607 279 607 329 l 607 0 l 382 0 l 382 300 q 376 344 382 328 q 363 368 371 360 q 336 383 353 378 q 293 389 319 389 l 232 389 l 232 0 l 7 0 m 232 572 l 293 572 q 363 593 349 572 q 376 622 371 603 q 382 672 382 640 l 382 708 q 376 752 382 736 q 363 776 371 768 q 336 792 353 786 q 293 797 319 797 l 232 797 l 232 572 m 201 -212 l 201 -51 l 413 -51 l 413 -212 l 201 -212 z "},"ṛ":{"ha":489,"x_min":7,"x_max":482,"o":"m 7 0 l 7 739 l 204 739 l 204 696 q 333 750 250 750 q 440 710 400 750 q 471 658 460 690 q 482 571 482 625 l 482 471 l 304 471 l 304 526 q 301 552 304 543 q 292 568 297 561 q 254 583 279 583 q 217 568 229 583 q 208 552 211 561 q 204 526 204 543 l 204 0 l 7 0 m 7 -228 l 7 -67 l 204 -67 l 204 -228 l 7 -228 z "},"Ṝ":{"ha":614,"x_min":7,"x_max":607,"o":"m 7 0 l 7 981 l 376 981 q 485 967 444 981 q 553 925 525 953 q 593 859 579 899 q 607 753 607 819 l 607 696 q 593 590 607 629 q 553 524 579 550 q 523 499 539 510 q 486 483 507 489 q 582 408 549 461 q 601 358 594 388 q 607 279 607 329 l 607 0 l 382 0 l 382 300 q 376 344 382 328 q 363 368 371 360 q 336 383 353 378 q 293 389 319 389 l 232 389 l 232 0 l 7 0 m 232 572 l 293 572 q 363 593 349 572 q 376 622 371 603 q 382 672 382 640 l 382 708 q 376 752 382 736 q 363 776 371 768 q 336 792 353 786 q 293 797 319 797 l 232 797 l 232 572 m 201 -212 l 201 -51 l 413 -51 l 413 -212 l 201 -212 m 110 1033 l 110 1175 l 504 1175 l 504 1033 l 110 1033 z "},"ṝ":{"ha":489,"x_min":7,"x_max":482,"o":"m 7 0 l 7 739 l 204 739 l 204 696 q 333 750 250 750 q 440 710 400 750 q 471 658 460 690 q 482 571 482 625 l 482 471 l 304 471 l 304 526 q 301 552 304 543 q 292 568 297 561 q 254 583 279 583 q 217 568 229 583 q 208 552 211 561 q 204 526 204 543 l 204 0 l 7 0 m 7 -228 l 7 -67 l 204 -67 l 204 -228 l 7 -228 m 47 839 l 47 981 l 442 981 l 442 839 l 47 839 z "},"Ṟ":{"ha":614,"x_min":7,"x_max":607,"o":"m 7 0 l 7 981 l 376 981 q 485 967 444 981 q 553 925 525 953 q 593 859 579 899 q 607 753 607 819 l 607 696 q 593 590 607 629 q 553 524 579 550 q 523 499 539 510 q 486 483 507 489 q 582 408 549 461 q 601 358 594 388 q 607 279 607 329 l 607 0 l 382 0 l 382 300 q 376 344 382 328 q 363 368 371 360 q 336 383 353 378 q 293 389 319 389 l 232 389 l 232 0 l 7 0 m 232 572 l 293 572 q 363 593 349 572 q 376 622 371 603 q 382 672 382 640 l 382 708 q 376 752 382 736 q 363 776 371 768 q 336 792 353 786 q 293 797 319 797 l 232 797 l 232 572 m 110 -194 l 110 -53 l 504 -53 l 504 -194 l 110 -194 z "},"ṟ":{"ha":489,"x_min":-92,"x_max":482,"o":"m 7 0 l 7 739 l 204 739 l 204 696 q 333 750 250 750 q 440 710 400 750 q 471 658 460 690 q 482 571 482 625 l 482 471 l 304 471 l 304 526 q 301 552 304 543 q 292 568 297 561 q 254 583 279 583 q 217 568 229 583 q 208 552 211 561 q 204 526 204 543 l 204 0 l 7 0 m -92 -208 l -92 -67 l 303 -67 l 303 -208 l -92 -208 z "},"Ṡ":{"ha":614,"x_min":7,"x_max":607,"o":"m 306 -6 q 168 11 225 -6 q 74 63 111 28 q 24 144 40 94 q 7 257 7 193 l 7 378 l 232 378 l 232 243 q 251 185 232 207 q 306 164 271 164 q 360 184 340 164 q 379 239 379 204 q 364 303 379 276 q 317 356 349 329 l 160 479 q 83 553 117 514 q 31 640 50 593 q 13 740 13 686 q 33 846 13 800 q 89 922 54 892 q 183 970 128 954 q 307 986 239 986 q 444 970 389 986 q 533 922 499 954 q 585 845 568 892 q 601 736 601 799 l 601 635 l 376 635 l 376 746 q 360 799 376 781 q 307 817 343 817 q 258 799 276 817 q 240 753 240 782 q 256 701 240 726 q 306 647 271 675 l 469 518 q 542 445 511 486 q 590 357 574 404 q 607 256 607 310 q 587 145 607 193 q 529 64 567 97 q 435 13 490 31 q 306 -6 379 -6 m 199 1033 l 199 1172 l 410 1172 l 410 1033 l 199 1033 z "},"ṡ":{"ha":531,"x_min":7,"x_max":524,"o":"m 265 -6 q 65 53 124 -6 q 7 232 7 113 l 7 278 l 204 278 l 204 207 q 219 159 204 176 q 265 142 235 142 q 313 160 300 142 q 326 197 326 179 q 308 239 326 222 q 250 279 290 256 l 125 353 q 40 430 67 388 q 13 531 13 472 q 45 655 13 608 q 135 723 78 701 q 265 744 192 744 q 403 722 347 744 q 489 649 460 699 q 518 514 518 599 l 518 471 l 321 471 l 321 529 q 309 577 321 557 q 265 597 297 597 q 223 581 236 597 q 210 546 210 565 q 224 506 210 521 q 267 475 239 492 l 410 389 q 475 336 450 365 q 512 273 500 307 q 524 203 524 239 q 499 96 524 143 q 417 22 474 49 q 265 -6 360 -6 m 161 819 l 161 981 l 358 981 l 358 819 l 161 819 z "},"Ṣ":{"ha":614,"x_min":7,"x_max":607,"o":"m 306 -6 q 168 11 225 -6 q 74 63 111 28 q 24 144 40 94 q 7 257 7 193 l 7 378 l 232 378 l 232 243 q 251 185 232 207 q 306 164 271 164 q 360 184 340 164 q 379 239 379 204 q 364 303 379 276 q 317 356 349 329 l 160 479 q 83 553 117 514 q 31 640 50 593 q 13 740 13 686 q 33 846 13 800 q 89 922 54 892 q 183 970 128 954 q 307 986 239 986 q 444 970 389 986 q 533 922 499 954 q 585 845 568 892 q 601 736 601 799 l 601 635 l 376 635 l 376 746 q 360 799 376 781 q 307 817 343 817 q 258 799 276 817 q 240 753 240 782 q 256 701 240 726 q 306 647 271 675 l 469 518 q 542 445 511 486 q 590 357 574 404 q 607 256 607 310 q 587 145 607 193 q 529 64 567 97 q 435 13 490 31 q 306 -6 379 -6 m 199 -212 l 199 -51 l 410 -51 l 410 -212 l 199 -212 z "},"ṣ":{"ha":531,"x_min":7,"x_max":524,"o":"m 265 -6 q 65 53 124 -6 q 7 232 7 113 l 7 278 l 204 278 l 204 207 q 219 159 204 176 q 265 142 235 142 q 313 160 300 142 q 326 197 326 179 q 308 239 326 222 q 250 279 290 256 l 125 353 q 40 430 67 388 q 13 531 13 472 q 45 655 13 608 q 135 723 78 701 q 265 744 192 744 q 403 722 347 744 q 489 649 460 699 q 518 514 518 599 l 518 471 l 321 471 l 321 529 q 309 577 321 557 q 265 597 297 597 q 223 581 236 597 q 210 546 210 565 q 224 506 210 521 q 267 475 239 492 l 410 389 q 475 336 450 365 q 512 273 500 307 q 524 203 524 239 q 499 96 524 143 q 417 22 474 49 q 265 -6 360 -6 m 161 -228 l 161 -67 l 358 -67 l 358 -228 l 161 -228 z "},"Ṫ":{"ha":614,"x_min":7,"x_max":607,"o":"m 194 0 l 194 797 l 7 797 l 7 981 l 607 981 l 607 797 l 419 797 l 419 0 l 194 0 m 201 1033 l 201 1172 l 413 1172 l 413 1033 l 201 1033 z "},"ṫ":{"ha":372,"x_min":7,"x_max":365,"o":"m 238 0 q 162 10 192 0 q 113 39 132 19 q 85 81 94 56 q 76 144 76 106 l 76 583 l 7 583 l 7 739 l 76 739 l 76 981 l 274 981 l 274 739 l 365 739 l 365 583 l 274 583 l 274 199 q 311 161 274 161 l 365 161 l 365 0 l 238 0 m 69 1033 l 69 1172 l 281 1172 l 281 1033 l 69 1033 z "},"Ṭ":{"ha":614,"x_min":7,"x_max":607,"o":"m 194 0 l 194 797 l 7 797 l 7 981 l 607 981 l 607 797 l 419 797 l 419 0 l 194 0 m 201 -212 l 201 -51 l 413 -51 l 413 -212 l 201 -212 z "},"ṭ":{"ha":372,"x_min":7,"x_max":365,"o":"m 238 0 q 162 10 192 0 q 113 39 132 19 q 85 81 94 56 q 76 144 76 106 l 76 583 l 7 583 l 7 739 l 76 739 l 76 981 l 274 981 l 274 739 l 365 739 l 365 583 l 274 583 l 274 199 q 311 161 274 161 l 365 161 l 365 0 l 238 0 m 139 -228 l 139 -67 l 336 -67 l 336 -228 l 139 -228 z "},"Ṯ":{"ha":614,"x_min":7,"x_max":607,"o":"m 194 0 l 194 797 l 7 797 l 7 981 l 607 981 l 607 797 l 419 797 l 419 0 l 194 0 m 110 -194 l 110 -53 l 504 -53 l 504 -194 l 110 -194 z "},"ṯ":{"ha":372,"x_min":7,"x_max":435,"o":"m 238 0 q 162 10 192 0 q 113 39 132 19 q 85 81 94 56 q 76 144 76 106 l 76 583 l 7 583 l 7 739 l 76 739 l 76 981 l 274 981 l 274 739 l 365 739 l 365 583 l 274 583 l 274 199 q 311 161 274 161 l 365 161 l 365 0 l 238 0 m 40 -208 l 40 -67 l 435 -67 l 435 -208 l 40 -208 z "},"Ṽ":{"ha":633,"x_min":0,"x_max":633,"o":"m 181 0 l 0 981 l 224 981 l 326 360 l 429 981 l 633 981 l 453 0 l 181 0 m 371 1024 q 327 1031 344 1024 q 296 1044 310 1038 q 277 1056 286 1051 q 260 1060 268 1060 q 238 1051 246 1060 q 231 1028 231 1042 l 125 1028 l 125 1074 q 162 1167 125 1132 q 263 1203 199 1203 q 302 1197 286 1203 q 331 1185 318 1192 q 354 1172 344 1178 q 374 1165 364 1165 q 403 1197 403 1165 l 508 1197 l 508 1153 q 472 1059 508 1094 q 371 1024 436 1024 z "},"ṽ":{"ha":553,"x_min":0,"x_max":553,"o":"m 133 0 l 0 739 l 203 739 l 285 231 l 367 739 l 553 739 l 419 0 l 133 0 m 331 813 q 287 818 304 813 q 256 833 269 824 q 219 849 233 849 q 198 840 206 849 q 190 817 190 831 l 85 817 l 85 857 q 122 951 85 915 q 222 986 158 986 q 262 981 246 986 q 290 968 278 975 q 314 955 304 961 q 333 949 324 949 q 363 981 363 949 l 363 982 l 468 982 l 468 942 q 432 848 468 883 q 331 813 396 813 z "},"Ẁ":{"ha":1033,"x_min":0,"x_max":1033,"o":"m 154 0 l 0 981 l 224 981 l 301 349 l 379 981 l 674 981 l 751 349 l 829 981 l 1033 981 l 879 0 l 594 0 l 517 631 l 439 0 l 154 0 m 429 1033 l 344 1172 l 581 1172 l 606 1033 l 429 1033 z "},"ẁ":{"ha":908,"x_min":0,"x_max":908,"o":"m 131 0 l 0 739 l 197 739 l 272 247 l 347 739 l 581 739 l 656 247 l 731 739 l 908 739 l 778 0 l 528 0 l 454 468 l 381 0 l 131 0 m 374 819 l 289 981 l 511 981 l 536 819 l 374 819 z "},"Ẃ":{"ha":1033,"x_min":0,"x_max":1033,"o":"m 154 0 l 0 981 l 224 981 l 301 349 l 379 981 l 674 981 l 751 349 l 829 981 l 1033 981 l 879 0 l 594 0 l 517 631 l 439 0 l 154 0 m 428 1033 l 453 1172 l 689 1172 l 604 1033 l 428 1033 z "},"ẃ":{"ha":908,"x_min":0,"x_max":908,"o":"m 131 0 l 0 739 l 197 739 l 272 247 l 347 739 l 581 739 l 656 247 l 731 739 l 908 739 l 778 0 l 528 0 l 454 468 l 381 0 l 131 0 m 372 819 l 397 981 l 619 981 l 535 819 l 372 819 z "},"Ẅ":{"ha":1033,"x_min":0,"x_max":1033,"o":"m 154 0 l 0 981 l 224 981 l 301 349 l 379 981 l 674 981 l 751 349 l 829 981 l 1033 981 l 879 0 l 594 0 l 517 631 l 439 0 l 154 0 m 293 1033 l 293 1172 l 483 1172 l 483 1033 l 293 1033 m 550 1033 l 550 1172 l 740 1172 l 740 1033 l 550 1033 z "},"ẅ":{"ha":908,"x_min":0,"x_max":908,"o":"m 131 0 l 0 739 l 197 739 l 272 247 l 347 739 l 581 739 l 656 247 l 731 739 l 908 739 l 778 0 l 528 0 l 454 468 l 381 0 l 131 0 m 238 819 l 238 981 l 421 981 l 421 819 l 238 819 m 488 819 l 488 981 l 671 981 l 671 819 l 488 819 z "},"Ẋ":{"ha":725,"x_min":0,"x_max":725,"o":"m 0 0 l 240 496 l 4 981 l 250 981 l 363 733 l 475 981 l 707 981 l 478 513 l 725 0 l 479 0 l 356 274 l 232 0 l 0 0 m 257 1033 l 257 1172 l 468 1172 l 468 1033 l 257 1033 z "},"ẋ":{"ha":617,"x_min":0,"x_max":617,"o":"m 0 0 l 206 374 l 4 739 l 210 739 l 308 554 l 407 739 l 614 739 l 413 374 l 617 0 l 410 0 l 308 193 l 207 0 l 0 0 m 210 819 l 210 981 l 407 981 l 407 819 l 210 819 z "},"Ẓ":{"ha":550,"x_min":7,"x_max":543,"o":"m 7 0 l 7 181 l 289 794 l 13 794 l 13 981 l 528 981 l 528 781 l 256 186 l 543 186 l 543 0 l 7 0 m 169 -212 l 169 -51 l 381 -51 l 381 -212 l 169 -212 z "},"ẓ":{"ha":468,"x_min":7,"x_max":461,"o":"m 7 0 l 7 161 l 229 578 l 14 578 l 14 739 l 444 739 l 444 578 l 222 161 l 461 161 l 461 0 l 7 0 m 136 -228 l 136 -67 l 333 -67 l 333 -228 l 136 -228 z "},"ẗ":{"ha":372,"x_min":-49,"x_max":399,"o":"m 238 0 q 162 10 192 0 q 113 39 132 19 q 85 81 94 56 q 76 144 76 106 l 76 583 l 7 583 l 7 739 l 76 739 l 76 981 l 274 981 l 274 739 l 365 739 l 365 583 l 274 583 l 274 199 q 311 161 274 161 l 365 161 l 365 0 l 238 0 m -49 1033 l -49 1172 l 142 1172 l 142 1033 l -49 1033 m 208 1033 l 208 1172 l 399 1172 l 399 1033 l 208 1033 z "},"ẞ":{"ha":619,"x_min":7,"x_max":613,"o":"m 7 0 l 7 981 l 592 981 l 592 806 l 471 632 q 521 613 500 625 q 558 585 542 601 q 599 519 585 558 q 613 413 613 479 l 613 269 q 596 151 613 197 q 547 74 579 106 q 454 19 513 39 q 299 0 396 0 l 257 0 l 257 183 l 299 183 q 342 189 326 183 q 368 204 358 194 q 382 228 376 213 q 388 272 388 244 l 388 389 q 381 435 388 418 q 361 463 374 453 q 339 474 353 469 q 299 478 325 478 l 257 478 l 257 638 l 364 797 l 232 797 l 232 0 l 7 0 z "},"Ạ":{"ha":647,"x_min":0,"x_max":647,"o":"m 0 0 l 151 981 l 497 981 l 647 0 l 421 0 l 397 172 l 236 172 l 213 0 l 0 0 m 258 349 l 375 349 l 317 810 l 258 349 m 218 -212 l 218 -51 l 429 -51 l 429 -212 l 218 -212 z "},"ạ":{"ha":531,"x_min":7,"x_max":524,"o":"m 185 -11 q 53 41 100 -11 q 7 190 7 93 l 7 233 q 32 332 7 294 q 114 399 57 369 l 286 486 q 309 501 300 493 q 322 521 318 510 q 326 544 326 532 q 312 584 326 571 q 269 597 297 597 q 224 582 239 597 q 210 538 210 567 l 210 471 l 15 471 l 15 525 q 81 693 15 642 q 269 744 147 744 q 460 691 397 744 q 524 522 524 638 l 524 0 l 326 0 l 326 50 q 185 -11 278 -11 m 265 142 q 326 208 326 142 l 326 350 q 315 341 321 344 q 303 333 310 338 l 247 303 q 214 273 224 289 q 204 231 204 257 l 204 208 q 265 142 204 142 m 167 -228 l 167 -67 l 364 -67 l 364 -228 l 167 -228 z "},"Ẹ":{"ha":522,"x_min":7,"x_max":515,"o":"m 7 0 l 7 981 l 515 981 l 515 797 l 232 797 l 232 596 l 515 596 l 515 413 l 232 413 l 232 183 l 515 183 l 515 0 l 7 0 m 156 -212 l 156 -51 l 367 -51 l 367 -212 l 156 -212 z "},"ẹ":{"ha":531,"x_min":7,"x_max":524,"o":"m 265 -6 q 142 10 189 -6 q 64 57 94 26 q 22 126 38 85 q 7 236 7 168 l 7 503 q 22 613 7 571 q 64 682 38 656 q 142 728 94 713 q 265 744 189 744 q 389 728 342 744 q 467 682 436 713 q 509 605 494 656 q 524 486 524 554 l 524 310 l 204 310 l 204 217 q 208 179 204 192 q 221 158 213 167 q 265 142 238 142 q 310 158 293 142 q 322 179 318 167 q 326 217 326 192 l 326 278 l 524 278 l 524 236 q 509 126 524 168 q 467 57 494 85 q 389 10 436 26 q 265 -6 342 -6 m 204 438 l 326 438 l 326 522 q 322 560 326 547 q 310 581 318 572 q 265 597 293 597 q 221 581 238 597 q 208 560 213 572 q 204 522 204 547 l 204 438 m 167 -228 l 167 -67 l 364 -67 l 364 -228 l 167 -228 z "},"Ẽ":{"ha":522,"x_min":7,"x_max":515,"o":"m 7 0 l 7 981 l 515 981 l 515 797 l 232 797 l 232 596 l 515 596 l 515 413 l 232 413 l 232 183 l 515 183 l 515 0 l 7 0 m 315 1024 q 272 1031 289 1024 q 240 1044 254 1038 q 222 1056 231 1051 q 204 1060 213 1060 q 183 1051 190 1060 q 175 1028 175 1042 l 69 1028 l 69 1074 q 106 1167 69 1132 q 207 1203 143 1203 q 247 1197 231 1203 q 275 1185 263 1192 q 299 1172 289 1178 q 318 1165 308 1165 q 347 1197 347 1165 l 453 1197 l 453 1153 q 417 1059 453 1094 q 315 1024 381 1024 z "},"ẽ":{"ha":531,"x_min":7,"x_max":524,"o":"m 265 -6 q 142 10 189 -6 q 64 57 94 26 q 22 126 38 85 q 7 236 7 168 l 7 503 q 22 613 7 571 q 64 682 38 656 q 142 728 94 713 q 265 744 189 744 q 389 728 342 744 q 467 682 436 713 q 509 605 494 656 q 524 486 524 554 l 524 310 l 204 310 l 204 217 q 208 179 204 192 q 221 158 213 167 q 265 142 238 142 q 310 158 293 142 q 322 179 318 167 q 326 217 326 192 l 326 278 l 524 278 l 524 236 q 509 126 524 168 q 467 57 494 85 q 389 10 436 26 q 265 -6 342 -6 m 204 438 l 326 438 l 326 522 q 322 560 326 547 q 310 581 318 572 q 265 597 293 597 q 221 581 238 597 q 208 560 213 572 q 204 522 204 547 l 204 438 m 319 813 q 276 818 293 813 q 244 833 258 824 q 208 849 222 849 q 187 840 194 849 q 179 817 179 831 l 74 817 l 74 857 q 110 951 74 915 q 211 986 147 986 q 251 981 235 986 q 279 968 267 975 q 303 955 293 961 q 322 949 313 949 q 351 981 351 949 l 351 982 l 457 982 l 457 942 q 421 848 457 883 q 319 813 385 813 z "},"Ị":{"ha":239,"x_min":7,"x_max":232,"o":"m 7 0 l 7 981 l 232 981 l 232 0 l 7 0 m 14 -212 l 14 -51 l 225 -51 l 225 -212 l 14 -212 z "},"ị":{"ha":211,"x_min":7,"x_max":204,"o":"m 7 0 l 7 739 l 204 739 l 204 0 l 7 0 m 7 821 l 7 981 l 204 981 l 204 821 l 7 821 m 7 -228 l 7 -67 l 204 -67 l 204 -228 l 7 -228 z "},"Ọ":{"ha":614,"x_min":7,"x_max":607,"o":"m 307 -6 q 165 13 221 -6 q 72 68 108 32 q 24 146 40 100 q 7 264 7 192 l 7 717 q 24 835 7 789 q 72 913 40 881 q 165 967 108 949 q 307 986 221 986 q 449 967 393 986 q 542 913 506 949 q 590 835 574 881 q 607 717 607 789 l 607 264 q 590 146 607 192 q 542 68 574 100 q 449 13 506 32 q 307 -6 393 -6 m 307 147 q 363 168 342 147 q 376 192 371 176 q 382 236 382 208 l 382 744 q 376 788 382 772 q 363 813 371 804 q 307 833 342 833 q 251 813 272 833 q 238 788 243 804 q 232 744 232 772 l 232 236 q 238 192 232 208 q 251 168 243 176 q 307 147 272 147 m 201 -212 l 201 -51 l 413 -51 l 413 -212 l 201 -212 z "},"ọ":{"ha":531,"x_min":7,"x_max":524,"o":"m 265 -6 q 142 10 189 -6 q 64 57 94 26 q 22 126 38 85 q 7 236 7 168 l 7 503 q 22 613 7 571 q 64 682 38 656 q 142 728 94 713 q 265 744 189 744 q 390 728 343 744 q 467 682 436 713 q 509 613 494 656 q 524 503 524 571 l 524 236 q 509 126 524 168 q 467 57 494 85 q 390 10 436 26 q 265 -6 343 -6 m 265 142 q 310 158 293 142 q 322 179 318 167 q 326 217 326 192 l 326 522 q 322 560 326 547 q 310 581 318 572 q 265 597 293 597 q 221 581 238 597 q 208 560 213 572 q 204 522 204 547 l 204 217 q 208 179 204 192 q 221 158 213 167 q 265 142 238 142 m 167 -228 l 167 -67 l 364 -67 l 364 -228 l 167 -228 z "},"Ụ":{"ha":614,"x_min":7,"x_max":607,"o":"m 307 -6 q 165 13 221 -6 q 72 68 108 32 q 24 146 40 100 q 7 263 7 192 l 7 981 l 232 981 l 232 236 q 238 192 232 208 q 251 168 243 176 q 276 153 263 158 q 307 147 290 147 q 363 168 342 147 q 376 192 371 176 q 382 236 382 208 l 382 981 l 607 981 l 607 263 q 590 146 607 192 q 542 68 574 100 q 449 13 506 32 q 307 -6 393 -6 m 201 -212 l 201 -51 l 413 -51 l 413 -212 l 201 -212 z "},"ụ":{"ha":531,"x_min":7,"x_max":524,"o":"m 186 -11 q 58 36 106 -11 q 20 100 33 61 q 7 203 7 139 l 7 739 l 204 739 l 204 231 q 208 193 204 206 q 221 172 213 181 q 265 156 238 156 q 310 172 293 156 q 322 193 318 181 q 326 231 326 206 l 326 739 l 524 739 l 524 0 l 326 0 l 326 50 q 265 4 301 19 q 186 -11 228 -11 m 167 -228 l 167 -67 l 364 -67 l 364 -228 l 167 -228 z "},"Ỳ":{"ha":665,"x_min":0,"x_max":665,"o":"m 219 0 l 219 322 l 0 981 l 222 981 l 339 593 l 457 981 l 665 981 l 444 322 l 444 0 l 219 0 m 246 1033 l 161 1172 l 397 1172 l 422 1033 l 246 1033 z "},"ỳ":{"ha":625,"x_min":0,"x_max":625,"o":"m 156 -228 l 229 19 l 0 739 l 207 739 l 319 331 l 436 739 l 625 739 l 344 -228 l 156 -228 m 232 819 l 147 981 l 369 981 l 394 819 l 232 819 z "},"Ỹ":{"ha":665,"x_min":0,"x_max":665,"o":"m 219 0 l 219 322 l 0 981 l 222 981 l 339 593 l 457 981 l 665 981 l 444 322 l 444 0 l 219 0 m 388 1024 q 344 1031 361 1024 q 313 1044 326 1038 q 294 1056 303 1051 q 276 1060 285 1060 q 255 1051 263 1060 q 247 1028 247 1042 l 142 1028 l 142 1074 q 178 1167 142 1132 q 279 1203 215 1203 q 319 1197 303 1203 q 347 1185 335 1192 q 371 1172 361 1178 q 390 1165 381 1165 q 419 1197 419 1165 l 525 1197 l 525 1153 q 489 1059 525 1094 q 388 1024 453 1024 z "},"ỹ":{"ha":625,"x_min":0,"x_max":625,"o":"m 156 -228 l 229 19 l 0 739 l 207 739 l 319 331 l 436 739 l 625 739 l 344 -228 l 156 -228 m 367 813 q 323 818 340 813 q 292 833 306 824 q 256 849 269 849 q 234 840 242 849 q 226 817 226 831 l 121 817 l 121 857 q 158 951 121 915 q 258 986 194 986 q 298 981 282 986 q 326 968 314 975 q 350 955 340 961 q 369 949 360 949 q 399 981 399 949 l 399 982 l 504 982 l 504 942 q 468 848 504 883 q 367 813 432 813 z "}," ":{"ha":489,"x_min":0,"x_max":0,"o":""}," ":{"ha":1097,"x_min":0,"x_max":0,"o":""}," ":{"ha":489,"x_min":0,"x_max":0,"o":""}," ":{"ha":1099,"x_min":0,"x_max":0,"o":""}," ":{"ha":463,"x_min":0,"x_max":0,"o":""}," ":{"ha":347,"x_min":0,"x_max":0,"o":""}," ":{"ha":232,"x_min":0,"x_max":0,"o":""}," ":{"ha":614,"x_min":0,"x_max":0,"o":""}," ":{"ha":225,"x_min":0,"x_max":0,"o":""}," ":{"ha":108,"x_min":0,"x_max":0,"o":""}," ":{"ha":67,"x_min":0,"x_max":0,"o":""},"​":{"ha":0,"x_min":0,"x_max":0,"o":""},"‐":{"ha":339,"x_min":7,"x_max":332,"o":"m 7 340 l 7 496 l 332 496 l 332 340 l 7 340 z "},"‑":{"ha":339,"x_min":7,"x_max":332,"o":"m 7 340 l 7 496 l 332 496 l 332 340 l 7 340 z "},"‒":{"ha":489,"x_min":7,"x_max":482,"o":"m 7 340 l 7 496 l 482 496 l 482 340 l 7 340 z "},"–":{"ha":489,"x_min":7,"x_max":482,"o":"m 7 340 l 7 496 l 482 496 l 482 340 l 7 340 z "},"—":{"ha":1097,"x_min":7,"x_max":1092,"o":"m 7 340 l 7 496 l 1092 496 l 1092 340 l 7 340 z "},"―":{"ha":1097,"x_min":7,"x_max":1092,"o":"m 7 340 l 7 496 l 1092 496 l 1092 340 l 7 340 z "},"‘":{"ha":225,"x_min":7,"x_max":218,"o":"m 204 981 l 204 897 l 199 897 q 163 886 174 897 q 154 872 157 881 q 151 850 151 864 l 151 803 l 218 803 l 218 610 l 7 610 l 7 833 q 13 890 7 868 q 29 928 19 913 q 76 967 46 953 q 154 981 106 981 l 204 981 z "},"’":{"ha":225,"x_min":7,"x_max":218,"o":"m 21 610 l 21 693 l 26 693 q 63 704 51 693 q 71 718 68 710 q 74 740 74 726 l 74 788 l 7 788 l 7 981 l 218 981 l 218 757 q 212 700 218 722 q 196 663 206 678 q 149 624 179 638 q 71 610 119 610 l 21 610 z "},"‚":{"ha":225,"x_min":7,"x_max":218,"o":"m 21 -178 l 21 -94 l 26 -94 q 63 -83 51 -94 q 71 -69 68 -78 q 74 -47 74 -61 l 74 0 l 7 0 l 7 193 l 218 193 l 218 -31 q 212 -87 218 -65 q 196 -125 206 -110 q 149 -164 179 -150 q 71 -178 119 -178 l 21 -178 z "}}}
